{
copyright = "Copyright (c) 2015, Impallari Type (www.impallari.com), with Reserved Font Name Libre Franklin.";
customParameters = (
{
name = openTypeOS2Type;
value = (
);
},
{
name = licenseURL;
value = "http://scripts.sil.org/OFL";
},
{
name = license;
value = "This Font Software is licensed under the SIL Open Font License, Version 1.1. This license is available with a FAQ at: http://scripts.sil.org/OFL";
},
{
name = trademark;
value = "Libre Franklin is a trademark of Impallari Type.";
},
{
name = description;
value = "Libre Franklin is an ATF Franklin Gothic Revival";
},
{
name = vendorID;
value = IMPA;
}
);
date = "2015-07-18 00:41:51 +0000";
designer = "Pablo Impallari, Rodrigo Fuenzalida";
designerURL = "http://www.impallari.com/";
familyName = "Libre Franklin";
featurePrefixes = (
{
automatic = 1;
code = "languagesystem DFLT dflt;\012languagesystem latn dflt;\012languagesystem latn CAT;\012languagesystem latn ROM;\012languagesystem latn MOL;\012languagesystem latn KAZ;\012languagesystem latn TAT;\012languagesystem latn TRK;\012languagesystem latn CRT;\012languagesystem latn AZE;\012";
name = Languagesystems;
}
);
features = (
{
automatic = 1;
code = "feature locl;\012feature subs;\012feature sinf;\012feature sups;\012feature numr;\012feature dnom;\012feature frac;\012feature ordn;\012";
name = aalt;
},
{
automatic = 1;
code = "script latn;\012language CAT;\012sub  l' periodcentered' l by ldot;\012sub  L' periodcentered' L by Ldot;\012language ROM;\012sub Scedilla by Scommaaccent;\012sub scedilla by scommaaccent;\012sub Tcedilla by Tcommaaccent;\012sub tcedilla by tcommaaccent;\012language MOL;\012sub Scedilla by Scommaaccent;\012sub scedilla by scommaaccent;\012sub Tcedilla by Tcommaaccent;\012sub tcedilla by tcommaaccent;\012language KAZ;\012sub i by idotaccent;\012language TAT;\012sub i by idotaccent;\012language TRK;\012sub i by idotaccent;\012language CRT;\012sub i by idotaccent;\012language AZE;\012sub i by idotaccent;\012";
name = locl;
},
{

glyphs = (
{
color = 4;
glyphname = A;
lastChange = "2015-08-07 07:12:27 +0000";
layers = (
{
anchors = (
{
name = ogonek;
position = "{702, 10}";
},
{
name = top;
position = "{355, 742}";
}
);
background = {
paths = (
{
closed = 1;
nodes = (
"446 742 LINE SMOOTH",
"463 742 OFFCURVE",
"476 731 OFFCURVE",
"481 715 CURVE SMOOTH",
"713 34 LINE SMOOTH",
"717 20 OFFCURVE",
"714 0 OFFCURVE",
"699 0 CURVE SMOOTH",
"506 0 LINE SMOOTH",
"496 0 OFFCURVE",
"487 4 OFFCURVE",
"484 17 CURVE SMOOTH",
"448 141 LINE SMOOTH",
"446 148 OFFCURVE",
"443 153 OFFCURVE",
"433 153 CURVE SMOOTH",
"232 153 LINE SMOOTH",
"224 153 OFFCURVE",
"219 149 OFFCURVE",
"217 142 CURVE SMOOTH",
"179 15 LINE SMOOTH",
"177 7 OFFCURVE",
"169 0 OFFCURVE",
"155 0 CURVE SMOOTH",
"3 0 LINE SMOOTH",
"-12 0 OFFCURVE",
"-19 15 OFFCURVE",
"-12 37 CURVE SMOOTH",
"222 719 LINE SMOOTH",
"227 735 OFFCURVE",
"234 742 OFFCURVE",
"251 742 CURVE SMOOTH"
);
},
{
closed = 1;
nodes = (
"337 505 LINE SMOOTH",
"335 512 OFFCURVE",
"329 512 OFFCURVE",
"326 505 CURVE SMOOTH",
"270 335 LINE SMOOTH",
"266 322 OFFCURVE",
"268 314 OFFCURVE",
"280 314 CURVE SMOOTH",
"383 314 LINE SMOOTH",
"394 314 OFFCURVE",
"396 321 OFFCURVE",
"392 334 CURVE SMOOTH"
);
}
);
};
layerId = "258ED206-D907-4350-8EBA-CBDDA1C16BF7";
name = Bold;
paths = (
{
closed = 1;
nodes = (
"242 742 OFFCURVE",
"235 735 OFFCURVE",
"230 719 CURVE SMOOTH",
"-4 37 LINE SMOOTH",
"-12 15 OFFCURVE",
"-4 0 OFFCURVE",
"11 0 CURVE SMOOTH",
"163 0 LINE SMOOTH",
"177 0 OFFCURVE",
"184 7 OFFCURVE",
"187 15 CURVE SMOOTH",
"225 133 LINE SMOOTH",
"227 140 OFFCURVE",
"232 144 OFFCURVE",
"240 144 CURVE SMOOTH",
"441 144 LINE SMOOTH",
"451 144 OFFCURVE",
"453 139 OFFCURVE",
"456 132 CURVE SMOOTH",
"492 17 LINE SMOOTH",
"496 4 OFFCURVE",
"504 0 OFFCURVE",
"514 0 CURVE SMOOTH",
"710 0 LINE SMOOTH",
"725 0 OFFCURVE",
"729 20 OFFCURVE",
"724 34 CURVE SMOOTH",
"492 715 LINE SMOOTH",
"487 731 OFFCURVE",
"474 742 OFFCURVE",
"457 742 CURVE SMOOTH",
"259 742 LINE SMOOTH"
);
},
{
closed = 1;
nodes = (
"404 321 OFFCURVE",
"402 314 OFFCURVE",
"391 314 CURVE SMOOTH",
"288 314 LINE SMOOTH",
"276 314 OFFCURVE",
"273 322 OFFCURVE",
"278 335 CURVE SMOOTH",
"334 505 LINE SMOOTH",
"336 512 OFFCURVE",
"342 512 OFFCURVE",
"345 505 CURVE SMOOTH",
"400 334 LINE SMOOTH"
);
}
);
width = 710;
},
{
anchors = (
{
name = ogonek;
position = "{586, 10}";
},
{
name = top;
position = "{318, 742}";
}
);
background = {
components = (
{
name = H;
transform = "{1, 0, 0, 1, -37, 0}";
}
);
paths = (
{
closed = 1;
nodes = (
"205 742 OFFCURVE",
"198 735 OFFCURVE",
"193 719 CURVE SMOOTH",
"-41 37 LINE SMOOTH",
"-49 15 OFFCURVE",
"-41 0 OFFCURVE",
"-26 0 CURVE SMOOTH",
"126 0 LINE SMOOTH",
"140 0 OFFCURVE",
"147 7 OFFCURVE",
"150 15 CURVE SMOOTH",
"188 133 LINE SMOOTH",
"190 140 OFFCURVE",
"195 144 OFFCURVE",
"203 144 CURVE SMOOTH",
"404 144 LINE SMOOTH",
"414 144 OFFCURVE",
"416 139 OFFCURVE",
"419 132 CURVE SMOOTH",
"455 17 LINE SMOOTH",
"459 4 OFFCURVE",
"467 0 OFFCURVE",
"477 0 CURVE SMOOTH",
"673 0 LINE SMOOTH",
"688 0 OFFCURVE",
"692 20 OFFCURVE",
"687 34 CURVE SMOOTH",
"455 715 LINE SMOOTH",
"450 731 OFFCURVE",
"437 742 OFFCURVE",
"420 742 CURVE SMOOTH",
"222 742 LINE SMOOTH"
);
},
{
closed = 1;
nodes = (
"367 321 OFFCURVE",
"365 314 OFFCURVE",
"354 314 CURVE SMOOTH",
"251 314 LINE SMOOTH",
"239 314 OFFCURVE",
"236 322 OFFCURVE",
"241 335 CURVE SMOOTH",
"297 505 LINE SMOOTH",
"299 512 OFFCURVE",
"305 512 OFFCURVE",
"308 505 CURVE SMOOTH",
"363 334 LINE SMOOTH"
);
}
);
};
layerId = "91AB5BCA-6A50-42DA-B2F7-8181BF189245";
name = Light;
paths = (
{
closed = 1;
nodes = (
"294 742 OFFCURVE",
"290 739 OFFCURVE",
"287 731 CURVE SMOOTH",
"40 9 LINE",
"38 4 OFFCURVE",
"41 0 OFFCURVE",
"47 0 CURVE SMOOTH",
"69 0 LINE SMOOTH",
"75 0 OFFCURVE",
"78 2 OFFCURVE",
"80 7 CURVE",
"157 231 LINE SMOOTH",
"159 236 OFFCURVE",
"161 238 OFFCURVE",
"167 238 CURVE SMOOTH",
"463 238 LINE SMOOTH",
"469 238 OFFCURVE",
"471 236 OFFCURVE",
"473 231 CURVE SMOOTH",
"549 8 LINE SMOOTH",
"551 2 OFFCURVE",
"554 0 OFFCURVE",
"561 0 CURVE SMOOTH",
"588 0 LINE SMOOTH",
"595 0 OFFCURVE",
"598 4 OFFCURVE",
"596 10 CURVE SMOOTH",
"353 732 LINE",
"351 739 OFFCURVE",
"345 742 OFFCURVE",
"335 742 CURVE SMOOTH",
"303 742 LINE SMOOTH"
);
},
{
closed = 1;
nodes = (
"457 282 OFFCURVE",
"456 278 OFFCURVE",
"448 278 CURVE SMOOTH",
"179 278 LINE SMOOTH",
"173 278 OFFCURVE",
"172 279 OFFCURVE",
"175 286 CURVE SMOOTH",
"308 677 LINE SMOOTH",
"313 691 OFFCURVE",
"319 691 OFFCURVE",
"323 678 CURVE SMOOTH",
"455 288 LINE SMOOTH"
);
}
);
width = 637;
}
);
unicode = 0041;
},
{
color = 4;
glyphname = Aringacute;
lastChange = "2015-08-07 07:12:27 +0000";
layers = (
{
layerId = "258ED206-D907-4350-8EBA-CBDDA1C16BF7";
name = Bold;
paths = (
{
closed = 1;
nodes = (
"471 856 OFFCURVE",
"422 899 OFFCURVE",
"361 899 CURVE SMOOTH",
"301 899 OFFCURVE",
"251 857 OFFCURVE",
"251 798 CURVE SMOOTH",
"251 735 OFFCURVE",
"300 693 OFFCURVE",
"361 693 CURVE SMOOTH",
"422 693 OFFCURVE",
"471 734 OFFCURVE",
"471 796 CURVE SMOOTH"
);
},
{
closed = 1;
nodes = (
"408 769 OFFCURVE",
"387 746 OFFCURVE",
"360 746 CURVE SMOOTH",
"334 746 OFFCURVE",
"311 769 OFFCURVE",
"311 795 CURVE SMOOTH",
"311 822 OFFCURVE",
"334 842 OFFCURVE",
"360 842 CURVE SMOOTH",
"387 842 OFFCURVE",
"408 822 OFFCURVE",
"408 795 CURVE SMOOTH"
);
},
{
closed = 1;
nodes = (
"242 742 OFFCURVE",
"235 735 OFFCURVE",
"230 719 CURVE SMOOTH",
"-4 37 LINE SMOOTH",
"-12 15 OFFCURVE",
"-4 0 OFFCURVE",
"11 0 CURVE SMOOTH",
"163 0 LINE SMOOTH",
"177 0 OFFCURVE",
"184 7 OFFCURVE",
"187 15 CURVE SMOOTH",
"225 133 LINE SMOOTH",
"227 140 OFFCURVE",
"232 144 OFFCURVE",
"240 144 CURVE SMOOTH",
"441 144 LINE SMOOTH",
"451 144 OFFCURVE",
"453 139 OFFCURVE",
"456 132 CURVE SMOOTH",
"492 17 LINE SMOOTH",
"496 4 OFFCURVE",
"504 0 OFFCURVE",
"514 0 CURVE SMOOTH",
"710 0 LINE SMOOTH",
"725 0 OFFCURVE",
"729 20 OFFCURVE",
"724 34 CURVE SMOOTH",
"492 715 LINE SMOOTH",
"487 731 OFFCURVE",
"474 742 OFFCURVE",
"457 742 CURVE SMOOTH",
"259 742 LINE SMOOTH"
);
},
{
closed = 1;
nodes = (
"404 321 OFFCURVE",
"402 314 OFFCURVE",
"391 314 CURVE SMOOTH",
"288 314 LINE SMOOTH",
"276 314 OFFCURVE",
"273 322 OFFCURVE",
"278 335 CURVE SMOOTH",
"334 505 LINE SMOOTH",
"336 512 OFFCURVE",
"342 512 OFFCURVE",
"345 505 CURVE SMOOTH",
"400 334 LINE SMOOTH"
);
},
{
closed = 1;
nodes = (
"351 964 OFFCURVE",
"338 958 OFFCURVE",
"332 933 CURVE SMOOTH",
"318 875 LINE",
"404 875 LINE",
"429 935 LINE SMOOTH",
"435 949 OFFCURVE",
"431 964 OFFCURVE",
"415 964 CURVE SMOOTH",
"370 964 LINE SMOOTH"
);
}
);
width = 710;
},
{
layerId = "91AB5BCA-6A50-42DA-B2F7-8181BF189245";
name = Light;
paths = (
{
closed = 1;
nodes = (
"418 857 OFFCURVE",
"374 900 OFFCURVE",
"318 900 CURVE SMOOTH",
"263 900 OFFCURVE",
"218 857 OFFCURVE",
"218 804 CURVE SMOOTH",
"218 746 OFFCURVE",
"262 702 OFFCURVE",
"318 702 CURVE SMOOTH",
"374 702 OFFCURVE",
"418 745 OFFCURVE",
"418 802 CURVE SMOOTH"
);
},
{
closed = 1;
nodes = (
"375 770 OFFCURVE",
"350 742 OFFCURVE",
"317 742 CURVE SMOOTH",
"286 742 OFFCURVE",
"258 770 OFFCURVE",
"258 801 CURVE SMOOTH",
"258 836 OFFCURVE",
"286 860 OFFCURVE",
"317 860 CURVE SMOOTH",
"350 860 OFFCURVE",
"375 836 OFFCURVE",
"375 801 CURVE SMOOTH"
);
},
{
closed = 1;
nodes = (
"294 742 OFFCURVE",
"290 739 OFFCURVE",
"287 731 CURVE SMOOTH",
"40 9 LINE",
"38 4 OFFCURVE",
"41 0 OFFCURVE",
"47 0 CURVE SMOOTH",
"69 0 LINE SMOOTH",
"75 0 OFFCURVE",
"78 2 OFFCURVE",
"80 7 CURVE",
"157 231 LINE SMOOTH",
"159 236 OFFCURVE",
"161 238 OFFCURVE",
"167 238 CURVE SMOOTH",
"463 238 LINE SMOOTH",
"469 238 OFFCURVE",
"471 236 OFFCURVE",
"473 231 CURVE SMOOTH",
"549 8 LINE SMOOTH",
"551 2 OFFCURVE",
"554 0 OFFCURVE",
"561 0 CURVE SMOOTH",
"588 0 LINE SMOOTH",
"595 0 OFFCURVE",
"598 4 OFFCURVE",
"596 10 CURVE SMOOTH",
"353 732 LINE",
"351 739 OFFCURVE",
"345 742 OFFCURVE",
"335 742 CURVE SMOOTH",
"303 742 LINE SMOOTH"
);
},
{
closed = 1;
nodes = (
"457 282 OFFCURVE",
"456 278 OFFCURVE",
"448 278 CURVE SMOOTH",
"179 278 LINE SMOOTH",
"173 278 OFFCURVE",
"172 279 OFFCURVE",
"175 286 CURVE SMOOTH",
"308 677 LINE SMOOTH",
"313 691 OFFCURVE",
"319 691 OFFCURVE",
"323 678 CURVE SMOOTH",
"455 288 LINE SMOOTH"
);
},
{
closed = 1;
nodes = (
"331 964 OFFCURVE",
"326 960 OFFCURVE",
"324 951 CURVE SMOOTH",
"306 875 LINE",
"344 875 LINE",
"375 948 LINE SMOOTH",
"379 958 OFFCURVE",
"376 964 OFFCURVE",
"365 964 CURVE SMOOTH",
"342 964 LINE SMOOTH"
);
}
);
width = 637;
}
);
unicode = 01FA;
},
{
color = 4;
glyphname = AE;
lastChange = "2015-08-07 07:12:27 +0000";
layers = (
{
anchors = (
{
name = top;
position = "{689, 742}";
}
);
layerId = "258ED206-D907-4350-8EBA-CBDDA1C16BF7";
name = Bold;
paths = (
{
closed = 1;
nodes = (
"715 164 LINE SMOOTH",
"706 164 OFFCURVE",
"703 167 OFFCURVE",
"703 178 CURVE SMOOTH",
"703 278 LINE SMOOTH",
"703 286 OFFCURVE",
"709 292 OFFCURVE",
"719 292 CURVE SMOOTH",
"904 292 LINE SMOOTH",
"917 292 OFFCURVE",
"922 300 OFFCURVE",
"922 309 CURVE SMOOTH",
"922 433 LINE SMOOTH",
"922 446 OFFCURVE",
"915 453 OFFCURVE",
"901 453 CURVE SMOOTH",
"721 453 LINE SMOOTH",
"711 453 OFFCURVE",
"703 460 OFFCURVE",
"703 474 CURVE SMOOTH",
"703 559 LINE SMOOTH",
"703 572 OFFCURVE",
"711 578 OFFCURVE",
"726 578 CURVE SMOOTH",
"1026 578 LINE SMOOTH",
"1044 578 OFFCURVE",
"1052 589 OFFCURVE",
"1052 605 CURVE SMOOTH",
"1053 721 LINE SMOOTH",
"1053 734 OFFCURVE",
"1047 742 OFFCURVE",
"1035 742 CURVE SMOOTH",
"386 742 LINE SMOOTH",
"369 742 OFFCURVE",
"361 735 OFFCURVE",
"353 719 CURVE SMOOTH",
"-1 37 LINE SMOOTH",
"-13 15 OFFCURVE",
"-7 0 OFFCURVE",
"8 0 CURVE SMOOTH",
"160 0 LINE SMOOTH",
"174 0 OFFCURVE",
"182 7 OFFCURVE",
"186 15 CURVE SMOOTH",
"245 133 LINE",
"248 140 OFFCURVE",
"254 144 OFFCURVE",
"262 144 CURVE SMOOTH",
"463 144 LINE SMOOTH",
"473 144 OFFCURVE",
"476 139 OFFCURVE",
"476 130 CURVE SMOOTH",
"476 25 LINE SMOOTH",
"476 8 OFFCURVE",
"483 0 OFFCURVE",
"503 0 CURVE SMOOTH",
"1038 0 LINE SMOOTH",
"1055 0 OFFCURVE",
"1062 10 OFFCURVE",
"1062 22 CURVE SMOOTH",
"1062 145 LINE SMOOTH",
"1062 159 OFFCURVE",
"1054 164 OFFCURVE",
"1040 164 CURVE SMOOTH"
);
},
{
closed = 1;
nodes = (
"340 314 LINE SMOOTH",
"328 314 OFFCURVE",
"326 322 OFFCURVE",
"334 335 CURVE",
"436 537 LINE SMOOTH",
"452 567 OFFCURVE",
"476 565 OFFCURVE",
"476 535 CURVE SMOOTH",
"476 334 LINE SMOOTH",
"476 321 OFFCURVE",
"469 314 OFFCURVE",
"457 314 CURVE SMOOTH"
);
}
);
width = 1090;
},
{
anchors = (
{
name = top;
position = "{671, 742}";
}
);
layerId = "91AB5BCA-6A50-42DA-B2F7-8181BF189245";
name = Light;
paths = (
{
closed = 1;
nodes = (
"540 40 LINE SMOOTH",
"533 40 OFFCURVE",
"531 41 OFFCURVE",
"531 49 CURVE SMOOTH",
"531 346 LINE SMOOTH",
"531 354 OFFCURVE",
"533 355 OFFCURVE",
"540 355 CURVE SMOOTH",
"898 355 LINE SMOOTH",
"904 355 OFFCURVE",
"906 356 OFFCURVE",
"906 362 CURVE SMOOTH",
"906 388 LINE SMOOTH",
"906 393 OFFCURVE",
"904 395 OFFCURVE",
"899 395 CURVE SMOOTH",
"540 395 LINE SMOOTH",
"533 395 OFFCURVE",
"531 396 OFFCURVE",
"531 402 CURVE SMOOTH",
"531 693 LINE SMOOTH",
"531 701 OFFCURVE",
"533 702 OFFCURVE",
"540 702 CURVE SMOOTH",
"928 702 LINE SMOOTH",
"934 702 OFFCURVE",
"936 703 OFFCURVE",
"936 709 CURVE SMOOTH",
"936 735 LINE SMOOTH",
"936 740 OFFCURVE",
"934 742 OFFCURVE",
"929 742 CURVE SMOOTH",
"469 742 LINE SMOOTH",
"460 742 OFFCURVE",
"455 739 OFFCURVE",
"451 731 CURVE",
"41 9 LINE SMOOTH",
"38 4 OFFCURVE",
"40 0 OFFCURVE",
"46 0 CURVE SMOOTH",
"73 0 LINE SMOOTH",
"79 0 OFFCURVE",
"82 2 OFFCURVE",
"85 7 CURVE SMOOTH",
"214 231 LINE SMOOTH",
"217 236 OFFCURVE",
"220 238 OFFCURVE",
"226 238 CURVE SMOOTH",
"480 238 LINE SMOOTH",
"483 238 OFFCURVE",
"485 236 OFFCURVE",
"485 233 CURVE SMOOTH",
"485 10 LINE SMOOTH",
"485 2 OFFCURVE",
"487 0 OFFCURVE",
"494 0 CURVE SMOOTH",
"944 0 LINE SMOOTH",
"949 0 OFFCURVE",
"951 2 OFFCURVE",
"951 7 CURVE SMOOTH",
"951 33 LINE SMOOTH",
"951 39 OFFCURVE",
"949 40 OFFCURVE",
"943 40 CURVE SMOOTH"
);
},
{
closed = 1;
nodes = (
"245 278 LINE SMOOTH",
"239 278 OFFCURVE",
"238 279 OFFCURVE",
"242 286 CURVE SMOOTH",
"470 677 LINE SMOOTH",
"478 691 OFFCURVE",
"484 691 OFFCURVE",
"485 678 CURVE",
"485 287 LINE SMOOTH",
"485 282 OFFCURVE",
"483 278 OFFCURVE",
"477 278 CURVE SMOOTH"
);
}
);
width = 1031;
}
);
leftMetricsKey = A;
rightMetricsKey = E;
unicode = 00C6;
},
{
color = 4;
glyphname = B;
lastChange = "2015-08-07 07:12:27 +0000";
layers = (
{
background = {
paths = (
{
closed = 1;
nodes = (
"51 0 OFFCURVE",
"42 10 OFFCURVE",
"42 22 CURVE SMOOTH",
"42 716 LINE SMOOTH",
"42 731 OFFCURVE",
"52 742 OFFCURVE",
"67 742 CURVE SMOOTH",
"383 742 LINE SMOOTH",
"590 742 OFFCURVE",
"700 675 OFFCURVE",
"700 549 CURVE SMOOTH",
"700 477 OFFCURVE",
"669 432 OFFCURVE",
"569 386 CURVE SMOOTH",
"566 385 OFFCURVE",
"566 380 OFFCURVE",
"569 379 CURVE SMOOTH",
"681 338 OFFCURVE",
"720 287 OFFCURVE",
"720 200 CURVE SMOOTH",
"720 65 OFFCURVE",
"617 0 OFFCURVE",
"399 0 CURVE SMOOTH",
"65 0 LINE SMOOTH"
);
},
{
closed = 1;
nodes = (
"266 461 OFFCURVE",
"270 454 OFFCURVE",
"283 454 CURVE SMOOTH",
"399 454 LINE SMOOTH",
"446 454 OFFCURVE",
"476 483 OFFCURVE",
"476 521 CURVE SMOOTH",
"476 564 OFFCURVE",
"439 592 OFFCURVE",
"392 592 CURVE SMOOTH",
"289 592 LINE SMOOTH",
"272 592 OFFCURVE",
"266 587 OFFCURVE",
"266 572 CURVE SMOOTH",
"266 476 LINE SMOOTH"
);
},
{
closed = 1;
nodes = (
"266 156 OFFCURVE",
"270 149 OFFCURVE",
"283 149 CURVE SMOOTH",
"394 149 LINE SMOOTH",
"453 149 OFFCURVE",
"482 188 OFFCURVE",
"482 226 CURVE SMOOTH",
"482 268 OFFCURVE",
"449 297 OFFCURVE",
"399 297 CURVE SMOOTH",
"289 297 LINE SMOOTH",
"272 297 OFFCURVE",
"266 291 OFFCURVE",
"266 276 CURVE SMOOTH",
"266 171 LINE SMOOTH"
);
}
);
};
layerId = "258ED206-D907-4350-8EBA-CBDDA1C16BF7";
name = Bold;
paths = (
{
closed = 1;
nodes = (
"403 0 LINE SMOOTH",
"619 0 OFFCURVE",
"722 65 OFFCURVE",
"722 202 CURVE SMOOTH",
"722 287 OFFCURVE",
"683 338 OFFCURVE",
"573 379 CURVE SMOOTH",
"570 380 OFFCURVE",
"570 385 OFFCURVE",
"573 386 CURVE SMOOTH",
"673 432 OFFCURVE",
"704 477 OFFCURVE",
"704 546 CURVE SMOOTH",
"704 675 OFFCURVE",
"594 742 OFFCURVE",
"387 742 CURVE SMOOTH",
"71 742 LINE SMOOTH",
"56 742 OFFCURVE",
"46 731 OFFCURVE",
"46 716 CURVE SMOOTH",
"46 22 LINE SMOOTH",
"46 10 OFFCURVE",
"55 0 OFFCURVE",
"69 0 CURVE SMOOTH"
);
},
{
closed = 1;
nodes = (
"277 150 OFFCURVE",
"273 157 OFFCURVE",
"273 172 CURVE SMOOTH",
"273 277 LINE SMOOTH",
"273 292 OFFCURVE",
"279 298 OFFCURVE",
"296 298 CURVE SMOOTH",
"403 298 LINE SMOOTH",
"453 298 OFFCURVE",
"486 268 OFFCURVE",
"486 227 CURVE SMOOTH",
"486 188 OFFCURVE",
"456 150 OFFCURVE",
"398 150 CURVE SMOOTH",
"290 150 LINE SMOOTH"
);
},
{
closed = 1;
nodes = (
"277 452 OFFCURVE",
"273 459 OFFCURVE",
"273 474 CURVE SMOOTH",
"273 572 LINE SMOOTH",
"273 587 OFFCURVE",
"279 592 OFFCURVE",
"296 592 CURVE SMOOTH",
"396 592 LINE SMOOTH",
"443 592 OFFCURVE",
"480 564 OFFCURVE",
"480 520 CURVE SMOOTH",
"480 481 OFFCURVE",
"450 452 OFFCURVE",
"403 452 CURVE SMOOTH",
"290 452 LINE SMOOTH"
);
}
);
width = 740;
},
{
layerId = "91AB5BCA-6A50-42DA-B2F7-8181BF189245";
name = Light;
paths = (
{
closed = 1;
nodes = (
"343 0 LINE SMOOTH",
"518 0 OFFCURVE",
"621 65 OFFCURVE",
"621 202 CURVE SMOOTH",
"621 297 OFFCURVE",
"562 353 OFFCURVE",
"472 373 CURVE SMOOTH",
"469 374 OFFCURVE",
"469 381 OFFCURVE",
"472 382 CURVE SMOOTH",
"562 407 OFFCURVE",
"603 467 OFFCURVE",
"603 556 CURVE SMOOTH",
"603 675 OFFCURVE",
"493 742 OFFCURVE",
"327 742 CURVE SMOOTH",
"115 742 LINE SMOOTH",
"108 742 OFFCURVE",
"106 740 OFFCURVE",
"106 732 CURVE SMOOTH",
"106 8 LINE SMOOTH",
"106 3 OFFCURVE",
"109 0 OFFCURVE",
"114 0 CURVE SMOOTH"
);
},
{
closed = 1;
nodes = (
"154 40 OFFCURVE",
"152 43 OFFCURVE",
"152 50 CURVE SMOOTH",
"152 346 LINE SMOOTH",
"152 353 OFFCURVE",
"155 355 OFFCURVE",
"163 355 CURVE SMOOTH",
"343 355 LINE SMOOTH",
"473 355 OFFCURVE",
"572 308 OFFCURVE",
"572 201 CURVE SMOOTH",
"572 82 OFFCURVE",
"496 40 OFFCURVE",
"338 40 CURVE SMOOTH",
"159 40 LINE SMOOTH"
);
},
{
closed = 1;
nodes = (
"154 395 OFFCURVE",
"152 398 OFFCURVE",
"152 405 CURVE SMOOTH",
"152 694 LINE SMOOTH",
"152 700 OFFCURVE",
"155 702 OFFCURVE",
"161 702 CURVE SMOOTH",
"336 702 LINE SMOOTH",
"471 702 OFFCURVE",
"554 654 OFFCURVE",
"554 556 CURVE SMOOTH",
"554 424 OFFCURVE",
"440 395 OFFCURVE",
"343 395 CURVE SMOOTH",
"159 395 LINE SMOOTH"
);
}
);
width = 674;
}
);
leftMetricsKey = H;
rightMetricsKey = O;
unicode = 0042;
},
{
color = 4;
glyphname = C;
lastChange = "2015-08-07 07:12:27 +0000";
layers = (
{
anchors = (
{
name = bottom;
position = "{368, 0}";
},
{
name = top;
position = "{368, 742}";
}
);
background = {
paths = (
{
closed = 1;
nodes = (
"554 750 OFFCURVE",
"675 655 OFFCURVE",
"701 522 CURVE SMOOTH",
"707 494 OFFCURVE",
"703 489 OFFCURVE",
"688 487 CURVE",
"513 476 LINE",
"498 476 OFFCURVE",
"496 481 OFFCURVE",
"494 495 CURVE SMOOTH",
"483 550 OFFCURVE",
"457 595 OFFCURVE",
"391 595 CURVE SMOOTH",
"316 595 OFFCURVE",
"268 537 OFFCURVE",
"268 377 CURVE SMOOTH",
"268 215 OFFCURVE",
"317 157 OFFCURVE",
"398 157 CURVE SMOOTH",
"465 157 OFFCURVE",
"508 186 OFFCURVE",
"543 271 CURVE SMOOTH",
"547 279 OFFCURVE",
"555 282 OFFCURVE",
"571 279 CURVE SMOOTH",
"696 254 LINE SMOOTH",
"703 252 OFFCURVE",
"714 247 OFFCURVE",
"710 221 CURVE SMOOTH",
"700 167 OFFCURVE",
"614 -8 OFFCURVE",
"383 -8 CURVE SMOOTH",
"168 -8 OFFCURVE",
"29 145 OFFCURVE",
"29 371 CURVE SMOOTH",
"29 596 OFFCURVE",
"168 750 OFFCURVE",
"385 750 CURVE SMOOTH"
);
}
);
};
layerId = "258ED206-D907-4350-8EBA-CBDDA1C16BF7";
name = Bold;
paths = (
{
closed = 1;
nodes = (
"172 752 OFFCURVE",
"34 606 OFFCURVE",
"34 381 CURVE SMOOTH",
"34 155 OFFCURVE",
"172 -10 OFFCURVE",
"387 -10 CURVE SMOOTH",
"618 -10 OFFCURVE",
"704 167 OFFCURVE",
"714 221 CURVE SMOOTH",
"718 247 OFFCURVE",
"707 252 OFFCURVE",
"700 254 CURVE SMOOTH",
"575 279 LINE SMOOTH",
"559 282 OFFCURVE",
"550 279 OFFCURVE",
"547 271 CURVE SMOOTH",
"512 183 OFFCURVE",
"461 154 OFFCURVE",
"394 154 CURVE SMOOTH",
"313 154 OFFCURVE",
"272 212 OFFCURVE",
"272 377 CURVE SMOOTH",
"272 540 OFFCURVE",
"320 598 OFFCURVE",
"395 598 CURVE SMOOTH",
"461 598 OFFCURVE",
"487 553 OFFCURVE",
"498 495 CURVE SMOOTH",
"501 481 OFFCURVE",
"502 476 OFFCURVE",
"517 476 CURVE",
"692 487 LINE",
"707 489 OFFCURVE",
"711 494 OFFCURVE",
"705 522 CURVE SMOOTH",
"679 655 OFFCURVE",
"558 752 OFFCURVE",
"389 752 CURVE SMOOTH"
);
}
);
width = 736;
},
{
anchors = (
{
name = bottom;
position = "{356, 0}";
},
{
name = top;
position = "{350, 742}";
}
);
guideLines = (
{
angle = 90;
position = "{611, 369}";
}
);
layerId = "91AB5BCA-6A50-42DA-B2F7-8181BF189245";
name = Light;
paths = (
{
closed = 1;
nodes = (
"163 752 OFFCURVE",
"53 610 OFFCURVE",
"53 368 CURVE SMOOTH",
"53 127 OFFCURVE",
"163 -10 OFFCURVE",
"356 -10 CURVE SMOOTH",
"477 -10 OFFCURVE",
"577 61 OFFCURVE",
"612 171 CURVE SMOOTH",
"613 175 OFFCURVE",
"612 177 OFFCURVE",
"610 178 CURVE SMOOTH",
"576 188 LINE SMOOTH",
"573 189 OFFCURVE",
"571 188 OFFCURVE",
"570 186 CURVE SMOOTH",
"530 81 OFFCURVE",
"464 33 OFFCURVE",
"360 33 CURVE SMOOTH",
"187 33 OFFCURVE",
"102 153 OFFCURVE",
"102 368 CURVE SMOOTH",
"102 591 OFFCURVE",
"189 709 OFFCURVE",
"352 709 CURVE SMOOTH",
"453 709 OFFCURVE",
"533 647 OFFCURVE",
"556 552 CURVE SMOOTH",
"557 546 OFFCURVE",
"559 544 OFFCURVE",
"563 545 CURVE SMOOTH",
"599 549 LINE SMOOTH",
"604 549 OFFCURVE",
"605 551 OFFCURVE",
"604 556 CURVE SMOOTH",
"592 659 OFFCURVE",
"472 752 OFFCURVE",
"350 752 CURVE SMOOTH"
);
}
);
width = 657;
}
);
leftMetricsKey = O;
unicode = 0043;
},
{
color = 4;
glyphname = D;
lastChange = "2015-08-07 07:12:27 +0000";
layers = (
{
anchors = (
{
name = center;
position = "{384, 371}";
},
{
name = top;
position = "{384, 742}";
}
);
background = {
paths = (
{
closed = 1;
nodes = (
"100 742 OFFCURVE",
"288 736 OFFCURVE",
"346 734 CURVE SMOOTH",
"607 724 OFFCURVE",
"732 582 OFFCURVE",
"732 369 CURVE SMOOTH",
"732 155 OFFCURVE",
"600 0 OFFCURVE",
"344 0 CURVE SMOOTH",
"81 0 LINE SMOOTH",
"61 0 OFFCURVE",
"52 8 OFFCURVE",
"52 30 CURVE SMOOTH",
"52 717 LINE SMOOTH",
"52 734 OFFCURVE",
"59 742 OFFCURVE",
"74 742 CURVE SMOOTH"
);
},
{
closed = 1;
nodes = (
"279 585 OFFCURVE",
"276 582 OFFCURVE",
"276 571 CURVE SMOOTH",
"276 172 LINE SMOOTH",
"276 158 OFFCURVE",
"280 157 OFFCURVE",
"297 157 CURVE SMOOTH",
"425 157 OFFCURVE",
"500 215 OFFCURVE",
"500 374 CURVE SMOOTH",
"500 516 OFFCURVE",
"440 572 OFFCURVE",
"349 581 CURVE SMOOTH",
"325 583 OFFCURVE",
"292 585 OFFCURVE",
"286 585 CURVE SMOOTH"
);
}
);
};
layerId = "258ED206-D907-4350-8EBA-CBDDA1C16BF7";
name = Bold;
paths = (
{
closed = 1;
nodes = (
"53 742 OFFCURVE",
"46 736 OFFCURVE",
"46 717 CURVE SMOOTH",
"46 30 LINE SMOOTH",
"46 8 OFFCURVE",
"55 0 OFFCURVE",
"75 0 CURVE SMOOTH",
"338 0 LINE SMOOTH",
"601 0 OFFCURVE",
"734 157 OFFCURVE",
"734 373 CURVE SMOOTH",
"734 584 OFFCURVE",
"607 731 OFFCURVE",
"339 741 CURVE SMOOTH",
"281 743 OFFCURVE",
"92 742 OFFCURVE",
"73 742 CURVE SMOOTH"
);
},
{
closed = 1;
nodes = (
"289 585 OFFCURVE",
"319 583 OFFCURVE",
"343 581 CURVE SMOOTH",
"440 572 OFFCURVE",
"496 513 OFFCURVE",
"496 376 CURVE SMOOTH",
"496 215 OFFCURVE",
"420 157 OFFCURVE",
"294 157 CURVE SMOOTH",
"287 157 LINE SMOOTH",
"276 157 OFFCURVE",
"273 160 OFFCURVE",
"273 172 CURVE SMOOTH",
"273 571 LINE SMOOTH",
"273 582 OFFCURVE",
"276 585 OFFCURVE",
"283 585 CURVE SMOOTH"
);
}
);
width = 768;
},
{
anchors = (
{
name = center;
position = "{334, 371}";
},
{
name = top;
position = "{358, 742}";
}
);
layerId = "91AB5BCA-6A50-42DA-B2F7-8181BF189245";
name = Light;
paths = (
{
closed = 1;
nodes = (
"109 742 OFFCURVE",
"106 740 OFFCURVE",
"106 734 CURVE SMOOTH",
"106 10 LINE SMOOTH",
"106 3 OFFCURVE",
"109 0 OFFCURVE",
"115 0 CURVE SMOOTH",
"217 0 LINE SMOOTH",
"483 0 OFFCURVE",
"618 115 OFFCURVE",
"618 365 CURVE SMOOTH",
"618 617 OFFCURVE",
"499 730 OFFCURVE",
"218 741 CURVE SMOOTH",
"160 743 OFFCURVE",
"117 742 OFFCURVE",
"115 742 CURVE SMOOTH"
);
},
{
closed = 1;
nodes = (
"161 702 OFFCURVE",
"204 699 OFFCURVE",
"222 698 CURVE SMOOTH",
"489 680 OFFCURVE",
"569 602 OFFCURVE",
"569 364 CURVE SMOOTH",
"569 138 OFFCURVE",
"456 44 OFFCURVE",
"213 44 CURVE SMOOTH",
"163 44 LINE SMOOTH",
"155 44 OFFCURVE",
"152 47 OFFCURVE",
"152 53 CURVE SMOOTH",
"152 688 LINE SMOOTH",
"152 696 OFFCURVE",
"155 702 OFFCURVE",
"159 702 CURVE SMOOTH"
);
}
);
width = 768;
}
);
leftMetricsKey = H;
rightMetricsKey = O;
unicode = 0044;
},
{
color = 4;
glyphname = Eth;
lastChange = "2015-08-07 07:12:27 +0000";
layers = (
{
components = (
{
name = D;
}
);
layerId = "258ED206-D907-4350-8EBA-CBDDA1C16BF7";
name = Bold;
paths = (
{
closed = 1;
nodes = (
"379 436 OFFCURVE",
"372 444 OFFCURVE",
"361 444 CURVE SMOOTH",
"0 444 LINE SMOOTH",
"-12 444 OFFCURVE",
"-19 436 OFFCURVE",
"-19 421 CURVE SMOOTH",
"-19 308 LINE SMOOTH",
"-19 291 OFFCURVE",
"-13 283 OFFCURVE",
"7 283 CURVE SMOOTH",
"346 283 LINE SMOOTH",
"369 283 OFFCURVE",
"379 291 OFFCURVE",
"379 311 CURVE SMOOTH",
"379 424 LINE SMOOTH"
);
}
);
width = 768;
},
{
components = (
{
name = D;
}
);
layerId = "91AB5BCA-6A50-42DA-B2F7-8181BF189245";
name = Light;
paths = (
{
closed = 1;
nodes = (
"312 395 OFFCURVE",
"310 398 OFFCURVE",
"305 398 CURVE SMOOTH",
"12 398 LINE SMOOTH",
"7 398 OFFCURVE",
"5 395 OFFCURVE",
"5 389 CURVE SMOOTH",
"5 363 LINE SMOOTH",
"5 356 OFFCURVE",
"7 353 OFFCURVE",
"15 353 CURVE SMOOTH",
"299 353 LINE SMOOTH",
"308 353 OFFCURVE",
"312 356 OFFCURVE",
"312 364 CURVE SMOOTH",
"312 390 LINE SMOOTH"
);
}
);
width = 768;
}
);
unicode = 00D0;
},
{
color = 4;
glyphname = E;
lastChange = "2015-08-07 07:12:27 +0000";
layers = (
{
anchors = (
{
name = bottom;
position = "{330, 0}";
},
{
name = ogonek;
position = "{604, 10}";
},
{
name = top;
position = "{330, 742}";
}
);
background = {
paths = (
{
closed = 1;
nodes = (
"47 734 OFFCURVE",
"54 742 OFFCURVE",
"66 742 CURVE SMOOTH",
"605 742 LINE SMOOTH",
"617 742 OFFCURVE",
"623 734 OFFCURVE",
"623 721 CURVE SMOOTH",
"622 605 LINE SMOOTH",
"622 589 OFFCURVE",
"614 578 OFFCURVE",
"596 578 CURVE SMOOTH",
"293 578 LINE SMOOTH",
"278 578 OFFCURVE",
"270 572 OFFCURVE",
"270 559 CURVE SMOOTH",
"270 474 LINE SMOOTH",
"270 460 OFFCURVE",
"278 453 OFFCURVE",
"288 453 CURVE SMOOTH",
"471 453 LINE SMOOTH",
"485 453 OFFCURVE",
"492 446 OFFCURVE",
"492 433 CURVE SMOOTH",
"492 309 LINE SMOOTH",
"492 300 OFFCURVE",
"487 292 OFFCURVE",
"474 292 CURVE SMOOTH",
"286 292 LINE SMOOTH",
"276 292 OFFCURVE",
"270 286 OFFCURVE",
"270 278 CURVE SMOOTH",
"270 178 LINE SMOOTH",
"270 167 OFFCURVE",
"273 164 OFFCURVE",
"282 164 CURVE SMOOTH",
"610 164 LINE SMOOTH",
"624 164 OFFCURVE",
"632 159 OFFCURVE",
"632 145 CURVE SMOOTH",
"632 22 LINE SMOOTH",
"632 10 OFFCURVE",
"625 0 OFFCURVE",
"608 0 CURVE SMOOTH",
"69 0 LINE SMOOTH",
"49 0 OFFCURVE",
"42 8 OFFCURVE",
"42 25 CURVE SMOOTH",
"47 719 LINE SMOOTH"
);
}
);
};
layerId = "258ED206-D907-4350-8EBA-CBDDA1C16BF7";
name = Bold;
paths = (
{
closed = 1;
nodes = (
"46 25 LINE SMOOTH",
"46 8 OFFCURVE",
"53 0 OFFCURVE",
"73 0 CURVE SMOOTH",
"608 0 LINE SMOOTH",
"625 0 OFFCURVE",
"632 10 OFFCURVE",
"632 22 CURVE SMOOTH",
"632 145 LINE SMOOTH",
"632 159 OFFCURVE",
"624 164 OFFCURVE",
"610 164 CURVE SMOOTH",
"285 164 LINE SMOOTH",
"276 164 OFFCURVE",
"273 167 OFFCURVE",
"273 178 CURVE SMOOTH",
"273 278 LINE SMOOTH",
"273 286 OFFCURVE",
"279 292 OFFCURVE",
"289 292 CURVE SMOOTH",
"474 292 LINE SMOOTH",
"487 292 OFFCURVE",
"492 300 OFFCURVE",
"492 309 CURVE SMOOTH",
"492 433 LINE SMOOTH",
"492 446 OFFCURVE",
"485 453 OFFCURVE",
"471 453 CURVE SMOOTH",
"291 453 LINE SMOOTH",
"281 453 OFFCURVE",
"273 460 OFFCURVE",
"273 474 CURVE SMOOTH",
"273 559 LINE SMOOTH",
"273 572 OFFCURVE",
"281 578 OFFCURVE",
"296 578 CURVE SMOOTH",
"596 578 LINE SMOOTH",
"614 578 OFFCURVE",
"622 589 OFFCURVE",
"622 605 CURVE SMOOTH",
"623 721 LINE SMOOTH",
"623 734 OFFCURVE",
"617 742 OFFCURVE",
"605 742 CURVE SMOOTH",
"65 742 LINE SMOOTH",
"53 742 OFFCURVE",
"46 734 OFFCURVE",
"46 719 CURVE SMOOTH"
);
}
);
width = 660;
},
{
anchors = (
{
name = bottom;
position = "{356, 0}";
},
{
name = ogonek;
position = "{535, 10}";
},
{
name = top;
position = "{347, 742}";
}
);
background = {
paths = (
{
closed = 1;
nodes = (
"46 25 LINE SMOOTH",
"46 8 OFFCURVE",
"53 0 OFFCURVE",
"73 0 CURVE SMOOTH",
"608 0 LINE SMOOTH",
"625 0 OFFCURVE",
"632 10 OFFCURVE",
"632 22 CURVE SMOOTH",
"632 145 LINE SMOOTH",
"632 159 OFFCURVE",
"624 164 OFFCURVE",
"610 164 CURVE SMOOTH",
"285 164 LINE SMOOTH",
"276 164 OFFCURVE",
"273 167 OFFCURVE",
"273 178 CURVE SMOOTH",
"273 278 LINE SMOOTH",
"273 286 OFFCURVE",
"279 292 OFFCURVE",
"289 292 CURVE SMOOTH",
"474 292 LINE SMOOTH",
"487 292 OFFCURVE",
"492 300 OFFCURVE",
"492 309 CURVE SMOOTH",
"492 433 LINE SMOOTH",
"492 446 OFFCURVE",
"485 453 OFFCURVE",
"471 453 CURVE SMOOTH",
"291 453 LINE SMOOTH",
"281 453 OFFCURVE",
"273 460 OFFCURVE",
"273 474 CURVE SMOOTH",
"273 559 LINE SMOOTH",
"273 572 OFFCURVE",
"281 578 OFFCURVE",
"296 578 CURVE SMOOTH",
"596 578 LINE SMOOTH",
"614 578 OFFCURVE",
"622 589 OFFCURVE",
"622 605 CURVE SMOOTH",
"623 721 LINE SMOOTH",
"623 734 OFFCURVE",
"617 742 OFFCURVE",
"605 742 CURVE SMOOTH",
"65 742 LINE SMOOTH",
"53 742 OFFCURVE",
"46 734 OFFCURVE",
"46 719 CURVE SMOOTH"
);
}
);
};
layerId = "91AB5BCA-6A50-42DA-B2F7-8181BF189245";
name = Light;
paths = (
{
closed = 1;
nodes = (
"106 10 LINE SMOOTH",
"106 2 OFFCURVE",
"108 0 OFFCURVE",
"115 0 CURVE SMOOTH",
"565 0 LINE SMOOTH",
"570 0 OFFCURVE",
"572 2 OFFCURVE",
"572 7 CURVE SMOOTH",
"572 33 LINE SMOOTH",
"572 39 OFFCURVE",
"570 40 OFFCURVE",
"564 40 CURVE SMOOTH",
"161 40 LINE SMOOTH",
"154 40 OFFCURVE",
"152 41 OFFCURVE",
"152 49 CURVE SMOOTH",
"152 346 LINE SMOOTH",
"152 354 OFFCURVE",
"154 355 OFFCURVE",
"161 355 CURVE SMOOTH",
"519 355 LINE SMOOTH",
"525 355 OFFCURVE",
"527 356 OFFCURVE",
"527 362 CURVE SMOOTH",
"527 388 LINE SMOOTH",
"527 393 OFFCURVE",
"525 395 OFFCURVE",
"520 395 CURVE SMOOTH",
"161 395 LINE SMOOTH",
"154 395 OFFCURVE",
"152 396 OFFCURVE",
"152 402 CURVE SMOOTH",
"152 693 LINE SMOOTH",
"152 701 OFFCURVE",
"154 702 OFFCURVE",
"161 702 CURVE SMOOTH",
"549 702 LINE SMOOTH",
"555 702 OFFCURVE",
"557 703 OFFCURVE",
"557 709 CURVE SMOOTH",
"557 735 LINE SMOOTH",
"557 740 OFFCURVE",
"555 742 OFFCURVE",
"550 742 CURVE SMOOTH",
"115 742 LINE SMOOTH",
"108 742 OFFCURVE",
"106 740 OFFCURVE",
"106 732 CURVE SMOOTH"
);
}
);
width = 652;
}
);
leftMetricsKey = H;
unicode = 0045;
},
{
color = 4;
glyphname = F;
lastChange = "2015-08-07 07:12:27 +0000";
layers = (
{
background = {
paths = (
{
closed = 1;
nodes = (
"46 734 OFFCURVE",
"54 742 OFFCURVE",
"65 742 CURVE SMOOTH",
"595 742 LINE SMOOTH",
"607 742 OFFCURVE",
"613 734 OFFCURVE",
"613 721 CURVE SMOOTH",
"612 605 LINE SMOOTH",
"612 589 OFFCURVE",
"605 578 OFFCURVE",
"587 578 CURVE SMOOTH",
"293 578 LINE SMOOTH",
"277 578 OFFCURVE",
"270 572 OFFCURVE",
"270 559 CURVE SMOOTH",
"270 465 LINE SMOOTH",
"270 451 OFFCURVE",
"277 445 OFFCURVE",
"288 445 CURVE SMOOTH",
"471 445 LINE SMOOTH",
"485 445 OFFCURVE",
"491 438 OFFCURVE",
"491 425 CURVE SMOOTH",
"491 303 LINE SMOOTH",
"491 293 OFFCURVE",
"487 286 OFFCURVE",
"473 286 CURVE SMOOTH",
"286 286 LINE SMOOTH",
"276 286 OFFCURVE",
"270 280 OFFCURVE",
"270 271 CURVE SMOOTH",
"270 29 LINE SMOOTH",
"270 8 OFFCURVE",
"260 0 OFFCURVE",
"237 0 CURVE SMOOTH",
"69 0 LINE",
"48 0 OFFCURVE",
"42 8 OFFCURVE",
"42 25 CURVE SMOOTH",
"46 719 LINE SMOOTH"
);
}
);
};
layerId = "258ED206-D907-4350-8EBA-CBDDA1C16BF7";
name = Bold;
paths = (
{
closed = 1;
nodes = (
"46 25 LINE SMOOTH",
"46 8 OFFCURVE",
"52 0 OFFCURVE",
"73 0 CURVE",
"240 0 LINE SMOOTH",
"263 0 OFFCURVE",
"273 8 OFFCURVE",
"273 29 CURVE SMOOTH",
"273 271 LINE SMOOTH",
"273 280 OFFCURVE",
"279 286 OFFCURVE",
"289 286 CURVE SMOOTH",
"476 286 LINE SMOOTH",
"490 286 OFFCURVE",
"494 293 OFFCURVE",
"494 303 CURVE SMOOTH",
"494 425 LINE SMOOTH",
"494 438 OFFCURVE",
"488 445 OFFCURVE",
"474 445 CURVE SMOOTH",
"291 445 LINE SMOOTH",
"280 445 OFFCURVE",
"273 451 OFFCURVE",
"273 465 CURVE SMOOTH",
"273 559 LINE SMOOTH",
"273 572 OFFCURVE",
"280 578 OFFCURVE",
"296 578 CURVE SMOOTH",
"590 578 LINE SMOOTH",
"608 578 OFFCURVE",
"615 589 OFFCURVE",
"615 605 CURVE SMOOTH",
"616 721 LINE SMOOTH",
"616 734 OFFCURVE",
"610 742 OFFCURVE",
"598 742 CURVE SMOOTH",
"65 742 LINE SMOOTH",
"54 742 OFFCURVE",
"46 734 OFFCURVE",
"46 719 CURVE SMOOTH"
);
}
);
width = 628;
},
{
background = {
paths = (
{
closed = 1;
nodes = (
"46 734 OFFCURVE",
"54 742 OFFCURVE",
"65 742 CURVE SMOOTH",
"598 742 LINE SMOOTH",
"610 742 OFFCURVE",
"616 734 OFFCURVE",
"616 721 CURVE SMOOTH",
"615 605 LINE SMOOTH",
"615 589 OFFCURVE",
"608 578 OFFCURVE",
"590 578 CURVE SMOOTH",
"296 578 LINE SMOOTH",
"280 578 OFFCURVE",
"273 572 OFFCURVE",
"273 559 CURVE SMOOTH",
"273 465 LINE SMOOTH",
"273 451 OFFCURVE",
"280 445 OFFCURVE",
"291 445 CURVE SMOOTH",
"474 445 LINE SMOOTH",
"488 445 OFFCURVE",
"494 438 OFFCURVE",
"494 425 CURVE SMOOTH",
"494 303 LINE SMOOTH",
"494 293 OFFCURVE",
"490 286 OFFCURVE",
"476 286 CURVE SMOOTH",
"289 286 LINE SMOOTH",
"279 286 OFFCURVE",
"273 280 OFFCURVE",
"273 271 CURVE SMOOTH",
"273 29 LINE SMOOTH",
"273 8 OFFCURVE",
"263 0 OFFCURVE",
"240 0 CURVE SMOOTH",
"73 0 LINE",
"52 0 OFFCURVE",
"46 8 OFFCURVE",
"46 25 CURVE SMOOTH",
"46 719 LINE SMOOTH"
);
}
);
};
layerId = "91AB5BCA-6A50-42DA-B2F7-8181BF189245";
name = Light;
paths = (
{
closed = 1;
nodes = (
"106 10 LINE SMOOTH",
"106 2 OFFCURVE",
"108 0 OFFCURVE",
"115 0 CURVE SMOOTH",
"145 0 LINE SMOOTH",
"150 0 OFFCURVE",
"152 2 OFFCURVE",
"152 7 CURVE SMOOTH",
"152 333 LINE SMOOTH",
"152 341 OFFCURVE",
"154 342 OFFCURVE",
"161 342 CURVE SMOOTH",
"509 342 LINE SMOOTH",
"515 342 OFFCURVE",
"517 343 OFFCURVE",
"517 349 CURVE SMOOTH",
"517 375 LINE SMOOTH",
"517 380 OFFCURVE",
"515 382 OFFCURVE",
"510 382 CURVE SMOOTH",
"161 382 LINE SMOOTH",
"154 382 OFFCURVE",
"152 383 OFFCURVE",
"152 389 CURVE SMOOTH",
"152 693 LINE SMOOTH",
"152 701 OFFCURVE",
"154 702 OFFCURVE",
"161 702 CURVE SMOOTH",
"539 702 LINE SMOOTH",
"545 702 OFFCURVE",
"547 703 OFFCURVE",
"547 709 CURVE SMOOTH",
"547 735 LINE SMOOTH",
"547 740 OFFCURVE",
"545 742 OFFCURVE",
"540 742 CURVE SMOOTH",
"115 742 LINE SMOOTH",
"108 742 OFFCURVE",
"106 740 OFFCURVE",
"106 732 CURVE SMOOTH"
);
}
);
width = 607;
}
);
leftMetricsKey = H;
unicode = 0046;
},
{
color = 4;
glyphname = G;
lastChange = "2015-08-07 07:12:27 +0000";
layers = (
{
anchors = (
{
name = bottom;
position = "{386, 0}";
},
{
name = top;
position = "{386, 742}";
}
);
background = {
paths = (
{
closed = 1;
nodes = (
"490 173 OFFCURVE",
"455 146 OFFCURVE",
"396 146 CURVE SMOOTH",
"320 146 OFFCURVE",
"268 193 OFFCURVE",
"268 374 CURVE SMOOTH",
"268 544 OFFCURVE",
"314 597 OFFCURVE",
"388 597 CURVE SMOOTH",
"460 597 OFFCURVE",
"495 547 OFFCURVE",
"505 492 CURVE SMOOTH",
"508 479 OFFCURVE",
"509 472 OFFCURVE",
"525 472 CURVE",
"696 498 LINE",
"712 500 OFFCURVE",
"716 505 OFFCURVE",
"710 533 CURVE SMOOTH",
"686 640 OFFCURVE",
"573 750 OFFCURVE",
"393 750 CURVE SMOOTH",
"181 750 OFFCURVE",
"32 599 OFFCURVE",
"32 368 CURVE SMOOTH",
"32 145 OFFCURVE",
"171 -8 OFFCURVE",
"380 -8 CURVE SMOOTH",
"498 -8 OFFCURVE",
"549 40 OFFCURVE",
"585 75 CURVE SMOOTH",
"590 81 OFFCURVE",
"593 81 OFFCURVE",
"596 77 CURVE SMOOTH",
"636 19 LINE SMOOTH",
"645 5 OFFCURVE",
"656 0 OFFCURVE",
"668 0 CURVE SMOOTH",
"706 0 LINE SMOOTH",
"716 0 OFFCURVE",
"723 8 OFFCURVE",
"723 17 CURVE SMOOTH",
"723 344 LINE SMOOTH",
"723 362 OFFCURVE",
"710 375 OFFCURVE",
"685 375 CURVE SMOOTH",
"405 377 LINE SMOOTH",
"390 377 OFFCURVE",
"384 370 OFFCURVE",
"384 360 CURVE SMOOTH",
"384 264 LINE SMOOTH",
"384 247 OFFCURVE",
"390 242 OFFCURVE",
"404 242 CURVE SMOOTH",
"498 242 LINE SMOOTH",
"508 242 OFFCURVE",
"511 236 OFFCURVE",
"507 225 CURVE SMOOTH"
);
}
);
};
layerId = "258ED206-D907-4350-8EBA-CBDDA1C16BF7";
name = Bold;
paths = (
{
closed = 1;
nodes = (
"502 -10 OFFCURVE",
"553 40 OFFCURVE",
"589 75 CURVE SMOOTH",
"594 81 OFFCURVE",
"597 81 OFFCURVE",
"600 77 CURVE SMOOTH",
"640 19 LINE SMOOTH",
"649 5 OFFCURVE",
"660 0 OFFCURVE",
"672 0 CURVE SMOOTH",
"710 0 LINE SMOOTH",
"720 0 OFFCURVE",
"727 8 OFFCURVE",
"727 17 CURVE SMOOTH",
"727 344 LINE SMOOTH",
"727 362 OFFCURVE",
"714 375 OFFCURVE",
"689 375 CURVE SMOOTH",
"409 377 LINE SMOOTH",
"394 377 OFFCURVE",
"388 370 OFFCURVE",
"388 360 CURVE SMOOTH",
"388 264 LINE SMOOTH",
"388 247 OFFCURVE",
"394 242 OFFCURVE",
"408 242 CURVE SMOOTH",
"502 242 LINE SMOOTH",
"512 242 OFFCURVE",
"515 236 OFFCURVE",
"511 225 CURVE",
"508 216 LINE",
"490 170 OFFCURVE",
"456 146 OFFCURVE",
"400 146 CURVE SMOOTH",
"324 146 OFFCURVE",
"272 193 OFFCURVE",
"272 374 CURVE SMOOTH",
"272 544 OFFCURVE",
"318 597 OFFCURVE",
"392 597 CURVE SMOOTH",
"464 597 OFFCURVE",
"499 547 OFFCURVE",
"509 492 CURVE SMOOTH",
"512 479 OFFCURVE",
"513 472 OFFCURVE",
"529 472 CURVE SMOOTH",
"700 498 LINE SMOOTH",
"716 500 OFFCURVE",
"720 505 OFFCURVE",
"714 533 CURVE SMOOTH",
"690 640 OFFCURVE",
"577 752 OFFCURVE",
"397 752 CURVE SMOOTH",
"183 752 OFFCURVE",
"34 599 OFFCURVE",
"34 368 CURVE SMOOTH",
"34 145 OFFCURVE",
"173 -10 OFFCURVE",
"384 -10 CURVE SMOOTH"
);
}
);
width = 772;
},
{
anchors = (
{
name = bottom;
position = "{354, 0}";
},
{
name = top;
position = "{349, 742}";
}
);
background = {
anchors = (
{
name = bottom;
position = "{356, 0}";
},
{
name = top;
position = "{350, 742}";
}
);
};
layerId = "91AB5BCA-6A50-42DA-B2F7-8181BF189245";
name = Light;
paths = (
{
closed = 1;
nodes = (
"459 -10 OFFCURVE",
"532 45 OFFCURVE",
"571 115 CURVE SMOOTH",
"575 122 OFFCURVE",
"579 121 OFFCURVE",
"579 115 CURVE SMOOTH",
"579 9 LINE SMOOTH",
"579 0 OFFCURVE",
"584 0 OFFCURVE",
"592 0 CURVE SMOOTH",
"609 0 LINE SMOOTH",
"616 0 OFFCURVE",
"619 2 OFFCURVE",
"619 11 CURVE SMOOTH",
"619 371 LINE SMOOTH",
"619 375 OFFCURVE",
"617 377 OFFCURVE",
"613 377 CURVE SMOOTH",
"377 377 LINE SMOOTH",
"374 377 OFFCURVE",
"372 375 OFFCURVE",
"372 371 CURVE SMOOTH",
"372 348 LINE SMOOTH",
"372 344 OFFCURVE",
"374 342 OFFCURVE",
"379 342 CURVE SMOOTH",
"568 342 LINE SMOOTH",
"574 342 OFFCURVE",
"579 341 OFFCURVE",
"579 334 CURVE SMOOTH",
"579 255 LINE SMOOTH",
"579 161 OFFCURVE",
"507 33 OFFCURVE",
"349 33 CURVE SMOOTH",
"186 33 OFFCURVE",
"102 153 OFFCURVE",
"102 374 CURVE SMOOTH",
"102 584 OFFCURVE",
"188 709 OFFCURVE",
"349 709 CURVE SMOOTH",
"455 709 OFFCURVE",
"540 640 OFFCURVE",
"556 551 CURVE SMOOTH",
"557 546 OFFCURVE",
"560 544 OFFCURVE",
"563 545 CURVE SMOOTH",
"598 551 LINE SMOOTH",
"603 552 OFFCURVE",
"603 555 OFFCURVE",
"603 559 CURVE SMOOTH",
"591 663 OFFCURVE",
"472 752 OFFCURVE",
"349 752 CURVE SMOOTH",
"168 752 OFFCURVE",
"53 614 OFFCURVE",
"53 368 CURVE SMOOTH",
"53 129 OFFCURVE",
"163 -10 OFFCURVE",
"348 -10 CURVE SMOOTH"
);
}
);
width = 684;
}
);
leftMetricsKey = O;
unicode = 0047;
},
{
color = 4;
glyphname = H;
lastChange = "2015-08-07 07:12:27 +0000";
layers = (
{
anchors = (
{
name = bottom;
position = "{372, 0}";
},
{
name = top;
position = "{374, 742}";
}
);
background = {
paths = (
{
closed = 1;
nodes = (
"285 297 LINE SMOOTH",
"275 297 OFFCURVE",
"269 290 OFFCURVE",
"269 282 CURVE SMOOTH",
"269 29 LINE SMOOTH",
"269 8 OFFCURVE",
"259 0 OFFCURVE",
"236 0 CURVE SMOOTH",
"68 0 LINE",
"47 0 OFFCURVE",
"41 8 OFFCURVE",
"41 25 CURVE SMOOTH",
"45 719 LINE SMOOTH",
"45 734 OFFCURVE",
"53 742 OFFCURVE",
"64 742 CURVE SMOOTH",
"251 742 LINE SMOOTH",
"262 742 OFFCURVE",
"269 734 OFFCURVE",
"269 721 CURVE SMOOTH",
"269 489 LINE SMOOTH",
"269 476 OFFCURVE",
"276 469 OFFCURVE",
"287 469 CURVE SMOOTH",
"454 469 LINE SMOOTH",
"465 469 OFFCURVE",
"472 476 OFFCURVE",
"472 489 CURVE SMOOTH",
"472 721 LINE SMOOTH",
"472 734 OFFCURVE",
"479 742 OFFCURVE",
"490 742 CURVE SMOOTH",
"677 742 LINE SMOOTH",
"688 742 OFFCURVE",
"696 734 OFFCURVE",
"696 719 CURVE SMOOTH",
"700 25 LINE SMOOTH",
"700 8 OFFCURVE",
"694 0 OFFCURVE",
"673 0 CURVE",
"505 0 LINE SMOOTH",
"482 0 OFFCURVE",
"472 8 OFFCURVE",
"472 29 CURVE SMOOTH",
"472 282 LINE SMOOTH",
"472 290 OFFCURVE",
"466 297 OFFCURVE",
"456 297 CURVE SMOOTH"
);
}
);
};
layerId = "258ED206-D907-4350-8EBA-CBDDA1C16BF7";
name = Bold;
paths = (
{
closed = 1;
nodes = (
"471 297 OFFCURVE",
"477 290 OFFCURVE",
"477 282 CURVE SMOOTH",
"477 29 LINE SMOOTH",
"477 8 OFFCURVE",
"487 0 OFFCURVE",
"510 0 CURVE SMOOTH",
"677 0 LINE SMOOTH",
"698 0 OFFCURVE",
"704 8 OFFCURVE",
"704 25 CURVE SMOOTH",
"704 719 LINE SMOOTH",
"704 734 OFFCURVE",
"696 742 OFFCURVE",
"685 742 CURVE SMOOTH",
"495 742 LINE SMOOTH",
"484 742 OFFCURVE",
"477 734 OFFCURVE",
"477 721 CURVE SMOOTH",
"477 489 LINE SMOOTH",
"477 476 OFFCURVE",
"470 469 OFFCURVE",
"459 469 CURVE SMOOTH",
"291 469 LINE SMOOTH",
"280 469 OFFCURVE",
"273 476 OFFCURVE",
"273 489 CURVE SMOOTH",
"273 721 LINE SMOOTH",
"273 734 OFFCURVE",
"266 742 OFFCURVE",
"255 742 CURVE SMOOTH",
"65 742 LINE SMOOTH",
"54 742 OFFCURVE",
"46 734 OFFCURVE",
"46 719 CURVE SMOOTH",
"46 25 LINE SMOOTH",
"46 8 OFFCURVE",
"52 0 OFFCURVE",
"73 0 CURVE SMOOTH",
"240 0 LINE SMOOTH",
"263 0 OFFCURVE",
"273 8 OFFCURVE",
"273 29 CURVE SMOOTH",
"273 282 LINE SMOOTH",
"273 290 OFFCURVE",
"279 297 OFFCURVE",
"289 297 CURVE SMOOTH",
"461 297 LINE SMOOTH"
);
}
);
width = 750;
},
{
anchors = (
{
name = bottom;
position = "{355, 0}";
},
{
name = top;
position = "{355, 742}";
}
);
background = {
anchors = (
{
name = top;
position = "{274, 742}";
}
);
};
layerId = "91AB5BCA-6A50-42DA-B2F7-8181BF189245";
name = Light;
paths = (
{
closed = 1;
nodes = (
"555 366 OFFCURVE",
"557 364 OFFCURVE",
"557 359 CURVE SMOOTH",
"557 9 LINE SMOOTH",
"557 2 OFFCURVE",
"560 0 OFFCURVE",
"567 0 CURVE SMOOTH",
"594 0 LINE SMOOTH",
"600 0 OFFCURVE",
"603 3 OFFCURVE",
"603 10 CURVE SMOOTH",
"603 732 LINE SMOOTH",
"603 740 OFFCURVE",
"601 742 OFFCURVE",
"594 742 CURVE SMOOTH",
"565 742 LINE SMOOTH",
"559 742 OFFCURVE",
"557 739 OFFCURVE",
"557 733 CURVE SMOOTH",
"557 414 LINE SMOOTH",
"557 408 OFFCURVE",
"555 406 OFFCURVE",
"549 406 CURVE SMOOTH",
"161 406 LINE SMOOTH",
"154 406 OFFCURVE",
"152 407 OFFCURVE",
"152 415 CURVE SMOOTH",
"152 732 LINE SMOOTH",
"152 740 OFFCURVE",
"150 742 OFFCURVE",
"143 742 CURVE SMOOTH",
"115 742 LINE SMOOTH",
"108 742 OFFCURVE",
"106 740 OFFCURVE",
"106 732 CURVE SMOOTH",
"106 10 LINE SMOOTH",
"106 3 OFFCURVE",
"108 0 OFFCURVE",
"115 0 CURVE SMOOTH",
"142 0 LINE SMOOTH",
"149 0 OFFCURVE",
"152 3 OFFCURVE",
"152 9 CURVE SMOOTH",
"152 360 LINE SMOOTH",
"152 363 OFFCURVE",
"154 366 OFFCURVE",
"158 366 CURVE SMOOTH",
"550 366 LINE SMOOTH"
);
}
);
width = 709;
}
);
unicode = 0048;
},
{
color = 4;
glyphname = Hbar;
lastChange = "2015-08-07 07:12:27 +0000";
layers = (
{
components = (
{
name = H;
transform = "{1, 0, 0, 1, 25, 0}";
}
);
layerId = "258ED206-D907-4350-8EBA-CBDDA1C16BF7";
name = Bold;
paths = (
{
closed = 1;
nodes = (
"799 651 OFFCURVE",
"793 658 OFFCURVE",
"783 658 CURVE SMOOTH",
"16 658 LINE SMOOTH",
"6 658 OFFCURVE",
"0 651 OFFCURVE",
"0 638 CURVE SMOOTH",
"0 577 LINE SMOOTH",
"0 562 OFFCURVE",
"5 555 OFFCURVE",
"22 555 CURVE SMOOTH",
"770 555 LINE SMOOTH",
"790 555 OFFCURVE",
"799 562 OFFCURVE",
"799 579 CURVE SMOOTH",
"799 640 LINE SMOOTH"
);
}
);
width = 799;
},
{
components = (
{
name = H;
transform = "{1, 0, 0, 1, -1, 0}";
}
);
layerId = "91AB5BCA-6A50-42DA-B2F7-8181BF189245";
name = Light;
paths = (
{
closed = 1;
nodes = (
"702 615 OFFCURVE",
"700 618 OFFCURVE",
"695 618 CURVE SMOOTH",
"12 618 LINE SMOOTH",
"7 618 OFFCURVE",
"5 615 OFFCURVE",
"5 609 CURVE SMOOTH",
"5 583 LINE SMOOTH",
"5 576 OFFCURVE",
"7 573 OFFCURVE",
"15 573 CURVE SMOOTH",
"689 573 LINE SMOOTH",
"698 573 OFFCURVE",
"702 576 OFFCURVE",
"702 584 CURVE SMOOTH",
"702 610 LINE SMOOTH"
);
}
);
width = 707;
}
);
unicode = 0126;
},
{
color = 4;
glyphname = I;
lastChange = "2015-08-07 07:12:27 +0000";
layers = (
{
anchors = (
{
name = bottom;
position = "{159, 0}";
},
{
name = ogonek;
position = "{241, 10}";
},
{
name = top;
position = "{160, 742}";
}
);
background = {
paths = (
{
closed = 1;
nodes = (
"274 734 OFFCURVE",
"268 742 OFFCURVE",
"256 742 CURVE SMOOTH",
"65 742 LINE SMOOTH",
"54 742 OFFCURVE",
"46 734 OFFCURVE",
"46 719 CURVE SMOOTH",
"42 25 LINE SMOOTH",
"42 8 OFFCURVE",
"48 0 OFFCURVE",
"69 0 CURVE SMOOTH",
"241 0 LINE SMOOTH",
"264 0 OFFCURVE",
"274 8 OFFCURVE",
"274 29 CURVE SMOOTH",
"274 721 LINE SMOOTH"
);
}
);
};
layerId = "258ED206-D907-4350-8EBA-CBDDA1C16BF7";
name = Bold;
paths = (
{
closed = 1;
nodes = (
"54 742 OFFCURVE",
"46 734 OFFCURVE",
"46 719 CURVE SMOOTH",
"46 25 LINE SMOOTH",
"46 8 OFFCURVE",
"52 0 OFFCURVE",
"73 0 CURVE SMOOTH",
"240 0 LINE SMOOTH",
"263 0 OFFCURVE",
"273 8 OFFCURVE",
"273 29 CURVE SMOOTH",
"273 721 LINE SMOOTH",
"273 734 OFFCURVE",
"267 742 OFFCURVE",
"255 742 CURVE SMOOTH",
"65 742 LINE SMOOTH"
);
}
);
width = 319;
},
{
anchors = (
{
name = bottom;
position = "{129, 0}";
},
{
name = ogonek;
position = "{141, 10}";
},
{
name = top;
position = "{132, 742}";
}
);
layerId = "91AB5BCA-6A50-42DA-B2F7-8181BF189245";
name = Light;
paths = (
{
closed = 1;
nodes = (
"108 742 OFFCURVE",
"106 740 OFFCURVE",
"106 732 CURVE SMOOTH",
"106 10 LINE SMOOTH",
"106 2 OFFCURVE",
"108 0 OFFCURVE",
"117 0 CURVE SMOOTH",
"140 0 LINE SMOOTH",
"150 0 OFFCURVE",
"152 2 OFFCURVE",
"152 12 CURVE SMOOTH",
"152 732 LINE SMOOTH",
"152 740 OFFCURVE",
"150 742 OFFCURVE",
"143 742 CURVE SMOOTH",
"115 742 LINE SMOOTH"
);
}
);
width = 258;
}
);
unicode = 0049;
},
{
color = 4;
glyphname = J;
lastChange = "2015-08-07 07:12:27 +0000";
layers = (
{
anchors = (
{
name = top;
position = "{240, 742}";
}
);
background = {
paths = (
{
closed = 1;
nodes = (
"417 721 LINE SMOOTH",
"417 734 OFFCURVE",
"411 742 OFFCURVE",
"399 742 CURVE SMOOTH",
"209 742 LINE SMOOTH",
"197 742 OFFCURVE",
"189 734 OFFCURVE",
"189 719 CURVE SMOOTH",
"186 263 LINE SMOOTH",
"185 195 OFFCURVE",
"157 171 OFFCURVE",
"100 171 CURVE SMOOTH",
"85 171 OFFCURVE",
"69 175 OFFCURVE",
"53 177 CURVE SMOOTH",
"37 179 OFFCURVE",
"31 169 OFFCURVE",
"29 154 CURVE SMOOTH",
"20 38 LINE SMOOTH",
"18 10 OFFCURVE",
"28 -2 OFFCURVE",
"51 -5 CURVE SMOOTH",
"105 -14 OFFCURVE",
"125 -15 OFFCURVE",
"165 -15 CURVE SMOOTH",
"335 -15 OFFCURVE",
"417 43 OFFCURVE",
"417 207 CURVE SMOOTH"
);
}
);
};
layerId = "258ED206-D907-4350-8EBA-CBDDA1C16BF7";
name = Bold;
paths = (
{
closed = 1;
nodes = (
"417 721 LINE SMOOTH",
"417 734 OFFCURVE",
"411 742 OFFCURVE",
"399 742 CURVE SMOOTH",
"210 742 LINE SMOOTH",
"198 742 OFFCURVE",
"190 734 OFFCURVE",
"190 719 CURVE SMOOTH",
"190 268 LINE SMOOTH",
"190 200 OFFCURVE",
"161 175 OFFCURVE",
"112 175 CURVE SMOOTH",
"90 175 OFFCURVE",
"73 180 OFFCURVE",
"57 182 CURVE SMOOTH",
"41 184 OFFCURVE",
"34 174 OFFCURVE",
"33 159 CURVE SMOOTH",
"24 45 LINE SMOOTH",
"22 17 OFFCURVE",
"32 6 OFFCURVE",
"55 2 CURVE SMOOTH",
"100 -6 OFFCURVE",
"138 -10 OFFCURVE",
"179 -10 CURVE SMOOTH",
"335 -10 OFFCURVE",
"417 48 OFFCURVE",
"417 212 CURVE SMOOTH"
);
}
);
width = 480;
},
{
anchors = (
{
name = top;
position = "{189, 742}";
}
);
layerId = "91AB5BCA-6A50-42DA-B2F7-8181BF189245";
name = Light;
paths = (
{
closed = 1;
nodes = (
"212 732 LINE SMOOTH",
"212 739 OFFCURVE",
"210 742 OFFCURVE",
"204 742 CURVE SMOOTH",
"174 742 LINE SMOOTH",
"168 742 OFFCURVE",
"166 739 OFFCURVE",
"166 733 CURVE SMOOTH",
"166 124 LINE SMOOTH",
"166 53 OFFCURVE",
"135 30 OFFCURVE",
"81 30 CURVE SMOOTH",
"51 30 OFFCURVE",
"27 37 OFFCURVE",
"11 43 CURVE SMOOTH",
"6 45 OFFCURVE",
"4 44 OFFCURVE",
"3 39 CURVE SMOOTH",
"0 14 LINE SMOOTH",
"0 10 OFFCURVE",
"1 7 OFFCURVE",
"4 5 CURVE SMOOTH",
"11 0 OFFCURVE",
"44 -10 OFFCURVE",
"85 -10 CURVE SMOOTH",
"179 -10 OFFCURVE",
"212 41 OFFCURVE",
"212 119 CURVE SMOOTH"
);
}
);
width = 308;
}
);
unicode = 004A;
},
{
color = 4;
glyphname = K;
lastChange = "2015-08-07 07:12:27 +0000";
layers = (
{
anchors = (
{
name = bottom;
position = "{365, 0}";
},
{
name = top;
position = "{365, 742}";
}
);
background = {
paths = (
{
closed = 1;
nodes = (
"517 480 LINE SMOOTH",
"511 494 OFFCURVE",
"512 501 OFFCURVE",
"520 512 CURVE SMOOTH",
"684 713 LINE SMOOTH",
"697 728 OFFCURVE",
"685 742 OFFCURVE",
"663 742 CURVE SMOOTH",
"511 742 LINE SMOOTH",
"487 742 OFFCURVE",
"479 736 OFFCURVE",
"468 721 CURVE SMOOTH",
"284 463 LINE",
"276 453 OFFCURVE",
"269 452 OFFCURVE",
"269 468 CURVE SMOOTH",
"269 721 LINE SMOOTH",
"269 734 OFFCURVE",
"263 742 OFFCURVE",
"251 742 CURVE SMOOTH",
"60 742 LINE SMOOTH",
"49 742 OFFCURVE",
"41 734 OFFCURVE",
"41 719 CURVE SMOOTH",
"37 25 LINE SMOOTH",
"37 8 OFFCURVE",
"43 0 OFFCURVE",
"64 0 CURVE SMOOTH",
"236 0 LINE SMOOTH",
"259 0 OFFCURVE",
"269 8 OFFCURVE",
"269 29 CURVE SMOOTH",
"269 180 LINE SMOOTH",
"269 190 OFFCURVE",
"270 196 OFFCURVE",
"275 202 CURVE SMOOTH",
"346 293 LINE SMOOTH",
"356 306 OFFCURVE",
"362 308 OFFCURVE",
"368 298 CURVE SMOOTH",
"490 20 LINE SMOOTH",
"497 5 OFFCURVE",
"509 0 OFFCURVE",
"526 0 CURVE SMOOTH",
"721 0 LINE SMOOTH",
"741 0 OFFCURVE",
"743 15 OFFCURVE",
"735 31 CURVE SMOOTH"
);
}
);
};
layerId = "258ED206-D907-4350-8EBA-CBDDA1C16BF7";
name = Bold;
paths = (
{
closed = 1;
nodes = (
"521 480 LINE SMOOTH",
"515 494 OFFCURVE",
"516 501 OFFCURVE",
"524 512 CURVE SMOOTH",
"688 713 LINE SMOOTH",
"701 728 OFFCURVE",
"689 742 OFFCURVE",
"667 742 CURVE SMOOTH",
"515 742 LINE SMOOTH",
"491 742 OFFCURVE",
"483 736 OFFCURVE",
"472 721 CURVE SMOOTH",
"288 463 LINE",
"280 453 OFFCURVE",
"273 452 OFFCURVE",
"273 468 CURVE SMOOTH",
"273 721 LINE SMOOTH",
"273 734 OFFCURVE",
"267 742 OFFCURVE",
"255 742 CURVE SMOOTH",
"65 742 LINE SMOOTH",
"54 742 OFFCURVE",
"46 734 OFFCURVE",
"46 719 CURVE SMOOTH",
"46 25 LINE SMOOTH",
"46 8 OFFCURVE",
"52 0 OFFCURVE",
"73 0 CURVE SMOOTH",
"240 0 LINE SMOOTH",
"263 0 OFFCURVE",
"273 8 OFFCURVE",
"273 29 CURVE SMOOTH",
"273 180 LINE SMOOTH",
"273 190 OFFCURVE",
"274 196 OFFCURVE",
"279 202 CURVE SMOOTH",
"350 293 LINE SMOOTH",
"360 306 OFFCURVE",
"366 308 OFFCURVE",
"372 298 CURVE SMOOTH",
"494 20 LINE SMOOTH",
"501 5 OFFCURVE",
"513 0 OFFCURVE",
"530 0 CURVE SMOOTH",
"725 0 LINE SMOOTH",
"745 0 OFFCURVE",
"747 15 OFFCURVE",
"739 31 CURVE SMOOTH"
);
}
);
width = 730;
},
{
anchors = (
{
name = bottom;
position = "{335, 0}";
},
{
name = top;
position = "{365, 742}";
}
);
background = {
components = (
{
name = H;
}
);
};
layerId = "91AB5BCA-6A50-42DA-B2F7-8181BF189245";
name = Light;
paths = (
{
closed = 1;
nodes = (
"335 445 LINE SMOOTH",
"333 449 OFFCURVE",
"333 449 OFFCURVE",
"335 451 CURVE SMOOTH",
"594 734 LINE SMOOTH",
"598 738 OFFCURVE",
"597 742 OFFCURVE",
"591 742 CURVE SMOOTH",
"555 742 LINE SMOOTH",
"549 742 OFFCURVE",
"547 741 OFFCURVE",
"544 738 CURVE SMOOTH",
"159 323 LINE SMOOTH",
"154 318 OFFCURVE",
"152 318 OFFCURVE",
"152 324 CURVE SMOOTH",
"152 734 LINE SMOOTH",
"152 740 OFFCURVE",
"149 742 OFFCURVE",
"144 742 CURVE SMOOTH",
"114 742 LINE SMOOTH",
"108 742 OFFCURVE",
"106 739 OFFCURVE",
"106 734 CURVE SMOOTH",
"106 9 LINE SMOOTH",
"106 2 OFFCURVE",
"109 0 OFFCURVE",
"116 0 CURVE SMOOTH",
"142 0 LINE SMOOTH",
"149 0 OFFCURVE",
"152 3 OFFCURVE",
"152 9 CURVE SMOOTH",
"152 246 LINE SMOOTH",
"152 254 OFFCURVE",
"154 257 OFFCURVE",
"160 263 CURVE SMOOTH",
"292 408 LINE SMOOTH",
"297 413 OFFCURVE",
"300 414 OFFCURVE",
"304 408 CURVE SMOOTH",
"561 5 LINE SMOOTH",
"563 2 OFFCURVE",
"567 0 OFFCURVE",
"572 0 CURVE SMOOTH",
"612 0 LINE SMOOTH",
"616 0 OFFCURVE",
"618 3 OFFCURVE",
"615 7 CURVE SMOOTH"
);
}
);
width = 646;
}
);
leftMetricsKey = H;
unicode = 004B;
},
{
color = 4;
glyphname = L;
lastChange = "2015-08-07 07:12:27 +0000";
layers = (
{
anchors = (
{
name = bottom;
position = "{308, 0}";
},
{
name = top;
position = "{162, 742}";
},
{
name = topright;
position = "{504, 742}";
}
);
background = {
paths = (
{
closed = 1;
nodes = (
"46 734 OFFCURVE",
"54 742 OFFCURVE",
"65 742 CURVE SMOOTH",
"252 742 LINE SMOOTH",
"264 742 OFFCURVE",
"270 734 OFFCURVE",
"270 721 CURVE SMOOTH",
"270 175 LINE SMOOTH",
"270 164 OFFCURVE",
"273 161 OFFCURVE",
"282 161 CURVE SMOOTH",
"583 161 LINE SMOOTH",
"597 161 OFFCURVE",
"606 156 OFFCURVE",
"606 142 CURVE SMOOTH",
"606 22 LINE SMOOTH",
"606 10 OFFCURVE",
"598 0 OFFCURVE",
"581 0 CURVE SMOOTH",
"69 0 LINE SMOOTH",
"48 0 OFFCURVE",
"42 8 OFFCURVE",
"42 25 CURVE SMOOTH",
"46 719 LINE SMOOTH"
);
}
);
};
layerId = "258ED206-D907-4350-8EBA-CBDDA1C16BF7";
name = Bold;
paths = (
{
closed = 1;
nodes = (
"46 25 LINE SMOOTH",
"46 8 OFFCURVE",
"52 0 OFFCURVE",
"73 0 CURVE SMOOTH",
"584 0 LINE SMOOTH",
"601 0 OFFCURVE",
"609 10 OFFCURVE",
"609 22 CURVE SMOOTH",
"609 145 LINE SMOOTH",
"609 159 OFFCURVE",
"600 164 OFFCURVE",
"586 164 CURVE SMOOTH",
"285 164 LINE SMOOTH",
"276 164 OFFCURVE",
"273 167 OFFCURVE",
"273 178 CURVE SMOOTH",
"273 721 LINE SMOOTH",
"273 734 OFFCURVE",
"267 742 OFFCURVE",
"255 742 CURVE SMOOTH",
"65 742 LINE SMOOTH",
"54 742 OFFCURVE",
"46 734 OFFCURVE",
"46 719 CURVE SMOOTH"
);
}
);
width = 616;
},
{
anchors = (
{
name = bottom;
position = "{351, 0}";
},
{
name = top;
position = "{129, 742}";
},
{
name = topright;
position = "{395, 742}";
}
);
layerId = "91AB5BCA-6A50-42DA-B2F7-8181BF189245";
name = Light;
paths = (
{
closed = 1;
nodes = (
"106 10 LINE SMOOTH",
"106 3 OFFCURVE",
"108 0 OFFCURVE",
"115 0 CURVE",
"545 0 LINE",
"550 0 OFFCURVE",
"552 2 OFFCURVE",
"552 7 CURVE SMOOTH",
"552 33 LINE SMOOTH",
"552 39 OFFCURVE",
"550 40 OFFCURVE",
"544 40 CURVE SMOOTH",
"161 40 LINE SMOOTH",
"154 40 OFFCURVE",
"152 41 OFFCURVE",
"152 49 CURVE SMOOTH",
"152 732 LINE SMOOTH",
"152 740 OFFCURVE",
"150 742 OFFCURVE",
"143 742 CURVE SMOOTH",
"115 742 LINE SMOOTH",
"108 742 OFFCURVE",
"106 740 OFFCURVE",
"106 732 CURVE SMOOTH"
);
}
);
width = 562;
}
);
leftMetricsKey = H;
unicode = 004C;
},
{
color = 4;
glyphname = Lslash;
lastChange = "2015-08-07 07:12:27 +0000";
layers = (
{
components = (
{
name = L;
}
);
layerId = "258ED206-D907-4350-8EBA-CBDDA1C16BF7";
name = Bold;
paths = (
{
closed = 1;
nodes = (
"409 540 OFFCURVE",
"402 547 OFFCURVE",
"385 542 CURVE SMOOTH",
"-20 434 LINE SMOOTH",
"-32 431 OFFCURVE",
"-39 426 OFFCURVE",
"-39 411 CURVE SMOOTH",
"-39 291 LINE SMOOTH",
"-39 274 OFFCURVE",
"-33 267 OFFCURVE",
"-13 273 CURVE SMOOTH",
"389 387 LINE SMOOTH",
"403 391 OFFCURVE",
"409 399 OFFCURVE",
"409 411 CURVE SMOOTH",
"409 524 LINE SMOOTH"
);
}
);
width = 616;
},
{
components = (
{
name = L;
}
);
layerId = "91AB5BCA-6A50-42DA-B2F7-8181BF189245";
name = Light;
paths = (
{
closed = 1;
nodes = (
"267 436 OFFCURVE",
"265 439 OFFCURVE",
"260 437 CURVE SMOOTH",
"38 365 LINE SMOOTH",
"35 364 OFFCURVE",
"33 363 OFFCURVE",
"33 358 CURVE SMOOTH",
"33 322 LINE SMOOTH",
"33 317 OFFCURVE",
"35 315 OFFCURVE",
"40 317 CURVE SMOOTH",
"261 390 LINE SMOOTH",
"265 391 OFFCURVE",
"267 394 OFFCURVE",
"267 398 CURVE SMOOTH",
"267 432 LINE SMOOTH"
);
}
);
width = 616;
}
);
unicode = 0141;
},
{
color = 4;
glyphname = M;
lastChange = "2015-08-07 07:12:27 +0000";
layers = (
{
background = {
paths = (
{
closed = 1;
nodes = (
"535 18 LINE SMOOTH",
"532 7 OFFCURVE",
"522 0 OFFCURVE",
"511 0 CURVE SMOOTH",
"403 0 LINE SMOOTH",
"391 0 OFFCURVE",
"383 5 OFFCURVE",
"378 18 CURVE SMOOTH",
"232 476 LINE SMOOTH",
"227 492 OFFCURVE",
"224 488 OFFCURVE",
"224 475 CURVE SMOOTH",
"231 22 LINE SMOOTH",
"231 4 OFFCURVE",
"227 0 OFFCURVE",
"209 0 CURVE SMOOTH",
"68 0 LINE SMOOTH",
"52 0 OFFCURVE",
"42 11 OFFCURVE",
"42 28 CURVE SMOOTH",
"42 719 LINE SMOOTH",
"42 735 OFFCURVE",
"48 742 OFFCURVE",
"63 742 CURVE SMOOTH",
"342 742 LINE SMOOTH",
"359 742 OFFCURVE",
"365 738 OFFCURVE",
"370 724 CURVE SMOOTH",
"475 414 LINE SMOOTH",
"479 400 OFFCURVE",
"482 398 OFFCURVE",
"488 414 CURVE SMOOTH",
"580 713 LINE SMOOTH",
"585 731 OFFCURVE",
"593 742 OFFCURVE",
"607 742 CURVE SMOOTH",
"895 742 LINE SMOOTH",
"907 742 OFFCURVE",
"913 734 OFFCURVE",
"913 721 CURVE SMOOTH",
"913 29 LINE SMOOTH",
"913 8 OFFCURVE",
"904 0 OFFCURVE",
"881 0 CURVE SMOOTH",
"714 0 LINE SMOOTH",
"694 0 OFFCURVE",
"688 8 OFFCURVE",
"688 25 CURVE SMOOTH",
"692 474 LINE SMOOTH",
"692 485 OFFCURVE",
"687 489 OFFCURVE",
"682 477 CURVE SMOOTH"
);
}
);
};
layerId = "258ED206-D907-4350-8EBA-CBDDA1C16BF7";
name = Bold;
paths = (
{
closed = 1;
nodes = (
"205 0 LINE SMOOTH",
"223 0 OFFCURVE",
"227 4 OFFCURVE",
"227 22 CURVE SMOOTH",
"227 464 LINE SMOOTH",
"227 477 OFFCURVE",
"234 481 OFFCURVE",
"239 465 CURVE SMOOTH",
"383 18 LINE SMOOTH",
"387 6 OFFCURVE",
"395 0 OFFCURVE",
"407 0 CURVE SMOOTH",
"512 0 LINE SMOOTH",
"523 0 OFFCURVE",
"532 7 OFFCURVE",
"536 18 CURVE SMOOTH",
"680 473 LINE SMOOTH",
"684 485 OFFCURVE",
"692 485 OFFCURVE",
"692 474 CURVE SMOOTH",
"692 25 LINE SMOOTH",
"692 8 OFFCURVE",
"698 0 OFFCURVE",
"718 0 CURVE SMOOTH",
"887 0 LINE SMOOTH",
"910 0 OFFCURVE",
"919 8 OFFCURVE",
"919 29 CURVE SMOOTH",
"919 721 LINE SMOOTH",
"919 734 OFFCURVE",
"913 742 OFFCURVE",
"901 742 CURVE SMOOTH",
"612 742 LINE SMOOTH",
"598 742 OFFCURVE",
"590 731 OFFCURVE",
"585 713 CURVE SMOOTH",
"492 406 LINE SMOOTH",
"489 397 OFFCURVE",
"483 395 OFFCURVE",
"479 406 CURVE SMOOTH",
"375 724 LINE SMOOTH",
"370 738 OFFCURVE",
"364 742 OFFCURVE",
"347 742 CURVE SMOOTH",
"67 742 LINE SMOOTH",
"52 742 OFFCURVE",
"46 735 OFFCURVE",
"46 719 CURVE SMOOTH",
"46 28 LINE SMOOTH",
"46 11 OFFCURVE",
"56 0 OFFCURVE",
"72 0 CURVE SMOOTH"
);
}
);
width = 965;
},
{
layerId = "91AB5BCA-6A50-42DA-B2F7-8181BF189245";
name = Light;
paths = (
{
closed = 1;
nodes = (
"136 0 LINE SMOOTH",
"143 0 OFFCURVE",
"146 3 OFFCURVE",
"146 9 CURVE SMOOTH",
"146 622 LINE SMOOTH",
"146 626 OFFCURVE",
"148 625 OFFCURVE",
"149 622 CURVE SMOOTH",
"378 10 LINE",
"381 3 OFFCURVE",
"386 0 OFFCURVE",
"396 0 CURVE SMOOTH",
"428 0 LINE SMOOTH",
"437 0 OFFCURVE",
"441 3 OFFCURVE",
"444 11 CURVE SMOOTH",
"674 626 LINE SMOOTH",
"675 629 OFFCURVE",
"677 631 OFFCURVE",
"677 625.992 CURVE SMOOTH",
"677 9 LINE SMOOTH",
"677 2 OFFCURVE",
"680 0 OFFCURVE",
"687 0 CURVE SMOOTH",
"714 0 LINE SMOOTH",
"720 0 OFFCURVE",
"723 3 OFFCURVE",
"723 10 CURVE SMOOTH",
"723 732 LINE SMOOTH",
"723 740 OFFCURVE",
"721 742 OFFCURVE",
"714 742 CURVE SMOOTH",
"685 742 LINE SMOOTH",
"679 742 OFFCURVE",
"676 740 OFFCURVE",
"674 735 CURVE SMOOTH",
"423 65 LINE SMOOTH",
"418 51 OFFCURVE",
"413 51 OFFCURVE",
"408 64 CURVE SMOOTH",
"155 734 LINE",
"153 740 OFFCURVE",
"150 742 OFFCURVE",
"143 742 CURVE SMOOTH",
"115 742 LINE SMOOTH",
"108 742 OFFCURVE",
"106 740 OFFCURVE",
"106 732 CURVE SMOOTH",
"106 10 LINE SMOOTH",
"106 3 OFFCURVE",
"108 0 OFFCURVE",
"115 0 CURVE SMOOTH"
);
}
);
width = 829;
}
);
leftMetricsKey = H;
rightMetricsKey = H;
unicode = 004D;
},
{
color = 4;
glyphname = N;
lastChange = "2015-08-07 07:12:27 +0000";
layers = (
{
anchors = (
{
name = bottom;
position = "{375, 0}";
},
{
name = top;
position = "{375, 742}";
}
);
background = {
paths = (
{
closed = 1;
nodes = (
"526 742 OFFCURVE",
"519 734 OFFCURVE",
"519 721 CURVE SMOOTH",
"519 398 LINE",
"519 382 OFFCURVE",
"514 379 OFFCURVE",
"503 394 CURVE SMOOTH",
"264 724 LINE SMOOTH",
"253 738 OFFCURVE",
"247 742 OFFCURVE",
"230 742 CURVE SMOOTH",
"67 742 LINE SMOOTH",
"52 742 OFFCURVE",
"45 735 OFFCURVE",
"45 719 CURVE SMOOTH",
"45 20 LINE SMOOTH",
"45 5 OFFCURVE",
"55 0 OFFCURVE",
"70 0 CURVE SMOOTH",
"208 0 LINE SMOOTH",
"226 0 OFFCURVE",
"233 6 OFFCURVE",
"233 22 CURVE SMOOTH",
"229 388 LINE SMOOTH",
"229 396 OFFCURVE",
"233 397 OFFCURVE",
"239 389 CURVE SMOOTH",
"514 18 LINE SMOOTH",
"522 6 OFFCURVE",
"526 0 OFFCURVE",
"538 0 CURVE SMOOTH",
"676 0 LINE SMOOTH",
"689 0 OFFCURVE",
"699 7 OFFCURVE",
"699 18 CURVE",
"699 725 LINE SMOOTH",
"699 736 OFFCURVE",
"694 742 OFFCURVE",
"684 742 CURVE SMOOTH",
"541 742 LINE SMOOTH"
);
}
);
};
layerId = "258ED206-D907-4350-8EBA-CBDDA1C16BF7";
name = Bold;
paths = (
{
closed = 1;
nodes = (
"528 742 OFFCURVE",
"521 734 OFFCURVE",
"521 721 CURVE SMOOTH",
"521 394 LINE SMOOTH",
"521 378 OFFCURVE",
"514 378 OFFCURVE",
"505 390 CURVE SMOOTH",
"265 724 LINE SMOOTH",
"254 739 OFFCURVE",
"248 742 OFFCURVE",
"231 742 CURVE SMOOTH",
"68 742 LINE SMOOTH",
"53 742 OFFCURVE",
"46 735 OFFCURVE",
"46 719 CURVE SMOOTH",
"46 20 LINE SMOOTH",
"46 5 OFFCURVE",
"56 0 OFFCURVE",
"71 0 CURVE SMOOTH",
"207 0 LINE SMOOTH",
"225 0 OFFCURVE",
"232 6 OFFCURVE",
"231 22 CURVE SMOOTH",
"231 386 LINE SMOOTH",
"231 393 OFFCURVE",
"236 395 OFFCURVE",
"241 388 CURVE SMOOTH",
"516 15 LINE SMOOTH",
"526 2 OFFCURVE",
"532 0 OFFCURVE",
"543 0 CURVE SMOOTH",
"680 0 LINE SMOOTH",
"693 0 OFFCURVE",
"703 7 OFFCURVE",
"703 18 CURVE SMOOTH",
"703 725 LINE SMOOTH",
"703 736 OFFCURVE",
"698 742 OFFCURVE",
"688 742 CURVE SMOOTH",
"543 742 LINE SMOOTH"
);
}
);
width = 749;
},
{
anchors = (
{
name = bottom;
position = "{337, 0}";
},
{
name = top;
position = "{370, 742}";
}
);
background = {
paths = (
{
closed = 1;
nodes = (
"526 742 OFFCURVE",
"519 734 OFFCURVE",
"519 721 CURVE SMOOTH",
"519 398 LINE",
"519 382 OFFCURVE",
"514 379 OFFCURVE",
"503 394 CURVE SMOOTH",
"264 724 LINE SMOOTH",
"253 738 OFFCURVE",
"247 742 OFFCURVE",
"230 742 CURVE SMOOTH",
"67 742 LINE SMOOTH",
"52 742 OFFCURVE",
"45 735 OFFCURVE",
"45 719 CURVE SMOOTH",
"45 20 LINE SMOOTH",
"45 5 OFFCURVE",
"55 0 OFFCURVE",
"70 0 CURVE SMOOTH",
"208 0 LINE SMOOTH",
"226 0 OFFCURVE",
"233 6 OFFCURVE",
"233 22 CURVE SMOOTH",
"229 388 LINE SMOOTH",
"229 396 OFFCURVE",
"233 397 OFFCURVE",
"239 389 CURVE SMOOTH",
"514 18 LINE SMOOTH",
"522 6 OFFCURVE",
"526 0 OFFCURVE",
"538 0 CURVE SMOOTH",
"676 0 LINE SMOOTH",
"689 0 OFFCURVE",
"699 7 OFFCURVE",
"699 18 CURVE",
"699 725 LINE SMOOTH",
"699 736 OFFCURVE",
"694 742 OFFCURVE",
"684 742 CURVE SMOOTH",
"541 742 LINE SMOOTH"
);
}
);
};
layerId = "91AB5BCA-6A50-42DA-B2F7-8181BF189245";
name = Light;
paths = (
{
closed = 1;
nodes = (
"565 742 OFFCURVE",
"563 739 OFFCURVE",
"563 733 CURVE SMOOTH",
"563 104 LINE SMOOTH",
"563 98 OFFCURVE",
"558 92 OFFCURVE",
"551 102 CURVE SMOOTH",
"150 735 LINE SMOOTH",
"146 741 OFFCURVE",
"143 742 OFFCURVE",
"136 742 CURVE SMOOTH",
"115 742 LINE",
"108 742 OFFCURVE",
"106 740 OFFCURVE",
"106 732 CURVE SMOOTH",
"106 10 LINE SMOOTH",
"106 3 OFFCURVE",
"108 0 OFFCURVE",
"115 0 CURVE SMOOTH",
"136 0 LINE SMOOTH",
"143 0 OFFCURVE",
"146 3 OFFCURVE",
"146 9 CURVE SMOOTH",
"146 640 LINE SMOOTH",
"146 648 OFFCURVE",
"149 650 OFFCURVE",
"155 640 CURVE SMOOTH",
"561 6 LINE SMOOTH",
"566 -1 OFFCURVE",
"571 0 OFFCURVE",
"578 0 CURVE SMOOTH",
"594 0 LINE SMOOTH",
"600 0 OFFCURVE",
"603 3 OFFCURVE",
"603 10 CURVE SMOOTH",
"603 732 LINE SMOOTH",
"603 740 OFFCURVE",
"601 742 OFFCURVE",
"594 742 CURVE SMOOTH",
"571 742 LINE SMOOTH"
);
}
);
width = 709;
}
);
leftMetricsKey = H;
rightMetricsKey = H;
unicode = 004E;
},
{
color = 4;
glyphname = Eng;
lastChange = "2015-08-07 07:12:27 +0000";
layers = (
{
layerId = "258ED206-D907-4350-8EBA-CBDDA1C16BF7";
name = Bold;
paths = (
{
closed = 1;
nodes = (
"543 742 LINE SMOOTH",
"528 742 OFFCURVE",
"521 734 OFFCURVE",
"521 721 CURVE SMOOTH",
"521 434 LINE SMOOTH",
"521 418 OFFCURVE",
"514 418 OFFCURVE",
"505 430 CURVE",
"265 724 LINE SMOOTH",
"253 739 OFFCURVE",
"248 742 OFFCURVE",
"231 742 CURVE SMOOTH",
"68 742 LINE SMOOTH",
"53 742 OFFCURVE",
"46 735 OFFCURVE",
"46 719 CURVE SMOOTH",
"46 20 LINE SMOOTH",
"46 5 OFFCURVE",
"56 0 OFFCURVE",
"71 0 CURVE SMOOTH",
"207 0 LINE SMOOTH",
"225 0 OFFCURVE",
"232 6 OFFCURVE",
"231 22 CURVE",
"231 386 LINE",
"231 393 OFFCURVE",
"235 395 OFFCURVE",
"241 388 CURVE SMOOTH",
"480.934 97.462 LINE",
"481 88 LINE SMOOTH",
"478 31 OFFCURVE",
"448 10 OFFCURVE",
"403 10 CURVE SMOOTH",
"381 10 OFFCURVE",
"358 15 OFFCURVE",
"342 17 CURVE SMOOTH",
"326 19 OFFCURVE",
"319 9 OFFCURVE",
"318 -6 CURVE SMOOTH",
"309 -120 LINE SMOOTH",
"307 -148 OFFCURVE",
"317 -159 OFFCURVE",
"340 -163 CURVE SMOOTH",
"385 -171 OFFCURVE",
"429 -175 OFFCURVE",
"470 -175 CURVE SMOOTH",
"622 -175 OFFCURVE",
"703 -114 OFFCURVE",
"703 47 CURVE SMOOTH",
"703 725 LINE SMOOTH",
"703 736 OFFCURVE",
"698 742 OFFCURVE",
"688 742 CURVE SMOOTH"
);
}
);
width = 749;
},
{
layerId = "91AB5BCA-6A50-42DA-B2F7-8181BF189245";
name = Light;
paths = (
{
closed = 1;
nodes = (
"571 742 LINE SMOOTH",
"565 742 OFFCURVE",
"563 739 OFFCURVE",
"563 733 CURVE SMOOTH",
"563 104 LINE SMOOTH",
"563 98 OFFCURVE",
"558 92 OFFCURVE",
"551 102 CURVE",
"150 735 LINE SMOOTH",
"146 741 OFFCURVE",
"143 742 OFFCURVE",
"136 742 CURVE SMOOTH",
"115 742 LINE SMOOTH",
"108 742 OFFCURVE",
"106 740 OFFCURVE",
"106 732 CURVE SMOOTH",
"106 10 LINE SMOOTH",
"106 3 OFFCURVE",
"108 0 OFFCURVE",
"115 0 CURVE SMOOTH",
"136 0 LINE SMOOTH",
"143 0 OFFCURVE",
"146 3 OFFCURVE",
"146 9 CURVE SMOOTH",
"146 640 LINE SMOOTH",
"146 648 OFFCURVE",
"149 650 OFFCURVE",
"155 640 CURVE SMOOTH",
"557 12 LINE",
"557 -41 LINE SMOOTH",
"557 -112 OFFCURVE",
"526 -135 OFFCURVE",
"472 -135 CURVE SMOOTH",
"442 -135 OFFCURVE",
"418 -128 OFFCURVE",
"402 -122 CURVE SMOOTH",
"397 -120 OFFCURVE",
"395 -121 OFFCURVE",
"394 -126 CURVE",
"391 -151 LINE",
"391 -155 OFFCURVE",
"392 -158 OFFCURVE",
"395 -160 CURVE SMOOTH",
"402 -165 OFFCURVE",
"435 -175 OFFCURVE",
"476 -175 CURVE SMOOTH",
"570 -175 OFFCURVE",
"603 -124 OFFCURVE",
"603 -46 CURVE SMOOTH",
"603 732 LINE SMOOTH",
"603 740 OFFCURVE",
"601 742 OFFCURVE",
"594 742 CURVE SMOOTH"
);
}
);
width = 709;
}
);
rightMetricsKey = N;
unicode = 014A;
},
{
color = 4;
glyphname = O;
lastChange = "2015-08-07 07:12:27 +0000";
layers = (
{
anchors = (
{
name = bottom;
position = "{395, 0}";
},
{
name = ogonek;
position = "{486, 10}";
},
{
name = top;
position = "{393, 742}";
}
);
guideLines = (
{
angle = 90;
position = "{-603, 431}";
}
);
layerId = "258ED206-D907-4350-8EBA-CBDDA1C16BF7";
name = Bold;
paths = (
{
closed = 1;
nodes = (
"612 -10 OFFCURVE",
"752 139 OFFCURVE",
"752 369 CURVE SMOOTH",
"752 601 OFFCURVE",
"609 752 OFFCURVE",
"394 752 CURVE SMOOTH",
"177 752 OFFCURVE",
"34 601 OFFCURVE",
"34 369 CURVE SMOOTH",
"34 138 OFFCURVE",
"173 -10 OFFCURVE",
"394 -10 CURVE SMOOTH"
);
},
{
closed = 1;
nodes = (
"305 146 OFFCURVE",
"272 206 OFFCURVE",
"272 366 CURVE SMOOTH",
"272 531 OFFCURVE",
"307 598 OFFCURVE",
"394 598 CURVE SMOOTH",
"479 598 OFFCURVE",
"514 531 OFFCURVE",
"514 366 CURVE SMOOTH",
"514 206 OFFCURVE",
"481 146 OFFCURVE",
"394 146 CURVE SMOOTH"
);
}
);
width = 786;
},
{
anchors = (
{
name = bottom;
position = "{356, 0}";
},
{
name = ogonek;
position = "{435, 10}";
},
{
name = top;
position = "{356, 742}";
}
);
background = {
paths = (
{
closed = 1;
nodes = (
"140 752 OFFCURVE",
"-3 601 OFFCURVE",
"-3 369 CURVE SMOOTH",
"-3 138 OFFCURVE",
"136 -10 OFFCURVE",
"357 -10 CURVE SMOOTH",
"575 -10 OFFCURVE",
"715 139 OFFCURVE",
"715 369 CURVE SMOOTH",
"715 601 OFFCURVE",
"572 752 OFFCURVE",
"357 752 CURVE SMOOTH"
);
},
{
closed = 1;
nodes = (
"268 146 OFFCURVE",
"235 206 OFFCURVE",
"235 366 CURVE SMOOTH",
"235 531 OFFCURVE",
"270 598 OFFCURVE",
"357 598 CURVE SMOOTH",
"442 598 OFFCURVE",
"477 531 OFFCURVE",
"477 366 CURVE SMOOTH",
"477 206 OFFCURVE",
"444 146 OFFCURVE",
"357 146 CURVE SMOOTH"
);
}
);
};
guideLines = (
{
angle = 90;
position = "{-601, 431}";
},
{
angle = 90;
position = "{356, 640}";
}
);
layerId = "91AB5BCA-6A50-42DA-B2F7-8181BF189245";
name = Light;
paths = (
{
closed = 1;
nodes = (
"542 -10 OFFCURVE",
"655 122 OFFCURVE",
"655 369 CURVE SMOOTH",
"655 618 OFFCURVE",
"542 752 OFFCURVE",
"355 752 CURVE SMOOTH",
"167 752 OFFCURVE",
"53 617 OFFCURVE",
"53 367 CURVE SMOOTH",
"53 121 OFFCURVE",
"165 -10 OFFCURVE",
"354 -10 CURVE SMOOTH"
);
},
{
closed = 1;
nodes = (
"190 33 OFFCURVE",
"102 143 OFFCURVE",
"102 369 CURVE SMOOTH",
"102 597 OFFCURVE",
"190 709 OFFCURVE",
"355 709 CURVE SMOOTH",
"519 709 OFFCURVE",
"606 598 OFFCURVE",
"606 369 CURVE SMOOTH",
"606 142 OFFCURVE",
"521 33 OFFCURVE",
"356 33 CURVE SMOOTH"
);
}
);
width = 708;
}
);
unicode = 004F;
},
{
color = 4;
glyphname = Oslash;
lastChange = "2015-08-07 07:12:27 +0000";
layers = (
{
anchors = (
{
name = top;
position = "{393, 742}";
}
);
background = {
paths = (
{
closed = 1;
nodes = (
"177 752 OFFCURVE",
"34 601 OFFCURVE",
"34 369 CURVE SMOOTH",
"34 138 OFFCURVE",
"173 -10 OFFCURVE",
"394 -10 CURVE SMOOTH",
"612 -10 OFFCURVE",
"752 139 OFFCURVE",
"752 369 CURVE SMOOTH",
"752 601 OFFCURVE",
"609 752 OFFCURVE",
"394 752 CURVE SMOOTH"
);
},
{
closed = 1;
nodes = (
"305 146 OFFCURVE",
"272 206 OFFCURVE",
"272 366 CURVE SMOOTH",
"272 531 OFFCURVE",
"307 598 OFFCURVE",
"394 598 CURVE SMOOTH",
"479 598 OFFCURVE",
"514 531 OFFCURVE",
"514 366 CURVE SMOOTH",
"514 206 OFFCURVE",
"481 146 OFFCURVE",
"394 146 CURVE SMOOTH"
);
},
{
closed = 1;
nodes = (
"785 668 OFFCURVE",
"784 678 OFFCURVE",
"776 686 CURVE SMOOTH",
"722 742 LINE SMOOTH",
"714 750 OFFCURVE",
"702 748 OFFCURVE",
"691 737 CURVE SMOOTH",
"21 84 LINE SMOOTH",
"9 72 OFFCURVE",
"10 62 OFFCURVE",
"25 47 CURVE SMOOTH",
"64 7 LINE SMOOTH",
"80 -9 OFFCURVE",
"92 -8 OFFCURVE",
"107 7 CURVE SMOOTH",
"775 659 LINE SMOOTH"
);
}
);
};
layerId = "258ED206-D907-4350-8EBA-CBDDA1C16BF7";
name = Bold;
paths = (
{
closed = 1;
nodes = (
"722 742 LINE SMOOTH",
"714 750 OFFCURVE",
"702 748 OFFCURVE",
"691 737 CURVE SMOOTH",
"625.978 673.628 LINE",
"565.773 724.014 OFFCURVE",
"486.559 752 OFFCURVE",
"394 752 CURVE SMOOTH",
"177 752 OFFCURVE",
"34 601 OFFCURVE",
"34 369 CURVE SMOOTH",
"34 283.385 OFFCURVE",
"53.094 209.172 OFFCURVE",
"88.379 149.669 CURVE",
"21 84 LINE SMOOTH",
"9 72 OFFCURVE",
"10 62 OFFCURVE",
"25 47 CURVE SMOOTH",
"64 7 LINE SMOOTH",
"80 -9 OFFCURVE",
"92 -8 OFFCURVE",
"107 7 CURVE SMOOTH",
"164.116 62.748 LINE",
"223.663 15.829 OFFCURVE",
"301.676 -10 OFFCURVE",
"394 -10 CURVE SMOOTH",
"612 -10 OFFCURVE",
"752 139 OFFCURVE",
"752 369 CURVE SMOOTH",
"752 452.736 OFFCURVE",
"733.371 525.92 OFFCURVE",
"699.451 585.261 CURVE",
"775 659 LINE",
"785 668 OFFCURVE",
"784 678 OFFCURVE",
"776 686 CURVE SMOOTH"
);
},
{
closed = 1;
nodes = (
"272 531 OFFCURVE",
"307 598 OFFCURVE",
"394 598 CURVE SMOOTH",
"438.199 598 OFFCURVE",
"468.878 579.884 OFFCURVE",
"488.147 539.294 CURVE",
"272.654 329.269 LINE",
"272 342 OFFCURVE",
"272 354 OFFCURVE",
"272 366 CURVE"
);
},
{
closed = 1;
nodes = (
"514 206 OFFCURVE",
"481 146 OFFCURVE",
"394 146 CURVE SMOOTH",
"349.772 146 OFFCURVE",
"319.374 160.817 OFFCURVE",
"299.982 195.36 CURVE",
"513.326 403.593 LINE",
"514 391 OFFCURVE",
"514 379 OFFCURVE",
"514 366 CURVE SMOOTH"
);
}
);
width = 786;
},
{
anchors = (
{
name = top;
position = "{355, 742}";
}
);
background = {
paths = (
{
closed = 1;
nodes = (
"177 752 OFFCURVE",
"34 601 OFFCURVE",
"34 369 CURVE SMOOTH",
"34 138 OFFCURVE",
"173 -10 OFFCURVE",
"394 -10 CURVE SMOOTH",
"612 -10 OFFCURVE",
"752 139 OFFCURVE",
"752 369 CURVE SMOOTH",
"752 601 OFFCURVE",
"609 752 OFFCURVE",
"394 752 CURVE SMOOTH"
);
},
{
closed = 1;
nodes = (
"305 146 OFFCURVE",
"272 206 OFFCURVE",
"272 366 CURVE SMOOTH",
"272 531 OFFCURVE",
"307 598 OFFCURVE",
"394 598 CURVE SMOOTH",
"479 598 OFFCURVE",
"514 531 OFFCURVE",
"514 366 CURVE SMOOTH",
"514 206 OFFCURVE",
"481 146 OFFCURVE",
"394 146 CURVE SMOOTH"
);
},
{
closed = 1;
nodes = (
"785 668 OFFCURVE",
"784 678 OFFCURVE",
"776 686 CURVE SMOOTH",
"722 742 LINE SMOOTH",
"714 750 OFFCURVE",
"702 748 OFFCURVE",
"691 737 CURVE SMOOTH",
"21 84 LINE SMOOTH",
"9 72 OFFCURVE",
"10 62 OFFCURVE",
"25 47 CURVE SMOOTH",
"64 7 LINE SMOOTH",
"80 -9 OFFCURVE",
"92 -8 OFFCURVE",
"107 7 CURVE SMOOTH",
"775 659 LINE SMOOTH"
);
}
);
};
layerId = "91AB5BCA-6A50-42DA-B2F7-8181BF189245";
name = Light;
paths = (
{
closed = 1;
nodes = (
"659 749 LINE",
"654 753 OFFCURVE",
"650 751 OFFCURVE",
"646 746 CURVE",
"571 659 LINE",
"519 720 OFFCURVE",
"446 752 OFFCURVE",
"355 752 CURVE SMOOTH",
"167 752 OFFCURVE",
"53 617 OFFCURVE",
"53 367 CURVE SMOOTH",
"53 266 OFFCURVE",
"72 184 OFFCURVE",
"108 123 CURVE",
"24 26 LINE",
"20 21 OFFCURVE",
"21 18 OFFCURVE",
"28 11 CURVE SMOOTH",
"45 -5 LINE",
"53 -11 OFFCURVE",
"58 -11 OFFCURVE",
"64 -3 CURVE",
"137 81 LINE",
"188 21 OFFCURVE",
"262 -10 OFFCURVE",
"354 -10 CURVE SMOOTH",
"542 -10 OFFCURVE",
"655 122 OFFCURVE",
"655 369 CURVE SMOOTH",
"655 472 OFFCURVE",
"636 555 OFFCURVE",
"600 617 CURVE",
"685 716 LINE",
"688 720 OFFCURVE",
"687 724 OFFCURVE",
"684 727 CURVE"
);
},
{
closed = 1;
nodes = (
"104 597 OFFCURVE",
"190 709 OFFCURVE",
"355 709 CURVE SMOOTH",
"437 709 OFFCURVE",
"499 681 OFFCURVE",
"541 625 CURVE",
"141 161 LINE",
"116 214 OFFCURVE",
"104 283 OFFCURVE",
"104 369 CURVE SMOOTH"
);
},
{
closed = 1;
nodes = (
"604 142 OFFCURVE",
"521 33 OFFCURVE",
"356 33 CURVE SMOOTH",
"273 33 OFFCURVE",
"210 61 OFFCURVE",
"167 117 CURVE",
"567 580 LINE",
"592 526 OFFCURVE",
"604 456 OFFCURVE",
"604 369 CURVE SMOOTH"
);
}
);
width = 708;
}
);
unicode = 00D8;
},
{
color = 4;
glyphname = OE;
lastChange = "2015-08-07 07:12:27 +0000";
layers = (
{
layerId = "258ED206-D907-4350-8EBA-CBDDA1C16BF7";
name = Bold;
paths = (
{
closed = 1;
nodes = (
"753 164 LINE SMOOTH",
"744 164 OFFCURVE",
"741 167 OFFCURVE",
"741 178 CURVE SMOOTH",
"741 278 LINE SMOOTH",
"741 286 OFFCURVE",
"747 292 OFFCURVE",
"757 292 CURVE SMOOTH",
"942 292 LINE SMOOTH",
"955 292 OFFCURVE",
"960 300 OFFCURVE",
"960 309 CURVE SMOOTH",
"960 433 LINE SMOOTH",
"960 446 OFFCURVE",
"953 453 OFFCURVE",
"939 453 CURVE SMOOTH",
"759 453 LINE SMOOTH",
"749 453 OFFCURVE",
"741 460 OFFCURVE",
"741 474 CURVE SMOOTH",
"741 559 LINE SMOOTH",
"741 572 OFFCURVE",
"749 578 OFFCURVE",
"764 578 CURVE SMOOTH",
"1064 578 LINE SMOOTH",
"1082 578 OFFCURVE",
"1090 589 OFFCURVE",
"1090 605 CURVE SMOOTH",
"1091 721 LINE SMOOTH",
"1091 734 OFFCURVE",
"1085 742 OFFCURVE",
"1073 742 CURVE SMOOTH",
"609 742 LINE",
"602 742 OFFCURVE",
"595 742 OFFCURVE",
"588 742 CURVE",
"546.962 742 LINE",
"511.758 748.587 OFFCURVE",
"469.264 752 OFFCURVE",
"418 752 CURVE SMOOTH",
"177 752 OFFCURVE",
"34 601 OFFCURVE",
"34 369 CURVE SMOOTH",
"34 138 OFFCURVE",
"173 -10 OFFCURVE",
"406 -10 CURVE SMOOTH",
"462.443 -10 OFFCURVE",
"508.811 -6.588 OFFCURVE",
"546.861 0 CURVE",
"597 0 LINE",
"604 0 OFFCURVE",
"611 0 OFFCURVE",
"618 0 CURVE",
"1076 0 LINE SMOOTH",
"1093 0 OFFCURVE",
"1100 10 OFFCURVE",
"1100 22 CURVE SMOOTH",
"1100 145 LINE SMOOTH",
"1100 159 OFFCURVE",
"1092 164 OFFCURVE",
"1078 164 CURVE SMOOTH"
);
},
{
closed = 1;
nodes = (
"305 146 OFFCURVE",
"272 206 OFFCURVE",
"272 366 CURVE SMOOTH",
"272 531 OFFCURVE",
"307 598 OFFCURVE",
"394 598 CURVE SMOOTH",
"479 598 OFFCURVE",
"514 531 OFFCURVE",
"514 366 CURVE SMOOTH",
"514 206 OFFCURVE",
"481 146 OFFCURVE",
"394 146 CURVE SMOOTH"
);
}
);
width = 1128;
},
{
layerId = "91AB5BCA-6A50-42DA-B2F7-8181BF189245";
name = Light;
paths = (
{
closed = 1;
nodes = (
"664 40 LINE SMOOTH",
"657 40 OFFCURVE",
"655 41 OFFCURVE",
"655 49 CURVE SMOOTH",
"655 346 LINE SMOOTH",
"655 354 OFFCURVE",
"657 355 OFFCURVE",
"664 355 CURVE SMOOTH",
"1022 355 LINE SMOOTH",
"1028 355 OFFCURVE",
"1030 356 OFFCURVE",
"1030 362 CURVE SMOOTH",
"1030 388 LINE SMOOTH",
"1030 393 OFFCURVE",
"1028 395 OFFCURVE",
"1023 395 CURVE SMOOTH",
"664 395 LINE SMOOTH",
"657 395 OFFCURVE",
"655 396 OFFCURVE",
"655 402 CURVE SMOOTH",
"655 693 LINE SMOOTH",
"655 701 OFFCURVE",
"657 702 OFFCURVE",
"664 702 CURVE SMOOTH",
"1052 702 LINE SMOOTH",
"1058 702 OFFCURVE",
"1060 703 OFFCURVE",
"1060 709 CURVE SMOOTH",
"1060 735 LINE SMOOTH",
"1060 740 OFFCURVE",
"1058 742 OFFCURVE",
"1053 742 CURVE SMOOTH",
"618 742 LINE SMOOTH",
"611 742 OFFCURVE",
"609 740 OFFCURVE",
"609 732 CURVE SMOOTH",
"609 600 LINE",
"559 700 OFFCURVE",
"472 752 OFFCURVE",
"355 752 CURVE SMOOTH",
"167 752 OFFCURVE",
"53 617 OFFCURVE",
"53 367 CURVE SMOOTH",
"53 121 OFFCURVE",
"165 -10 OFFCURVE",
"354 -10 CURVE SMOOTH",
"471 -10 OFFCURVE",
"559 41 OFFCURVE",
"609 140 CURVE",
"609 10 LINE SMOOTH",
"609 2 OFFCURVE",
"611 0 OFFCURVE",
"618 0 CURVE SMOOTH",
"1068 0 LINE SMOOTH",
"1073 0 OFFCURVE",
"1075 2 OFFCURVE",
"1075 7 CURVE SMOOTH",
"1075 33 LINE SMOOTH",
"1075 39 OFFCURVE",
"1073 40 OFFCURVE",
"1067 40 CURVE SMOOTH"
);
},
{
closed = 1;
nodes = (
"190 33 OFFCURVE",
"104 143 OFFCURVE",
"104 369 CURVE SMOOTH",
"104 597 OFFCURVE",
"190 709 OFFCURVE",
"355 709 CURVE SMOOTH",
"519 709 OFFCURVE",
"604 598 OFFCURVE",
"604 369 CURVE SMOOTH",
"604 142 OFFCURVE",
"521 33 OFFCURVE",
"356 33 CURVE SMOOTH"
);
}
);
width = 1155;
}
);
leftMetricsKey = O;
rightMetricsKey = E;
unicode = 0152;
},
{
color = 4;
glyphname = P;
lastChange = "2015-08-07 07:12:27 +0000";
layers = (
{
background = {
paths = (
{
closed = 1;
nodes = (
"717 664 OFFCURVE",
"580 742 OFFCURVE",
"410 742 CURVE SMOOTH",
"65 742 LINE SMOOTH",
"53 742 OFFCURVE",
"46 734 OFFCURVE",
"46 719 CURVE SMOOTH",
"42 25 LINE SMOOTH",
"42 8 OFFCURVE",
"48 0 OFFCURVE",
"68 0 CURVE SMOOTH",
"241 0 LINE SMOOTH",
"264 0 OFFCURVE",
"274 8 OFFCURVE",
"274 29 CURVE SMOOTH",
"274 265 LINE SMOOTH",
"274 272 OFFCURVE",
"277 276 OFFCURVE",
"286 276 CURVE SMOOTH",
"436 276 LINE SMOOTH",
"605 276 OFFCURVE",
"717 363 OFFCURVE",
"717 506 CURVE SMOOTH"
);
},
{
closed = 1;
nodes = (
"274 561 LINE SMOOTH",
"274 576 OFFCURVE",
"280 582 OFFCURVE",
"297 582 CURVE SMOOTH",
"396 582 LINE SMOOTH",
"442 582 OFFCURVE",
"479 554 OFFCURVE",
"479 507 CURVE SMOOTH",
"479 469 OFFCURVE",
"450 436 OFFCURVE",
"402 436 CURVE SMOOTH",
"291 436 LINE SMOOTH",
"278 436 OFFCURVE",
"274 443 OFFCURVE",
"274 458 CURVE SMOOTH"
);
}
);
};
layerId = "258ED206-D907-4350-8EBA-CBDDA1C16BF7";
name = Bold;
paths = (
{
closed = 1;
nodes = (
"710 664 OFFCURVE",
"573 742 OFFCURVE",
"409 742 CURVE SMOOTH",
"65 742 LINE SMOOTH",
"53 742 OFFCURVE",
"46 734 OFFCURVE",
"46 719 CURVE SMOOTH",
"46 25 LINE SMOOTH",
"46 8 OFFCURVE",
"52 0 OFFCURVE",
"72 0 CURVE SMOOTH",
"240 0 LINE SMOOTH",
"263 0 OFFCURVE",
"273 8 OFFCURVE",
"273 29 CURVE SMOOTH",
"273 265 LINE SMOOTH",
"273 272 OFFCURVE",
"276 276 OFFCURVE",
"285 276 CURVE SMOOTH",
"435 276 LINE SMOOTH",
"598 276 OFFCURVE",
"710 363 OFFCURVE",
"710 506 CURVE SMOOTH"
);
},
{
closed = 1;
nodes = (
"478 469 OFFCURVE",
"449 436 OFFCURVE",
"401 436 CURVE SMOOTH",
"290 436 LINE SMOOTH",
"277 436 OFFCURVE",
"273 443 OFFCURVE",
"273 458 CURVE SMOOTH",
"273 561 LINE SMOOTH",
"273 576 OFFCURVE",
"279 582 OFFCURVE",
"296 582 CURVE SMOOTH",
"395 582 LINE SMOOTH",
"441 582 OFFCURVE",
"478 554 OFFCURVE",
"478 509 CURVE SMOOTH"
);
}
);
width = 720;
},
{
background = {
paths = (
{
closed = 1;
nodes = (
"717 664 OFFCURVE",
"580 742 OFFCURVE",
"410 742 CURVE SMOOTH",
"65 742 LINE SMOOTH",
"53 742 OFFCURVE",
"46 734 OFFCURVE",
"46 719 CURVE SMOOTH",
"42 25 LINE SMOOTH",
"42 8 OFFCURVE",
"48 0 OFFCURVE",
"68 0 CURVE SMOOTH",
"241 0 LINE SMOOTH",
"264 0 OFFCURVE",
"274 8 OFFCURVE",
"274 29 CURVE SMOOTH",
"274 265 LINE SMOOTH",
"274 272 OFFCURVE",
"277 276 OFFCURVE",
"286 276 CURVE SMOOTH",
"436 276 LINE SMOOTH",
"605 276 OFFCURVE",
"717 363 OFFCURVE",
"717 506 CURVE SMOOTH"
);
},
{
closed = 1;
nodes = (
"274 561 LINE SMOOTH",
"274 576 OFFCURVE",
"280 582 OFFCURVE",
"297 582 CURVE SMOOTH",
"396 582 LINE SMOOTH",
"442 582 OFFCURVE",
"479 554 OFFCURVE",
"479 507 CURVE SMOOTH",
"479 469 OFFCURVE",
"450 436 OFFCURVE",
"402 436 CURVE SMOOTH",
"291 436 LINE SMOOTH",
"278 436 OFFCURVE",
"274 443 OFFCURVE",
"274 458 CURVE SMOOTH"
);
}
);
};
layerId = "91AB5BCA-6A50-42DA-B2F7-8181BF189245";
name = Light;
paths = (
{
closed = 1;
nodes = (
"603 685 OFFCURVE",
"493 742 OFFCURVE",
"337 742 CURVE SMOOTH",
"115 742 LINE SMOOTH",
"108 742 OFFCURVE",
"106 740 OFFCURVE",
"106 732 CURVE SMOOTH",
"106 8 LINE SMOOTH",
"106 3 OFFCURVE",
"109 0 OFFCURVE",
"114 0 CURVE SMOOTH",
"144 0 LINE SMOOTH",
"149 0 OFFCURVE",
"152 3 OFFCURVE",
"152 9 CURVE SMOOTH",
"152 336 LINE SMOOTH",
"152 342 OFFCURVE",
"154 345 OFFCURVE",
"160 345 CURVE SMOOTH",
"343 345 LINE",
"493 345 OFFCURVE",
"603 402 OFFCURVE",
"603 553 CURVE SMOOTH"
);
},
{
closed = 1;
nodes = (
"554 431 OFFCURVE",
"471 385 OFFCURVE",
"343 385 CURVE SMOOTH",
"159 385 LINE SMOOTH",
"154 385 OFFCURVE",
"152 388 OFFCURVE",
"152 395 CURVE SMOOTH",
"152 694 LINE SMOOTH",
"152 700 OFFCURVE",
"155 702 OFFCURVE",
"161 702 CURVE SMOOTH",
"336 702 LINE SMOOTH",
"471 702 OFFCURVE",
"554 664 OFFCURVE",
"554 553 CURVE SMOOTH"
);
}
);
width = 643;
}
);
leftMetricsKey = H;
unicode = 0050;
},
{
color = 4;
glyphname = Thorn;
lastChange = "2015-08-07 07:12:27 +0000";
layers = (
{
layerId = "258ED206-D907-4350-8EBA-CBDDA1C16BF7";
name = Bold;
paths = (
{
closed = 1;
nodes = (
"710 530 OFFCURVE",
"573 608 OFFCURVE",
"409 608 CURVE SMOOTH",
"283 608 LINE SMOOTH",
"276 608 OFFCURVE",
"273 612 OFFCURVE",
"273 620 CURVE SMOOTH",
"273 721 LINE SMOOTH",
"273 734 OFFCURVE",
"267 742 OFFCURVE",
"255 742 CURVE SMOOTH",
"65 742 LINE SMOOTH",
"54 742 OFFCURVE",
"46 734 OFFCURVE",
"46 719 CURVE SMOOTH",
"46 25 LINE SMOOTH",
"46.191 7.752 OFFCURVE",
"52.313 0 OFFCURVE",
"72 0 CURVE SMOOTH",
"240 0 LINE SMOOTH",
"263 0 OFFCURVE",
"273 8 OFFCURVE",
"273 29 CURVE SMOOTH",
"273 131 LINE SMOOTH",
"273 138 OFFCURVE",
"276 142 OFFCURVE",
"285 142 CURVE SMOOTH",
"435 142 LINE SMOOTH",
"598 142 OFFCURVE",
"710 229 OFFCURVE",
"710 372 CURVE SMOOTH"
);
},
{
closed = 1;
nodes = (
"478 335 OFFCURVE",
"449 302 OFFCURVE",
"401 302 CURVE SMOOTH",
"290 302 LINE SMOOTH",
"277 302 OFFCURVE",
"273 309 OFFCURVE",
"273 324 CURVE SMOOTH",
"273 427 LINE SMOOTH",
"273 442 OFFCURVE",
"279 448 OFFCURVE",
"296 448 CURVE SMOOTH",
"395 448 LINE SMOOTH",
"441 448 OFFCURVE",
"478 420 OFFCURVE",
"478 375 CURVE SMOOTH"
);
}
);
width = 720;
},
{
layerId = "91AB5BCA-6A50-42DA-B2F7-8181BF189245";
name = Light;
paths = (
{
closed = 1;
nodes = (
"603 522 OFFCURVE",
"493 579 OFFCURVE",
"337 579 CURVE SMOOTH",
"158 579 LINE SMOOTH",
"154 579 OFFCURVE",
"152 581 OFFCURVE",
"152 584 CURVE SMOOTH",
"152 732 LINE SMOOTH",
"152 740 OFFCURVE",
"150 742 OFFCURVE",
"143 742 CURVE SMOOTH",
"115 742 LINE SMOOTH",
"108 742 OFFCURVE",
"106 740 OFFCURVE",
"106 732 CURVE SMOOTH",
"106 8 LINE SMOOTH",
"106 3 OFFCURVE",
"109 0 OFFCURVE",
"114 0 CURVE SMOOTH",
"144 0 LINE SMOOTH",
"149 0 OFFCURVE",
"152 3 OFFCURVE",
"152 9 CURVE SMOOTH",
"152 173 LINE SMOOTH",
"152 179 OFFCURVE",
"154 182 OFFCURVE",
"160 182 CURVE SMOOTH",
"343 182 LINE SMOOTH",
"493 182 OFFCURVE",
"603 239 OFFCURVE",
"603 390 CURVE SMOOTH"
);
},
{
closed = 1;
nodes = (
"554 268 OFFCURVE",
"471 222 OFFCURVE",
"343 222 CURVE SMOOTH",
"159 222 LINE SMOOTH",
"154 222 OFFCURVE",
"152 225 OFFCURVE",
"152 232 CURVE SMOOTH",
"152 531 LINE SMOOTH",
"152 537 OFFCURVE",
"155 539 OFFCURVE",
"161 539 CURVE SMOOTH",
"336 539 LINE SMOOTH",
"471 539 OFFCURVE",
"554 501 OFFCURVE",
"554 390 CURVE SMOOTH"
);
}
);
width = 643;
}
);
unicode = 00DE;
},
{
color = 4;
glyphname = Q;
lastChange = "2015-08-07 07:12:27 +0000";
layers = (
{
background = {
paths = (
{
closed = 1;
nodes = (
"30 138 OFFCURVE",
"169 -8 OFFCURVE",
"390 -8 CURVE SMOOTH",
"416 -8 OFFCURVE",
"437 -7 OFFCURVE",
"461 -4 CURVE SMOOTH",
"468 -3 OFFCURVE",
"473 -4 OFFCURVE",
"477 -8 CURVE SMOOTH",
"500 -39 OFFCURVE",
"520 -60 OFFCURVE",
"550 -83 CURVE SMOOTH",
"587 -110 OFFCURVE",
"658 -128 OFFCURVE",
"705 -128 CURVE SMOOTH",
"737 -128 OFFCURVE",
"749 -122 OFFCURVE",
"749 -97 CURVE SMOOTH",
"749 13 LINE SMOOTH",
"749 20 OFFCURVE",
"746 28 OFFCURVE",
"732 30 CURVE SMOOTH",
"689 36 OFFCURVE",
"642 61 OFFCURVE",
"642 78 CURVE SMOOTH",
"642 82 OFFCURVE",
"642 84 OFFCURVE",
"644 86 CURVE",
"711 152 OFFCURVE",
"749 249 OFFCURVE",
"749 369 CURVE SMOOTH",
"749 601 OFFCURVE",
"606 753 OFFCURVE",
"390 753 CURVE SMOOTH",
"173 753 OFFCURVE",
"30 601 OFFCURVE",
"30 369 CURVE SMOOTH"
);
},
{
closed = 1;
nodes = (
"268 532 OFFCURVE",
"303 599 OFFCURVE",
"390 599 CURVE SMOOTH",
"476 599 OFFCURVE",
"511 532 OFFCURVE",
"511 367 CURVE SMOOTH",
"511 207 OFFCURVE",
"478 147 OFFCURVE",
"390 147 CURVE SMOOTH",
"301 147 OFFCURVE",
"268 207 OFFCURVE",
"268 367 CURVE SMOOTH"
);
}
);
};
layerId = "258ED206-D907-4350-8EBA-CBDDA1C16BF7";
name = Bold;
paths = (
{
closed = 1;
nodes = (
"34 138 OFFCURVE",
"173 -10 OFFCURVE",
"394 -10 CURVE SMOOTH",
"420 -10 OFFCURVE",
"441 -9 OFFCURVE",
"465 -6 CURVE SMOOTH",
"472 -5 OFFCURVE",
"477 -6 OFFCURVE",
"480 -10 CURVE SMOOTH",
"537 -84 OFFCURVE",
"609 -128 OFFCURVE",
"709 -128 CURVE SMOOTH",
"741 -128 OFFCURVE",
"753 -122 OFFCURVE",
"753 -97 CURVE SMOOTH",
"753 13 LINE SMOOTH",
"753 20 OFFCURVE",
"750 28 OFFCURVE",
"736 30 CURVE SMOOTH",
"693 36 OFFCURVE",
"646 61 OFFCURVE",
"646 78 CURVE SMOOTH",
"646 82 OFFCURVE",
"646 84 OFFCURVE",
"648 86 CURVE",
"715 152 OFFCURVE",
"753 249 OFFCURVE",
"753 369 CURVE SMOOTH",
"753 601 OFFCURVE",
"610 752 OFFCURVE",
"394 752 CURVE SMOOTH",
"177 752 OFFCURVE",
"34 601 OFFCURVE",
"34 369 CURVE SMOOTH"
);
},
{
closed = 1;
nodes = (
"272 532 OFFCURVE",
"307 598 OFFCURVE",
"394 598 CURVE SMOOTH",
"480 598 OFFCURVE",
"515 532 OFFCURVE",
"515 367 CURVE SMOOTH",
"515 206 OFFCURVE",
"482 146 OFFCURVE",
"394 146 CURVE SMOOTH",
"305 146 OFFCURVE",
"272 206 OFFCURVE",
"272 367 CURVE SMOOTH"
);
}
);
width = 787;
},
{
background = {
paths = (
{
closed = 1;
nodes = (
"542 -10 OFFCURVE",
"655 122 OFFCURVE",
"655 369 CURVE SMOOTH",
"655 618 OFFCURVE",
"542 752 OFFCURVE",
"355 752 CURVE SMOOTH",
"167 752 OFFCURVE",
"53 617 OFFCURVE",
"53 367 CURVE SMOOTH",
"53 121 OFFCURVE",
"165 -10 OFFCURVE",
"354 -10 CURVE SMOOTH"
);
},
{
closed = 1;
nodes = (
"190 33 OFFCURVE",
"102 143 OFFCURVE",
"102 369 CURVE SMOOTH",
"102 597 OFFCURVE",
"190 709 OFFCURVE",
"355 709 CURVE SMOOTH",
"519 709 OFFCURVE",
"606 598 OFFCURVE",
"606 369 CURVE SMOOTH",
"606 142 OFFCURVE",
"521 33 OFFCURVE",
"356 33 CURVE SMOOTH"
);
}
);
};
layerId = "91AB5BCA-6A50-42DA-B2F7-8181BF189245";
name = Light;
paths = (
{
closed = 1;
nodes = (
"53 116 OFFCURVE",
"170 -10 OFFCURVE",
"354 -10 CURVE SMOOTH",
"380 -10 OFFCURVE",
"410 -7 OFFCURVE",
"435 -1 CURVE SMOOTH",
"442 1 OFFCURVE",
"447 -1 OFFCURVE",
"450 -5 CURVE SMOOTH",
"515 -96 OFFCURVE",
"581 -122 OFFCURVE",
"625 -122 CURVE SMOOTH",
"639 -122 OFFCURVE",
"645 -120 OFFCURVE",
"645 -109 CURVE SMOOTH",
"645 -87 LINE SMOOTH",
"645 -84 OFFCURVE",
"644 -81 OFFCURVE",
"638 -80 CURVE SMOOTH",
"563 -70 OFFCURVE",
"496 -11 OFFCURVE",
"496 16 CURVE SMOOTH",
"496 20 OFFCURVE",
"497 22 OFFCURVE",
"502 25 CURVE SMOOTH",
"599 83 OFFCURVE",
"655 189 OFFCURVE",
"655 369 CURVE SMOOTH",
"655 620 OFFCURVE",
"542 752 OFFCURVE",
"354 752 CURVE SMOOTH",
"166 752 OFFCURVE",
"53 620 OFFCURVE",
"53 369 CURVE SMOOTH"
);
},
{
closed = 1;
nodes = (
"102 592 OFFCURVE",
"187 709 OFFCURVE",
"354 709 CURVE SMOOTH",
"521 709 OFFCURVE",
"606 592 OFFCURVE",
"606 369 CURVE SMOOTH",
"606 141 OFFCURVE",
"518 33 OFFCURVE",
"354 33 CURVE SMOOTH",
"190 33 OFFCURVE",
"102 141 OFFCURVE",
"102 367 CURVE SMOOTH"
);
}
);
width = 708;
}
);
leftMetricsKey = O;
rightMetricsKey = O;
unicode = 0051;
},
{
color = 4;
glyphname = R;
lastChange = "2015-08-07 07:12:27 +0000";
layers = (
{
anchors = (
{
name = bottom;
position = "{362, 0}";
},
{
name = top;
position = "{352, 742}";
}
);
background = {
paths = (
{
closed = 1;
nodes = (
"580 324 LINE SMOOTH",
"577 332 OFFCURVE",
"577 340 OFFCURVE",
"584 343 CURVE SMOOTH",
"663 373 OFFCURVE",
"718 443 OFFCURVE",
"718 528 CURVE SMOOTH",
"718 664 OFFCURVE",
"605 742 OFFCURVE",
"410 742 CURVE SMOOTH",
"65 742 LINE SMOOTH",
"53 742 OFFCURVE",
"46 734 OFFCURVE",
"46 719 CURVE SMOOTH",
"42 25 LINE SMOOTH",
"42 8 OFFCURVE",
"48 0 OFFCURVE",
"68 0 CURVE SMOOTH",
"241 0 LINE SMOOTH",
"264 0 OFFCURVE",
"274 8 OFFCURVE",
"274 29 CURVE SMOOTH",
"274 296 LINE SMOOTH",
"274 299 OFFCURVE",
"277 307 OFFCURVE",
"286 307 CURVE SMOOTH",
"333 307 LINE SMOOTH",
"352 307 OFFCURVE",
"360 302 OFFCURVE",
"364 291 CURVE SMOOTH",
"458 21 LINE",
"462 7 OFFCURVE",
"471 0 OFFCURVE",
"485 0 CURVE SMOOTH",
"688 0 LINE SMOOTH",
"704 0 OFFCURVE",
"713 15 OFFCURVE",
"706 32 CURVE SMOOTH"
);
},
{
closed = 1;
nodes = (
"291 456 LINE SMOOTH",
"278 456 OFFCURVE",
"274 462 OFFCURVE",
"274 477 CURVE SMOOTH",
"274 574 LINE SMOOTH",
"274 589 OFFCURVE",
"280 594 OFFCURVE",
"297 594 CURVE SMOOTH",
"396 594 LINE SMOOTH",
"442 594 OFFCURVE",
"481 567 OFFCURVE",
"481 523 CURVE SMOOTH",
"481 485 OFFCURVE",
"453 456 OFFCURVE",
"402 456 CURVE SMOOTH"
);
}
);
};
layerId = "258ED206-D907-4350-8EBA-CBDDA1C16BF7";
name = Bold;
paths = (
{
closed = 1;
nodes = (
"579 324 LINE SMOOTH",
"576 332 OFFCURVE",
"576 340 OFFCURVE",
"583 343 CURVE SMOOTH",
"659 373 OFFCURVE",
"714 444 OFFCURVE",
"714 535 CURVE SMOOTH",
"714 665 OFFCURVE",
"601 742 OFFCURVE",
"409 742 CURVE SMOOTH",
"65 742 LINE SMOOTH",
"53 742 OFFCURVE",
"46 734 OFFCURVE",
"46 719 CURVE SMOOTH",
"46 25 LINE SMOOTH",
"46 8 OFFCURVE",
"52 0 OFFCURVE",
"72 0 CURVE SMOOTH",
"240 0 LINE SMOOTH",
"263 0 OFFCURVE",
"273 8 OFFCURVE",
"273 29 CURVE SMOOTH",
"273 296 LINE SMOOTH",
"273 299 OFFCURVE",
"276 307 OFFCURVE",
"285 307 CURVE SMOOTH",
"341 307 LINE SMOOTH",
"360 307 OFFCURVE",
"368 302 OFFCURVE",
"372 291 CURVE SMOOTH",
"466 21 LINE SMOOTH",
"470 7 OFFCURVE",
"479 0 OFFCURVE",
"493 0 CURVE SMOOTH",
"687 0 LINE SMOOTH",
"703 0 OFFCURVE",
"712 15 OFFCURVE",
"705 32 CURVE SMOOTH"
);
},
{
closed = 1;
nodes = (
"290 456 LINE SMOOTH",
"277 456 OFFCURVE",
"273 462 OFFCURVE",
"273 477 CURVE SMOOTH",
"273 574 LINE SMOOTH",
"273 589 OFFCURVE",
"279 594 OFFCURVE",
"296 594 CURVE SMOOTH",
"394 594 LINE SMOOTH",
"440 594 OFFCURVE",
"479 567 OFFCURVE",
"479 523 CURVE SMOOTH",
"479 485 OFFCURVE",
"451 456 OFFCURVE",
"400 456 CURVE SMOOTH"
);
}
);
width = 724;
},
{
anchors = (
{
name = bottom;
position = "{333, 0}";
},
{
name = top;
position = "{326, 742}";
}
);
background = {
paths = (
{
closed = 1;
nodes = (
"603 685 OFFCURVE",
"493 742 OFFCURVE",
"337 742 CURVE SMOOTH",
"115 742 LINE SMOOTH",
"108 742 OFFCURVE",
"106 740 OFFCURVE",
"106 732 CURVE SMOOTH",
"106 8 LINE SMOOTH",
"106 3 OFFCURVE",
"109 0 OFFCURVE",
"114 0 CURVE SMOOTH",
"144 0 LINE SMOOTH",
"149 0 OFFCURVE",
"152 3 OFFCURVE",
"152 9 CURVE SMOOTH",
"152 343 LINE SMOOTH",
"152 342 OFFCURVE",
"154 375 OFFCURVE",
"160 375 CURVE SMOOTH",
"343 375 LINE",
"493 375 OFFCURVE",
"603 432 OFFCURVE",
"603 568 CURVE SMOOTH"
);
},
{
closed = 1;
nodes = (
"554 461 OFFCURVE",
"471 415 OFFCURVE",
"343 415 CURVE SMOOTH",
"159 415 LINE SMOOTH",
"154 415 OFFCURVE",
"152 418 OFFCURVE",
"152 425 CURVE SMOOTH",
"152 694 LINE SMOOTH",
"152 700 OFFCURVE",
"155 702 OFFCURVE",
"161 702 CURVE SMOOTH",
"336 702 LINE SMOOTH",
"471 702 OFFCURVE",
"554 664 OFFCURVE",
"554 568 CURVE SMOOTH"
);
}
);
};
layerId = "91AB5BCA-6A50-42DA-B2F7-8181BF189245";
name = Light;
paths = (
{
closed = 1;
nodes = (
"447 368 LINE SMOOTH",
"446 371 OFFCURVE",
"447 374 OFFCURVE",
"451 375 CURVE SMOOTH",
"520 396 OFFCURVE",
"603 443 OFFCURVE",
"603 565 CURVE SMOOTH",
"603 682 OFFCURVE",
"519 742 OFFCURVE",
"375 742 CURVE SMOOTH",
"115 742 LINE SMOOTH",
"108 742 OFFCURVE",
"106 740 OFFCURVE",
"106 732 CURVE SMOOTH",
"106 9 LINE SMOOTH",
"106 3 OFFCURVE",
"108 0 OFFCURVE",
"116 0 CURVE SMOOTH",
"142 0 LINE SMOOTH",
"150 0 OFFCURVE",
"152 3 OFFCURVE",
"152 11 CURVE SMOOTH",
"152 354 LINE SMOOTH",
"152 361 OFFCURVE",
"155 365 OFFCURVE",
"164 365 CURVE SMOOTH",
"380 365 LINE SMOOTH",
"393 365 OFFCURVE",
"399 362 OFFCURVE",
"401 355 CURVE SMOOTH",
"528 9 LINE SMOOTH",
"530 3 OFFCURVE",
"533 0 OFFCURVE",
"540 0 CURVE SMOOTH",
"569 0 LINE SMOOTH",
"576 0 OFFCURVE",
"580 7 OFFCURVE",
"577 14 CURVE SMOOTH"
);
},
{
closed = 1;
nodes = (
"159 405 LINE SMOOTH",
"154 405 OFFCURVE",
"152 408 OFFCURVE",
"152 414 CURVE SMOOTH",
"152 694 LINE SMOOTH",
"152 700 OFFCURVE",
"155 702 OFFCURVE",
"163 702 CURVE SMOOTH",
"374 702 LINE SMOOTH",
"495 702 OFFCURVE",
"554 655 OFFCURVE",
"554 564 CURVE SMOOTH",
"554 448 OFFCURVE",
"483 405 OFFCURVE",
"340 405 CURVE SMOOTH"
);
}
);
width = 653;
}
);
leftMetricsKey = H;
unicode = 0052;
},
{
color = 4;
glyphname = S;
lastChange = "2015-09-05 20:12:57 +0000";
layers = (
{
anchors = (
{
name = bottom;
position = "{343, 0}";
},
{
name = top;
position = "{343, 742}";
}
);
background = {
paths = (
{
closed = 1;
nodes = (
"501 529 OFFCURVE",
"507 528 OFFCURVE",
"517 535 CURVE SMOOTH",
"626 614 LINE SMOOTH",
"639 624 OFFCURVE",
"632 635 OFFCURVE",
"626 644 CURVE SMOOTH",
"580 709 OFFCURVE",
"467 754 OFFCURVE",
"346 754 CURVE SMOOTH",
"159 754 OFFCURVE",
"40 645 OFFCURVE",
"40 515 CURVE SMOOTH",
"40 410 OFFCURVE",
"116 323 OFFCURVE",
"236 293 CURVE SMOOTH",
"388 256 LINE SMOOTH",
"431 246 OFFCURVE",
"451 226 OFFCURVE",
"451 202 CURVE SMOOTH",
"451 166 OFFCURVE",
"403 144 OFFCURVE",
"340 144 CURVE SMOOTH",
"251 144 OFFCURVE",
"212 167 OFFCURVE",
"168 224 CURVE SMOOTH",
"160 234 OFFCURVE",
"148 238 OFFCURVE",
"130 226 CURVE SMOOTH",
"27 155 LINE SMOOTH",
"13 144 OFFCURVE",
"13 136 OFFCURVE",
"21 122 CURVE SMOOTH",
"68 43 OFFCURVE",
"201 -10 OFFCURVE",
"347 -10 CURVE SMOOTH",
"544 -10 OFFCURVE",
"667 86 OFFCURVE",
"667 234 CURVE SMOOTH",
"667 337 OFFCURVE",
"609 421 OFFCURVE",
"484 452 CURVE SMOOTH",
"318 495 LINE SMOOTH",
"268 507 OFFCURVE",
"254 528 OFFCURVE",
"254 546 CURVE SMOOTH",
"254 571 OFFCURVE",
"281 597 OFFCURVE",
"356 597 CURVE SMOOTH",
"434 597 OFFCURVE",
"463 569 OFFCURVE",
"487 543 CURVE SMOOTH"
);
}
);
};
layerId = "258ED206-D907-4350-8EBA-CBDDA1C16BF7";
name = Bold;
paths = (
{
closed = 1;
nodes = (
"496 529 OFFCURVE",
"502 528 OFFCURVE",
"512 535 CURVE SMOOTH",
"621 614 LINE SMOOTH",
"634 624 OFFCURVE",
"627 635 OFFCURVE",
"621 644 CURVE SMOOTH",
"575 709 OFFCURVE",
"462 752 OFFCURVE",
"343 752 CURVE SMOOTH",
"154 752 OFFCURVE",
"35 645 OFFCURVE",
"35 515 CURVE SMOOTH",
"35 410 OFFCURVE",
"111 323 OFFCURVE",
"231 293 CURVE SMOOTH",
"383 256 LINE SMOOTH",
"426 246 OFFCURVE",
"446 226 OFFCURVE",
"446 202 CURVE SMOOTH",
"446 165 OFFCURVE",
"398 144 OFFCURVE",
"325 144 CURVE SMOOTH",
"246 144 OFFCURVE",
"207 167 OFFCURVE",
"163 224 CURVE SMOOTH",
"155 234 OFFCURVE",
"143 238 OFFCURVE",
"125 226 CURVE SMOOTH",
"22 155 LINE SMOOTH",
"8 144 OFFCURVE",
"8 136 OFFCURVE",
"16 122 CURVE SMOOTH",
"63 43 OFFCURVE",
"196 -10 OFFCURVE",
"342 -10 CURVE SMOOTH",
"539 -10 OFFCURVE",
"662 86 OFFCURVE",
"662 234 CURVE SMOOTH",
"662 337 OFFCURVE",
"604 421 OFFCURVE",
"479 452 CURVE SMOOTH",
"313 495 LINE SMOOTH",
"263 507 OFFCURVE",
"249 528 OFFCURVE",
"249 546 CURVE SMOOTH",
"249 571 OFFCURVE",
"276 597 OFFCURVE",
"351 597 CURVE SMOOTH",
"429 597 OFFCURVE",
"458 569 OFFCURVE",
"482 543 CURVE SMOOTH"
);
}
);
width = 686;
},
{
anchors = (
{
name = bottom;
position = "{304, 0}";
},
{
name = top;
position = "{300, 742}";
}
);
layerId = "91AB5BCA-6A50-42DA-B2F7-8181BF189245";
name = Light;
paths = (
{
closed = 1;
nodes = (
"489 623 OFFCURVE",
"491 621 OFFCURVE",
"496 625 CURVE SMOOTH",
"520 642 LINE SMOOTH",
"526 647 OFFCURVE",
"524 652 OFFCURVE",
"520 656 CURVE SMOOTH",
"463 716 OFFCURVE",
"397 752 OFFCURVE",
"303 752 CURVE SMOOTH",
"166 752 OFFCURVE",
"67 674 OFFCURVE",
"67 560 CURVE SMOOTH",
"67 485 OFFCURVE",
"111 423 OFFCURVE",
"206 383 CURVE SMOOTH",
"343 325 LINE SMOOTH",
"443 283 OFFCURVE",
"485 241 OFFCURVE",
"485 170 CURVE SMOOTH",
"485 76 OFFCURVE",
"410 32 OFFCURVE",
"288 32 CURVE SMOOTH",
"189 32 OFFCURVE",
"133 64 OFFCURVE",
"78 139 CURVE SMOOTH",
"75 143 OFFCURVE",
"67 143 OFFCURVE",
"62 140 CURVE SMOOTH",
"44 128 LINE SMOOTH",
"39 125 OFFCURVE",
"38 120 OFFCURVE",
"42 113 CURVE SMOOTH",
"98 27 OFFCURVE",
"174 -10 OFFCURVE",
"293 -10 CURVE SMOOTH",
"443 -10 OFFCURVE",
"534 63 OFFCURVE",
"534 174 CURVE SMOOTH",
"534 264 OFFCURVE",
"474 322 OFFCURVE",
"360 370 CURVE SMOOTH",
"236 420 LINE SMOOTH",
"149 460 OFFCURVE",
"116 501 OFFCURVE",
"116 559 CURVE SMOOTH",
"116 646 OFFCURVE",
"191 709 OFFCURVE",
"303 709 CURVE SMOOTH",
"383 709 OFFCURVE",
"445 677 OFFCURVE",
"483 630 CURVE SMOOTH"
);
}
);
width = 574;
}
);
unicode = 0053;
},
{
color = 4;
glyphname = Schwa;
lastChange = "2015-08-07 07:12:27 +0000";
layers = (
{
layerId = "258ED206-D907-4350-8EBA-CBDDA1C16BF7";
name = Bold;
paths = (
{
closed = 1;
nodes = (
"510 431 OFFCURVE",
"503 425 OFFCURVE",
"490 425 CURVE SMOOTH",
"57 425 LINE SMOOTH",
"35 425 OFFCURVE",
"34 414 OFFCURVE",
"34 392 CURVE SMOOTH",
"34 136 OFFCURVE",
"155 -10 OFFCURVE",
"388 -10 CURVE SMOOTH",
"581 -10 OFFCURVE",
"750 158 OFFCURVE",
"750 380 CURVE SMOOTH",
"750 599 OFFCURVE",
"613 752 OFFCURVE",
"391 752 CURVE SMOOTH",
"245 752 OFFCURVE",
"139 689 OFFCURVE",
"77 567 CURVE SMOOTH",
"69 551 OFFCURVE",
"70 542 OFFCURVE",
"82 536 CURVE SMOOTH",
"220 468 LINE SMOOTH",
"237 459 OFFCURVE",
"243 462 OFFCURVE",
"247 469 CURVE SMOOTH",
"293 544 OFFCURVE",
"331 578 OFFCURVE",
"393 578 CURVE SMOOTH",
"491 578 OFFCURVE",
"510 506 OFFCURVE",
"510 447 CURVE SMOOTH"
);
},
{
closed = 1;
nodes = (
"496 192 OFFCURVE",
"467 146 OFFCURVE",
"386 146 CURVE SMOOTH",
"318 146 OFFCURVE",
"277 201 OFFCURVE",
"277 267 CURVE SMOOTH",
"277 282 OFFCURVE",
"282 285 OFFCURVE",
"299 285 CURVE SMOOTH",
"508 284 LINE"
);
}
);
width = 784;
},
{
layerId = "91AB5BCA-6A50-42DA-B2F7-8181BF189245";
name = Light;
paths = (
{
closed = 1;
nodes = (
"602 381 OFFCURVE",
"601 380 OFFCURVE",
"596 380 CURVE SMOOTH",
"61 380 LINE SMOOTH",
"53 380 OFFCURVE",
"53 375 OFFCURVE",
"53 369 CURVE SMOOTH",
"53 174 OFFCURVE",
"119 -10 OFFCURVE",
"354 -10 CURVE SMOOTH",
"583 -10 OFFCURVE",
"654 180 OFFCURVE",
"654 366 CURVE SMOOTH",
"654 531 OFFCURVE",
"604 752 OFFCURVE",
"354 752 CURVE SMOOTH",
"126 752 OFFCURVE",
"82 560 OFFCURVE",
"67 522 CURVE SMOOTH",
"65 517 OFFCURVE",
"64 514 OFFCURVE",
"68 513 CURVE SMOOTH",
"106 500 LINE SMOOTH",
"110 499 OFFCURVE",
"112 498 OFFCURVE",
"113 500 CURVE SMOOTH",
"127 531 OFFCURVE",
"145 709 OFFCURVE",
"354 709 CURVE SMOOTH",
"572 709 OFFCURVE",
"602 504 OFFCURVE",
"602 386 CURVE SMOOTH"
);
},
{
closed = 1;
nodes = (
"599 191 OFFCURVE",
"550 33 OFFCURVE",
"354 33 CURVE SMOOTH",
"157 33 OFFCURVE",
"105 192 OFFCURVE",
"105 332 CURVE SMOOTH",
"105 336 OFFCURVE",
"107 338 OFFCURVE",
"113 338 CURVE SMOOTH",
"602 338 LINE"
);
}
);
width = 707;
}
);
leftMetricsKey = O;
rightMetricsKey = O;
unicode = 018F;
},
{
color = 4;
glyphname = T;
lastChange = "2015-08-07 07:12:27 +0000";
layers = (
{
anchors = (
{
name = bottom;
position = "{344, 0}";
},
{
name = top;
position = "{344, 742}";
}
);
background = {
paths = (
{
closed = 1;
nodes = (
"39 742 LINE SMOOTH",
"22 742 OFFCURVE",
"14 732 OFFCURVE",
"14 719 CURVE SMOOTH",
"14 600 LINE SMOOTH",
"14 586 OFFCURVE",
"23 581 OFFCURVE",
"37 581 CURVE SMOOTH",
"215 581 LINE SMOOTH",
"223 581 OFFCURVE",
"226 577 OFFCURVE",
"226 567 CURVE SMOOTH",
"226 20 LINE SMOOTH",
"226 7 OFFCURVE",
"233 0 OFFCURVE",
"244 0 CURVE SMOOTH",
"431 0 LINE SMOOTH",
"442 0 OFFCURVE",
"450 7 OFFCURVE",
"450 22 CURVE SMOOTH",
"453 571 LINE",
"454 578 OFFCURVE",
"457 581 OFFCURVE",
"465 581 CURVE SMOOTH",
"644 581 LINE SMOOTH",
"657 581 OFFCURVE",
"666 586 OFFCURVE",
"666 600 CURVE SMOOTH",
"666 719 LINE SMOOTH",
"666 732 OFFCURVE",
"658 742 OFFCURVE",
"641 742 CURVE SMOOTH"
);
}
);
};
layerId = "258ED206-D907-4350-8EBA-CBDDA1C16BF7";
name = Bold;
paths = (
{
closed = 1;
nodes = (
"20 586 OFFCURVE",
"29 581 OFFCURVE",
"43 581 CURVE SMOOTH",
"219 581 LINE SMOOTH",
"227 581 OFFCURVE",
"230 577 OFFCURVE",
"230 567 CURVE SMOOTH",
"230 20 LINE SMOOTH",
"230 7 OFFCURVE",
"237 0 OFFCURVE",
"248 0 CURVE SMOOTH",
"438 0 LINE SMOOTH",
"449 0 OFFCURVE",
"457 7 OFFCURVE",
"457 22 CURVE SMOOTH",
"457 571 LINE SMOOTH",
"457 578 OFFCURVE",
"461 581 OFFCURVE",
"469 581 CURVE SMOOTH",
"646 581 LINE SMOOTH",
"659 581 OFFCURVE",
"668 586 OFFCURVE",
"668 600 CURVE SMOOTH",
"668 719 LINE SMOOTH",
"668 732 OFFCURVE",
"660 742 OFFCURVE",
"643 742 CURVE SMOOTH",
"45 742 LINE SMOOTH",
"28 742 OFFCURVE",
"20 732 OFFCURVE",
"20 719 CURVE SMOOTH",
"20 600 LINE SMOOTH"
);
}
);
width = 688;
},
{
anchors = (
{
name = bottom;
position = "{302, 0}";
},
{
name = top;
position = "{302, 742}";
}
);
layerId = "91AB5BCA-6A50-42DA-B2F7-8181BF189245";
name = Light;
paths = (
{
closed = 1;
nodes = (
"47 701 OFFCURVE",
"49 700 OFFCURVE",
"55 700 CURVE SMOOTH",
"269 700 LINE SMOOTH",
"276 700 OFFCURVE",
"278 699 OFFCURVE",
"278 691 CURVE SMOOTH",
"278 10 LINE SMOOTH",
"278 2 OFFCURVE",
"280 0 OFFCURVE",
"287 0 CURVE SMOOTH",
"315 0 LINE SMOOTH",
"322 0 OFFCURVE",
"324 2 OFFCURVE",
"324 10 CURVE SMOOTH",
"324 691 LINE SMOOTH",
"324 699 OFFCURVE",
"326 700 OFFCURVE",
"333 700 CURVE SMOOTH",
"528 700 LINE SMOOTH",
"534 700 OFFCURVE",
"536 701 OFFCURVE",
"536 707 CURVE SMOOTH",
"536 735 LINE SMOOTH",
"536 740 OFFCURVE",
"534 742 OFFCURVE",
"529 742 CURVE SMOOTH",
"54 742 LINE SMOOTH",
"49 742 OFFCURVE",
"47 740 OFFCURVE",
"47 735 CURVE SMOOTH",
"47 707 LINE SMOOTH"
);
}
);
width = 583;
}
);
unicode = 0054;
},
{
color = 4;
glyphname = Tbar;
lastChange = "2015-08-07 07:12:27 +0000";
layers = (
{
components = (
{
name = T;
}
);
layerId = "258ED206-D907-4350-8EBA-CBDDA1C16BF7";
name = Bold;
paths = (
{
closed = 1;
nodes = (
"585 398 OFFCURVE",
"579 405 OFFCURVE",
"569 405 CURVE SMOOTH",
"114 405 LINE SMOOTH",
"104 405 OFFCURVE",
"98 398 OFFCURVE",
"98 385 CURVE SMOOTH",
"98 319 LINE SMOOTH",
"98 304 OFFCURVE",
"103 297 OFFCURVE",
"120 297 CURVE SMOOTH",
"556 297 LINE SMOOTH",
"576 297 OFFCURVE",
"585 304 OFFCURVE",
"585 321 CURVE SMOOTH",
"585 387 LINE SMOOTH"
);
}
);
width = 688;
},
{
components = (
{
name = T;
}
);
layerId = "91AB5BCA-6A50-42DA-B2F7-8181BF189245";
name = Light;
paths = (
{
closed = 1;
nodes = (
"484 402 OFFCURVE",
"482 405 OFFCURVE",
"477 405 CURVE SMOOTH",
"125 405 LINE SMOOTH",
"120 405 OFFCURVE",
"118 402 OFFCURVE",
"118 396 CURVE SMOOTH",
"118 370 LINE SMOOTH",
"118 363 OFFCURVE",
"120 360 OFFCURVE",
"128 360 CURVE SMOOTH",
"471 360 LINE SMOOTH",
"480 360 OFFCURVE",
"484 363 OFFCURVE",
"484 371 CURVE SMOOTH",
"484 397 LINE SMOOTH"
);
}
);
width = 583;
}
);
leftMetricsKey = T;
rightMetricsKey = T;
unicode = 0166;
},
{
color = 4;
glyphname = U;
lastChange = "2015-08-07 07:12:27 +0000";
layers = (
{
anchors = (
{
name = ogonek;
position = "{472, 10}";
},
{
name = top;
position = "{360, 742}";
}
);
background = {
paths = (
{
closed = 1;
nodes = (
"684 721 LINE SMOOTH",
"684 734 OFFCURVE",
"678 742 OFFCURVE",
"666 742 CURVE SMOOTH",
"520 742 LINE SMOOTH",
"508 742 OFFCURVE",
"501 734 OFFCURVE",
"501 719 CURVE SMOOTH",
"497 290 LINE SMOOTH",
"495 179 OFFCURVE",
"446 147 OFFCURVE",
"385 147 CURVE SMOOTH",
"320 147 OFFCURVE",
"271 185 OFFCURVE",
"271 287 CURVE SMOOTH",
"271 721 LINE SMOOTH",
"271 734 OFFCURVE",
"265 742 OFFCURVE",
"253 742 CURVE SMOOTH",
"62 742 LINE SMOOTH",
"51 742 OFFCURVE",
"43 734 OFFCURVE",
"43 719 CURVE SMOOTH",
"38 311 LINE SMOOTH",
"36 102 OFFCURVE",
"125 -12 OFFCURVE",
"364 -12 CURVE SMOOTH",
"555 -12 OFFCURVE",
"684 60 OFFCURVE",
"684 291 CURVE SMOOTH"
);
}
);
};
layerId = "258ED206-D907-4350-8EBA-CBDDA1C16BF7";
name = Bold;
paths = (
{
closed = 1;
nodes = (
"680 721 LINE SMOOTH",
"680 734 OFFCURVE",
"674 742 OFFCURVE",
"662 742 CURVE SMOOTH",
"512 742 LINE SMOOTH",
"500 742 OFFCURVE",
"493 734 OFFCURVE",
"493 719 CURVE SMOOTH",
"493 292 LINE SMOOTH",
"493 181 OFFCURVE",
"439 149 OFFCURVE",
"377 149 CURVE SMOOTH",
"309 149 OFFCURVE",
"267 187 OFFCURVE",
"267 289 CURVE SMOOTH",
"267 721 LINE SMOOTH",
"267 734 OFFCURVE",
"261 742 OFFCURVE",
"249 742 CURVE SMOOTH",
"59 742 LINE SMOOTH",
"48 742 OFFCURVE",
"40 734 OFFCURVE",
"40 719 CURVE SMOOTH",
"40 313 LINE SMOOTH",
"40 104 OFFCURVE",
"121 -10 OFFCURVE",
"360 -10 CURVE SMOOTH",
"551 -10 OFFCURVE",
"680 62 OFFCURVE",
"680 293 CURVE SMOOTH"
);
}
);
width = 720;
},
{
anchors = (
{
name = ogonek;
position = "{431, 10}";
},
{
name = top;
position = "{347, 742}";
}
);
layerId = "91AB5BCA-6A50-42DA-B2F7-8181BF189245";
name = Light;
paths = (
{
closed = 1;
nodes = (
"590 733 LINE SMOOTH",
"590 739 OFFCURVE",
"588 742 OFFCURVE",
"582 742 CURVE SMOOTH",
"558 742 LINE SMOOTH",
"552 742 OFFCURVE",
"550 739 OFFCURVE",
"550 733 CURVE SMOOTH",
"550 229 LINE SMOOTH",
"550 97 OFFCURVE",
"483 33 OFFCURVE",
"345 33 CURVE SMOOTH",
"209 33 OFFCURVE",
"142 96 OFFCURVE",
"142 226 CURVE SMOOTH",
"142 732 LINE SMOOTH",
"142 740 OFFCURVE",
"140 742 OFFCURVE",
"132 742 CURVE SMOOTH",
"104 742 LINE SMOOTH",
"98 742 OFFCURVE",
"96 739 OFFCURVE",
"96 731 CURVE SMOOTH",
"96 245 LINE SMOOTH",
"96 71 OFFCURVE",
"175 -10 OFFCURVE",
"343 -10 CURVE SMOOTH",
"509 -10 OFFCURVE",
"590 69 OFFCURVE",
"590 230 CURVE SMOOTH"
);
}
);
width = 686;
}
);
unicode = 0055;
},
{
color = 4;
glyphname = V;
lastChange = "2015-08-07 07:12:27 +0000";
layers = (
{
background = {
paths = (
{
closed = 1;
nodes = (
"528 742 LINE SMOOTH",
"516 742 OFFCURVE",
"507 734 OFFCURVE",
"502 721 CURVE SMOOTH",
"364 273 LINE SMOOTH",
"360 263 OFFCURVE",
"357 263 OFFCURVE",
"354 272 CURVE SMOOTH",
"218 721 LINE SMOOTH",
"214 734 OFFCURVE",
"205 742 OFFCURVE",
"193 742 CURVE SMOOTH",
"10 742 LINE SMOOTH",
"-6 742 OFFCURVE",
"-15 728 OFFCURVE",
"-9 713 CURVE SMOOTH",
"223 25 LINE SMOOTH",
"228 8 OFFCURVE",
"240 0 OFFCURVE",
"260 0 CURVE SMOOTH",
"422 0 LINE SMOOTH",
"442 0 OFFCURVE",
"454 8 OFFCURVE",
"459 25 CURVE SMOOTH",
"691 713 LINE SMOOTH",
"696 728 OFFCURVE",
"688 742 OFFCURVE",
"672 742 CURVE SMOOTH"
);
}
);
};
layerId = "258ED206-D907-4350-8EBA-CBDDA1C16BF7";
name = Bold;
paths = (
{
closed = 1;
nodes = (
"527 742 LINE SMOOTH",
"515 742 OFFCURVE",
"504 734 OFFCURVE",
"501 721 CURVE SMOOTH",
"376 283 LINE SMOOTH",
"373 273 OFFCURVE",
"369 273 OFFCURVE",
"366 282 CURVE SMOOTH",
"232 721 LINE SMOOTH",
"228 734 OFFCURVE",
"219 742 OFFCURVE",
"207 742 CURVE SMOOTH",
"14 742 LINE SMOOTH",
"-2 742 OFFCURVE",
"-11 728 OFFCURVE",
"-5 713 CURVE SMOOTH",
"227 25 LINE SMOOTH",
"232 8 OFFCURVE",
"244 0 OFFCURVE",
"264 0 CURVE SMOOTH",
"426 0 LINE SMOOTH",
"446 0 OFFCURVE",
"458 8 OFFCURVE",
"463 25 CURVE SMOOTH",
"695 713 LINE SMOOTH",
"700 728 OFFCURVE",
"692 742 OFFCURVE",
"676 742 CURVE SMOOTH"
);
}
);
width = 690;
},
{
layerId = "91AB5BCA-6A50-42DA-B2F7-8181BF189245";
name = Light;
paths = (
{
closed = 1;
nodes = (
"547 742 LINE SMOOTH",
"541 742 OFFCURVE",
"538 740 OFFCURVE",
"536 735 CURVE SMOOTH",
"318 65 LINE SMOOTH",
"314 51 OFFCURVE",
"307 51 OFFCURVE",
"303 64 CURVE SMOOTH",
"87 734 LINE SMOOTH",
"85 740 OFFCURVE",
"82 742 OFFCURVE",
"75 742 CURVE SMOOTH",
"48 742 LINE SMOOTH",
"41 742 OFFCURVE",
"38 738 OFFCURVE",
"40 732 CURVE SMOOTH",
"273 10 LINE SMOOTH",
"275 3 OFFCURVE",
"281 0 OFFCURVE",
"291 0 CURVE SMOOTH",
"323 0 LINE SMOOTH",
"332 0 OFFCURVE",
"336 3 OFFCURVE",
"339 11 CURVE SMOOTH",
"576 733 LINE SMOOTH",
"578 738 OFFCURVE",
"575 742 OFFCURVE",
"569 742 CURVE SMOOTH"
);
}
);
width = 617;
}
);
unicode = 0056;
},
{
color = 4;
glyphname = W;
lastChange = "2015-08-07 07:12:27 +0000";
layers = (
{
anchors = (
{
name = top;
position = "{520, 742}";
}
);
background = {
paths = (
{
closed = 1;
nodes = (
"897 742 LINE SMOOTH",
"876 742 OFFCURVE",
"868 734 OFFCURVE",
"865 721 CURVE SMOOTH",
"763 339 LINE SMOOTH",
"761 331 OFFCURVE",
"754 333 OFFCURVE",
"752 341 CURVE SMOOTH",
"642 721 LINE SMOOTH",
"638 734 OFFCURVE",
"631 742 OFFCURVE",
"610 742 CURVE SMOOTH",
"470 742 LINE SMOOTH",
"449 742 OFFCURVE",
"441 734 OFFCURVE",
"438 721 CURVE SMOOTH",
"333 346 LINE SMOOTH",
"330 335 OFFCURVE",
"325 335 OFFCURVE",
"321 350 CURVE SMOOTH",
"215 721 LINE SMOOTH",
"211 734 OFFCURVE",
"204 742 OFFCURVE",
"183 742 CURVE SMOOTH",
"18 742 LINE SMOOTH",
"-8 742 OFFCURVE",
"-18 725 OFFCURVE",
"-12 702 CURVE SMOOTH",
"192 25 LINE SMOOTH",
"198 8 OFFCURVE",
"208 0 OFFCURVE",
"228 0 CURVE SMOOTH",
"371 0 LINE SMOOTH",
"392 0 OFFCURVE",
"402 8 OFFCURVE",
"407 25 CURVE SMOOTH",
"510 375 LINE SMOOTH",
"517 395 OFFCURVE",
"522 393 OFFCURVE",
"526 377 CURVE SMOOTH",
"630 25 LINE SMOOTH",
"635 8 OFFCURVE",
"646 0 OFFCURVE",
"666 0 CURVE SMOOTH",
"804 0 LINE SMOOTH",
"824 0 OFFCURVE",
"834 8 OFFCURVE",
"840 25 CURVE SMOOTH",
"1043 702 LINE SMOOTH",
"1049 725 OFFCURVE",
"1039 742 OFFCURVE",
"1013 742 CURVE SMOOTH"
);
}
);
};
layerId = "258ED206-D907-4350-8EBA-CBDDA1C16BF7";
name = Bold;
paths = (
{
closed = 1;
nodes = (
"900 742 LINE SMOOTH",
"879 742 OFFCURVE",
"871 734 OFFCURVE",
"868 721 CURVE SMOOTH",
"766 339 LINE SMOOTH",
"764 331 OFFCURVE",
"757 333 OFFCURVE",
"755 341 CURVE SMOOTH",
"645 721 LINE SMOOTH",
"641 734 OFFCURVE",
"634 742 OFFCURVE",
"613 742 CURVE SMOOTH",
"473 742 LINE SMOOTH",
"452 742 OFFCURVE",
"444 734 OFFCURVE",
"441 721 CURVE SMOOTH",
"336 346 LINE SMOOTH",
"333 335 OFFCURVE",
"328 335 OFFCURVE",
"324 350 CURVE SMOOTH",
"218 721 LINE SMOOTH",
"214 734 OFFCURVE",
"207 742 OFFCURVE",
"186 742 CURVE SMOOTH",
"21 742 LINE SMOOTH",
"-5 742 OFFCURVE",
"-15 725 OFFCURVE",
"-9 702 CURVE SMOOTH",
"195 25 LINE SMOOTH",
"201 8 OFFCURVE",
"211 0 OFFCURVE",
"231 0 CURVE SMOOTH",
"374 0 LINE SMOOTH",
"395 0 OFFCURVE",
"405 8 OFFCURVE",
"410 25 CURVE SMOOTH",
"513 375 LINE SMOOTH",
"520 395 OFFCURVE",
"525 393 OFFCURVE",
"529 377 CURVE SMOOTH",
"633 25 LINE SMOOTH",
"638 8 OFFCURVE",
"649 0 OFFCURVE",
"669 0 CURVE SMOOTH",
"807 0 LINE SMOOTH",
"827 0 OFFCURVE",
"837 8 OFFCURVE",
"843 25 CURVE SMOOTH",
"1046 702 LINE SMOOTH",
"1052 725 OFFCURVE",
"1042 742 OFFCURVE",
"1016 742 CURVE SMOOTH"
);
}
);
width = 1040;
},
{
anchors = (
{
name = top;
position = "{498, 742}";
}
);
layerId = "91AB5BCA-6A50-42DA-B2F7-8181BF189245";
name = Light;
paths = (
{
closed = 1;
nodes = (
"923 742 LINE SMOOTH",
"917 742 OFFCURVE",
"913 740 OFFCURVE",
"912 735 CURVE",
"724 65 LINE SMOOTH",
"720 51 OFFCURVE",
"713 51 OFFCURVE",
"709 64 CURVE SMOOTH",
"523 734 LINE SMOOTH",
"521 740 OFFCURVE",
"519 742 OFFCURVE",
"511 742 CURVE SMOOTH",
"485 742 LINE SMOOTH",
"479 742 OFFCURVE",
"476 738 OFFCURVE",
"476 735 CURVE SMOOTH",
"288 65 LINE SMOOTH",
"284 51 OFFCURVE",
"277 51 OFFCURVE",
"273 64 CURVE SMOOTH",
"87 734 LINE",
"85 740 OFFCURVE",
"83 742 OFFCURVE",
"75 742 CURVE SMOOTH",
"49 742 LINE SMOOTH",
"42 742 OFFCURVE",
"39 738 OFFCURVE",
"41 732 CURVE",
"244 10 LINE SMOOTH",
"246 3 OFFCURVE",
"252 0 OFFCURVE",
"262 0 CURVE SMOOTH",
"293 0 LINE SMOOTH",
"303 0 OFFCURVE",
"307 3 OFFCURVE",
"309 11 CURVE SMOOTH",
"494 658 LINE SMOOTH",
"495 662 OFFCURVE",
"497 662 OFFCURVE",
"498 658 CURVE SMOOTH",
"680 10 LINE SMOOTH",
"682 3 OFFCURVE",
"688 0 OFFCURVE",
"698 0 CURVE SMOOTH",
"729 0 LINE SMOOTH",
"739 0 OFFCURVE",
"743 3 OFFCURVE",
"745 11 CURVE SMOOTH",
"952 733 LINE",
"953 738 OFFCURVE",
"951 742 OFFCURVE",
"945 742 CURVE SMOOTH"
);
}
);
width = 992;
}
);
unicode = 0057;
},
{
color = 4;
glyphname = X;
lastChange = "2015-08-07 07:12:27 +0000";
layers = (
{
background = {
paths = (
{
closed = 1;
nodes = (
"477 383 LINE SMOOTH",
"466 398 OFFCURVE",
"465 405 OFFCURVE",
"475 419 CURVE SMOOTH",
"677 709 LINE SMOOTH",
"687 724 OFFCURVE",
"688 742 OFFCURVE",
"664 742 CURVE SMOOTH",
"511 742 LINE SMOOTH",
"489 742 OFFCURVE",
"480 735 OFFCURVE",
"471 721 CURVE SMOOTH",
"376 560 LINE SMOOTH",
"370 549 OFFCURVE",
"360 549 OFFCURVE",
"354 560 CURVE SMOOTH",
"257 721 LINE SMOOTH",
"249 735 OFFCURVE",
"239 742 OFFCURVE",
"217 742 CURVE SMOOTH",
"20 742 LINE SMOOTH",
"-3 742 OFFCURVE",
"-10 721 OFFCURVE",
"1 707 CURVE SMOOTH",
"220 390 LINE SMOOTH",
"231 375 OFFCURVE",
"231 369 OFFCURVE",
"221 354 CURVE SMOOTH",
"13 51 LINE SMOOTH",
"-15 12 OFFCURVE",
"-2 0 OFFCURVE",
"26 0 CURVE SMOOTH",
"167 0 LINE SMOOTH",
"187 0 OFFCURVE",
"201 5 OFFCURVE",
"210 20 CURVE SMOOTH",
"321 210 LINE SMOOTH",
"331 229 OFFCURVE",
"338 228 OFFCURVE",
"349 209 CURVE SMOOTH",
"463 20 LINE SMOOTH",
"471 6 OFFCURVE",
"485 0 OFFCURVE",
"505 0 CURVE SMOOTH",
"693 0 LINE SMOOTH",
"721 0 OFFCURVE",
"736 12 OFFCURVE",
"709 51 CURVE SMOOTH"
);
}
);
};
layerId = "258ED206-D907-4350-8EBA-CBDDA1C16BF7";
name = Bold;
paths = (
{
closed = 1;
nodes = (
"493 383 LINE SMOOTH",
"482 398 OFFCURVE",
"481 405 OFFCURVE",
"491 419 CURVE SMOOTH",
"693 709 LINE SMOOTH",
"703 724 OFFCURVE",
"704 742 OFFCURVE",
"680 742 CURVE SMOOTH",
"527 742 LINE SMOOTH",
"505 742 OFFCURVE",
"496 735 OFFCURVE",
"487 721 CURVE SMOOTH",
"392 560 LINE SMOOTH",
"386 549 OFFCURVE",
"376 549 OFFCURVE",
"370 560 CURVE SMOOTH",
"273 721 LINE SMOOTH",
"265 735 OFFCURVE",
"255 742 OFFCURVE",
"233 742 CURVE SMOOTH",
"36 742 LINE SMOOTH",
"13 742 OFFCURVE",
"6 721 OFFCURVE",
"17 707 CURVE SMOOTH",
"236 390 LINE SMOOTH",
"247 375 OFFCURVE",
"247 369 OFFCURVE",
"237 354 CURVE SMOOTH",
"29 51 LINE SMOOTH",
"1 12 OFFCURVE",
"14 0 OFFCURVE",
"42 0 CURVE SMOOTH",
"183 0 LINE SMOOTH",
"203 0 OFFCURVE",
"217 5 OFFCURVE",
"226 20 CURVE SMOOTH",
"337 210 LINE SMOOTH",
"347 229 OFFCURVE",
"354 228 OFFCURVE",
"365 209 CURVE SMOOTH",
"479 20 LINE SMOOTH",
"487 6 OFFCURVE",
"501 0 OFFCURVE",
"521 0 CURVE SMOOTH",
"709 0 LINE SMOOTH",
"737 0 OFFCURVE",
"752 12 OFFCURVE",
"725 51 CURVE SMOOTH"
);
}
);
width = 730;
},
{
layerId = "91AB5BCA-6A50-42DA-B2F7-8181BF189245";
name = Light;
paths = (
{
closed = 1;
nodes = (
"335 370 LINE SMOOTH",
"331 376 OFFCURVE",
"329 381 OFFCURVE",
"333 387 CURVE SMOOTH",
"551 736 LINE SMOOTH",
"553 739 OFFCURVE",
"553 742 OFFCURVE",
"549 742 CURVE SMOOTH",
"515 742 LINE SMOOTH",
"511 742 OFFCURVE",
"510 741 OFFCURVE",
"508 738 CURVE SMOOTH",
"313 417 LINE SMOOTH",
"310 411 OFFCURVE",
"307 411 OFFCURVE",
"304 416 CURVE SMOOTH",
"92 738 LINE SMOOTH",
"90 741 OFFCURVE",
"89 742 OFFCURVE",
"84 742 CURVE SMOOTH",
"44 742 LINE SMOOTH",
"40 742 OFFCURVE",
"39 738 OFFCURVE",
"41 735 CURVE SMOOTH",
"274 378 LINE SMOOTH",
"278 372 OFFCURVE",
"278 371 OFFCURVE",
"274 364 CURVE SMOOTH",
"56 10 LINE SMOOTH",
"51 2 OFFCURVE",
"53 0 OFFCURVE",
"59 0 CURVE SMOOTH",
"90 0 LINE SMOOTH",
"93 0 OFFCURVE",
"96 1 OFFCURVE",
"98 4 CURVE SMOOTH",
"298 329 LINE SMOOTH",
"302 336 OFFCURVE",
"303 336 OFFCURVE",
"307 329 CURVE SMOOTH",
"512 4 LINE SMOOTH",
"514 1 OFFCURVE",
"516 0 OFFCURVE",
"520 0 CURVE SMOOTH",
"558 0 LINE SMOOTH",
"564 0 OFFCURVE",
"567 2 OFFCURVE",
"562 10 CURVE SMOOTH"
);
}
);
width = 605;
}
);
unicode = 0058;
},
{
color = 4;
glyphname = Y;
lastChange = "2015-08-07 07:12:27 +0000";
layers = (
{
anchors = (
{
name = top;
position = "{366, 742}";
}
);
background = {
paths = (
{
closed = 1;
nodes = (
"539 742 LINE SMOOTH",
"520 742 OFFCURVE",
"513 738 OFFCURVE",
"505 721 CURVE SMOOTH",
"384 498 LINE SMOOTH",
"377 486 OFFCURVE",
"373 487 OFFCURVE",
"367 499 CURVE SMOOTH",
"244 721 LINE SMOOTH",
"235 737 OFFCURVE",
"230 742 OFFCURVE",
"210 742 CURVE SMOOTH",
"9 742 LINE SMOOTH",
"-12 742 OFFCURVE",
"-19 730 OFFCURVE",
"-9 714 CURVE SMOOTH",
"228 332 LINE SMOOTH",
"238 317 OFFCURVE",
"241 309 OFFCURVE",
"242 288 CURVE SMOOTH",
"239 25 LINE SMOOTH",
"239 8 OFFCURVE",
"245 0 OFFCURVE",
"265 0 CURVE SMOOTH",
"438 0 LINE SMOOTH",
"461 0 OFFCURVE",
"471 8 OFFCURVE",
"471 29 CURVE SMOOTH",
"471 284 LINE SMOOTH",
"471 326 OFFCURVE",
"473 335 OFFCURVE",
"481 350 CURVE SMOOTH",
"710 719 LINE SMOOTH",
"717 732 OFFCURVE",
"713 742 OFFCURVE",
"696 742 CURVE SMOOTH"
);
}
);
};
layerId = "258ED206-D907-4350-8EBA-CBDDA1C16BF7";
name = Bold;
paths = (
{
closed = 1;
nodes = (
"539 742 LINE SMOOTH",
"520 742 OFFCURVE",
"513 738 OFFCURVE",
"505 721 CURVE SMOOTH",
"384 498 LINE SMOOTH",
"377 486 OFFCURVE",
"373 487 OFFCURVE",
"367 499 CURVE SMOOTH",
"244 721 LINE SMOOTH",
"235 737 OFFCURVE",
"230 742 OFFCURVE",
"210 742 CURVE SMOOTH",
"9 742 LINE SMOOTH",
"-12 742 OFFCURVE",
"-19 730 OFFCURVE",
"-9 714 CURVE SMOOTH",
"225 332 LINE SMOOTH",
"234 317 OFFCURVE",
"239 309 OFFCURVE",
"239 288 CURVE SMOOTH",
"239 25 LINE SMOOTH",
"239 8 OFFCURVE",
"245 0 OFFCURVE",
"265 0 CURVE SMOOTH",
"433 0 LINE SMOOTH",
"456 0 OFFCURVE",
"466 8 OFFCURVE",
"466 29 CURVE SMOOTH",
"466 275 LINE SMOOTH",
"466 317 OFFCURVE",
"467 327 OFFCURVE",
"476 341 CURVE SMOOTH",
"710 719 LINE SMOOTH",
"718 732 OFFCURVE",
"713 742 OFFCURVE",
"696 742 CURVE SMOOTH"
);
}
);
width = 690;
},
{
anchors = (
{
name = top;
position = "{284, 742}";
}
);
background = {
components = (
{
name = I;
transform = "{1, 0, 0, 1, 163, 0}";
}
);
paths = (
{
closed = 1;
nodes = (
"475 742 LINE SMOOTH",
"456 742 OFFCURVE",
"449 738 OFFCURVE",
"441 721 CURVE SMOOTH",
"320 498 LINE SMOOTH",
"313 486 OFFCURVE",
"309 487 OFFCURVE",
"303 499 CURVE SMOOTH",
"180 721 LINE SMOOTH",
"171 737 OFFCURVE",
"166 742 OFFCURVE",
"146 742 CURVE SMOOTH",
"-55 742 LINE SMOOTH",
"-76 742 OFFCURVE",
"-83 730 OFFCURVE",
"-73 714 CURVE SMOOTH",
"161 332 LINE SMOOTH",
"170 317 OFFCURVE",
"175 309 OFFCURVE",
"174 288 CURVE SMOOTH",
"174 11 LINE SMOOTH",
"174 4 OFFCURVE",
"177 0 OFFCURVE",
"186 0 CURVE SMOOTH",
"388 0 LINE SMOOTH",
"399 0 OFFCURVE",
"403 4 OFFCURVE",
"403 13 CURVE SMOOTH",
"403 295 LINE SMOOTH",
"402 317 OFFCURVE",
"403 327 OFFCURVE",
"412 341 CURVE SMOOTH",
"646 719 LINE SMOOTH",
"654 732 OFFCURVE",
"649 742 OFFCURVE",
"632 742 CURVE SMOOTH"
);
}
);
};
layerId = "91AB5BCA-6A50-42DA-B2F7-8181BF189245";
name = Light;
paths = (
{
closed = 1;
nodes = (
"528 742 LINE SMOOTH",
"519 742 OFFCURVE",
"517 741 OFFCURVE",
"512 733 CURVE SMOOTH",
"299 374 LINE SMOOTH",
"292 362 OFFCURVE",
"289 363 OFFCURVE",
"282 375 CURVE SMOOTH",
"73 733 LINE SMOOTH",
"69 740 OFFCURVE",
"66 742 OFFCURVE",
"57 742 CURVE SMOOTH",
"30 742 LINE SMOOTH",
"20 742 OFFCURVE",
"18 737 OFFCURVE",
"22 730 CURVE SMOOTH",
"264 319 LINE SMOOTH",
"268 312 OFFCURVE",
"269 309 OFFCURVE",
"269 299 CURVE SMOOTH",
"269 11 LINE SMOOTH",
"269 4 OFFCURVE",
"272 0 OFFCURVE",
"281 0 CURVE SMOOTH",
"300 0 LINE SMOOTH",
"311 0 OFFCURVE",
"315 4 OFFCURVE",
"315 13 CURVE SMOOTH",
"315 314 LINE SMOOTH",
"315 324 OFFCURVE",
"315 328 OFFCURVE",
"319 334 CURVE SMOOTH",
"556 731 LINE SMOOTH",
"560 737 OFFCURVE",
"557 742 OFFCURVE",
"550 742 CURVE SMOOTH"
);
}
);
width = 578;
}
);
unicode = 0059;
},
{
color = 4;
glyphname = Z;
lastChange = "2015-08-07 07:12:27 +0000";
layers = (
{
anchors = (
{
name = bottom;
position = "{329, 0}";
},
{
name = top;
position = "{353, 742}";
}
);
background = {
paths = (
{
closed = 1;
nodes = (
"323 180 LINE SMOOTH",
"316 169 OFFCURVE",
"326 166 OFFCURVE",
"335 166 CURVE SMOOTH",
"632 166 LINE SMOOTH",
"646 166 OFFCURVE",
"654 161 OFFCURVE",
"654 147 CURVE SMOOTH",
"654 22 LINE SMOOTH",
"654 10 OFFCURVE",
"647 0 OFFCURVE",
"630 0 CURVE SMOOTH",
"29 0 LINE SMOOTH",
"9 0 OFFCURVE",
"3 5 OFFCURVE",
"3 25 CURVE SMOOTH",
"3 70 LINE SMOOTH",
"3 91 OFFCURVE",
"5 94 OFFCURVE",
"24 121 CURVE SMOOTH",
"332 561 LINE SMOOTH",
"339 572 OFFCURVE",
"337 577 OFFCURVE",
"323 577 CURVE SMOOTH",
"58 577 LINE SMOOTH",
"41 577 OFFCURVE",
"36 583 OFFCURVE",
"36 601 CURVE SMOOTH",
"36 721 LINE SMOOTH",
"36 734 OFFCURVE",
"43 742 OFFCURVE",
"54 742 CURVE SMOOTH",
"641 742 LINE SMOOTH",
"653 742 OFFCURVE",
"660 734 OFFCURVE",
"660 722 CURVE SMOOTH",
"660 671 LINE SMOOTH",
"660 656 OFFCURVE",
"656 648 OFFCURVE",
"643 630 CURVE SMOOTH"
);
}
);
};
layerId = "258ED206-D907-4350-8EBA-CBDDA1C16BF7";
name = Bold;
paths = (
{
closed = 1;
nodes = (
"635 0 LINE SMOOTH",
"652 0 OFFCURVE",
"659 10 OFFCURVE",
"659 22 CURVE SMOOTH",
"659 147 LINE SMOOTH",
"659 161 OFFCURVE",
"651 166 OFFCURVE",
"637 166 CURVE SMOOTH",
"340 166 LINE SMOOTH",
"331 166 OFFCURVE",
"321 169 OFFCURVE",
"328 180 CURVE SMOOTH",
"648 630 LINE SMOOTH",
"661 648 OFFCURVE",
"665 656 OFFCURVE",
"665 671 CURVE SMOOTH",
"665 722 LINE SMOOTH",
"665 734 OFFCURVE",
"658 742 OFFCURVE",
"646 742 CURVE SMOOTH",
"59 742 LINE SMOOTH",
"48 742 OFFCURVE",
"41 734 OFFCURVE",
"41 721 CURVE SMOOTH",
"41 601 LINE SMOOTH",
"41 583 OFFCURVE",
"46 577 OFFCURVE",
"63 577 CURVE SMOOTH",
"328 577 LINE SMOOTH",
"342 577 OFFCURVE",
"344 572 OFFCURVE",
"337 561 CURVE SMOOTH",
"29 121 LINE SMOOTH",
"10 94 OFFCURVE",
"8 91 OFFCURVE",
"8 70 CURVE SMOOTH",
"8 25 LINE SMOOTH",
"8 5 OFFCURVE",
"14 0 OFFCURVE",
"34 0 CURVE SMOOTH"
);
}
);
width = 680;
},
{
anchors = (
{
name = bottom;
position = "{307, 0}";
},
{
name = top;
position = "{300, 742}";
}
);
layerId = "91AB5BCA-6A50-42DA-B2F7-8181BF189245";
name = Light;
paths = (
{
closed = 1;
nodes = (
"532 0 LINE SMOOTH",
"537 0 OFFCURVE",
"539 3 OFFCURVE",
"539 7 CURVE SMOOTH",
"539 35 LINE SMOOTH",
"539 39 OFFCURVE",
"537 40 OFFCURVE",
"533 40 CURVE SMOOTH",
"117 40 LINE SMOOTH",
"113 40 OFFCURVE",
"112 43 OFFCURVE",
"115 48 CURVE SMOOTH",
"534 709 LINE SMOOTH",
"537 714 OFFCURVE",
"539 716 OFFCURVE",
"539 721 CURVE SMOOTH",
"539 736 LINE SMOOTH",
"539 740 OFFCURVE",
"537 742 OFFCURVE",
"533 742 CURVE SMOOTH",
"66 742 LINE SMOOTH",
"62 742 OFFCURVE",
"60 740 OFFCURVE",
"60 736 CURVE SMOOTH",
"60 709 LINE SMOOTH",
"60 704 OFFCURVE",
"62 702 OFFCURVE",
"67 702 CURVE SMOOTH",
"468 702 LINE SMOOTH",
"473 702 OFFCURVE",
"475 700 OFFCURVE",
"472 695 CURVE SMOOTH",
"57 36 LINE SMOOTH",
"52 29 OFFCURVE",
"50 25 OFFCURVE",
"50 19 CURVE SMOOTH",
"50 7 LINE SMOOTH",
"50 2 OFFCURVE",
"52 0 OFFCURVE",
"58 0 CURVE SMOOTH"
);
}
);
width = 589;
}
);
unicode = 005A;
},
{
color = 4;
glyphname = a;
lastChange = "2015-08-07 07:12:27 +0000";
layers = (
{
anchors = (
{
name = ogonek;
position = "{512, 10}";
},
{
name = top;
position = "{288, 530}";
}
);
background = {
paths = (
{
closed = 1;
nodes = (
"339 45 OFFCURVE",
"345 42 OFFCURVE",
"347 32 CURVE SMOOTH",
"348 25 LINE SMOOTH",
"351 6 OFFCURVE",
"357 0 OFFCURVE",
"375 0 CURVE SMOOTH",
"492 0 LINE SMOOTH",
"524 0 OFFCURVE",
"552 5 OFFCURVE",
"544 29 CURVE SMOOTH",
"537 51 OFFCURVE",
"533 68 OFFCURVE",
"533 97 CURVE SMOOTH",
"533 375 LINE SMOOTH",
"533 478 OFFCURVE",
"478 538 OFFCURVE",
"289 540 CURVE SMOOTH",
"136 540 OFFCURVE",
"79 499 OFFCURVE",
"41 421 CURVE SMOOTH",
"36 410 OFFCURVE",
"39 391 OFFCURVE",
"48 389 CURVE SMOOTH",
"179 363 LINE SMOOTH",
"197 360 OFFCURVE",
"201 361 OFFCURVE",
"206 374 CURVE SMOOTH",
"223 411 OFFCURVE",
"256 421 OFFCURVE",
"284 421 CURVE SMOOTH",
"324 421 OFFCURVE",
"343 400 OFFCURVE",
"343 363 CURVE SMOOTH",
"343 346 LINE SMOOTH",
"343 334 OFFCURVE",
"333 332 OFFCURVE",
"325 332 CURVE SMOOTH",
"113 323 OFFCURVE",
"14 255 OFFCURVE",
"14 143 CURVE SMOOTH",
"14 52 OFFCURVE",
"74 -10 OFFCURVE",
"187 -10 CURVE SMOOTH",
"240 -10 OFFCURVE",
"270 4 OFFCURVE",
"318 32 CURVE SMOOTH"
);
},
{
closed = 1;
nodes = (
"343 160 LINE SMOOTH",
"343 143 OFFCURVE",
"337 135 OFFCURVE",
"327 127 CURVE SMOOTH",
"313 117 OFFCURVE",
"291 108 OFFCURVE",
"268 108 CURVE SMOOTH",
"229 108 OFFCURVE",
"208 127 OFFCURVE",
"208 156 CURVE SMOOTH",
"208 212 OFFCURVE",
"293 234 OFFCURVE",
"325 234 CURVE SMOOTH",
"337 234 OFFCURVE",
"343 228 OFFCURVE",
"343 216 CURVE SMOOTH"
);
}
);
};
layerId = "258ED206-D907-4350-8EBA-CBDDA1C16BF7";
name = Bold;
paths = (
{
closed = 1;
nodes = (
"339 45 OFFCURVE",
"345 42 OFFCURVE",
"347 32 CURVE SMOOTH",
"348 25 LINE SMOOTH",
"351 6 OFFCURVE",
"357 0 OFFCURVE",
"375 0 CURVE SMOOTH",
"492 0 LINE SMOOTH",
"524 0 OFFCURVE",
"552 5 OFFCURVE",
"544 29 CURVE SMOOTH",
"537 51 OFFCURVE",
"533 68 OFFCURVE",
"533 97 CURVE SMOOTH",
"533 375 LINE SMOOTH",
"533 478 OFFCURVE",
"478 538 OFFCURVE",
"289 540 CURVE SMOOTH",
"136 540 OFFCURVE",
"79 499 OFFCURVE",
"41 421 CURVE SMOOTH",
"36 410 OFFCURVE",
"39 391 OFFCURVE",
"48 389 CURVE SMOOTH",
"179 363 LINE SMOOTH",
"197 360 OFFCURVE",
"201 361 OFFCURVE",
"206 374 CURVE SMOOTH",
"223 411 OFFCURVE",
"256 421 OFFCURVE",
"284 421 CURVE SMOOTH",
"324 421 OFFCURVE",
"343 400 OFFCURVE",
"343 363 CURVE SMOOTH",
"343 346 LINE SMOOTH",
"343 334 OFFCURVE",
"333 332 OFFCURVE",
"328 332 CURVE SMOOTH",
"321 332 LINE SMOOTH",
"115 323 OFFCURVE",
"14 253 OFFCURVE",
"14 143 CURVE SMOOTH",
"14 52 OFFCURVE",
"74 -10 OFFCURVE",
"187 -10 CURVE SMOOTH",
"240 -10 OFFCURVE",
"270 4 OFFCURVE",
"318 32 CURVE SMOOTH"
);
},
{
closed = 1;
nodes = (
"343 168 LINE SMOOTH",
"343 151 OFFCURVE",
"337 143 OFFCURVE",
"327 135 CURVE SMOOTH",
"313 125 OFFCURVE",
"291 116 OFFCURVE",
"268 116 CURVE SMOOTH",
"229 116 OFFCURVE",
"208 135 OFFCURVE",
"208 164 CURVE SMOOTH",
"208 220 OFFCURVE",
"293 242 OFFCURVE",
"325 242 CURVE SMOOTH",
"327 242 LINE SMOOTH",
"337 242 OFFCURVE",
"343 235 OFFCURVE",
"343 224 CURVE SMOOTH"
);
}
);
width = 560;
},
{
anchors = (
{
name = ogonek;
position = "{480, 10}";
},
{
name = top;
position = "{274, 530}";
}
);
background = {
paths = (
{
closed = 1;
nodes = (
"430 45 OFFCURVE",
"436 42 OFFCURVE",
"438 32 CURVE SMOOTH",
"439 25 LINE SMOOTH",
"442 6 OFFCURVE",
"448 0 OFFCURVE",
"466 0 CURVE SMOOTH",
"583 0 LINE SMOOTH",
"615 0 OFFCURVE",
"643 5 OFFCURVE",
"635 29 CURVE SMOOTH",
"628 51 OFFCURVE",
"624 68 OFFCURVE",
"624 97 CURVE SMOOTH",
"624 375 LINE SMOOTH",
"624 478 OFFCURVE",
"569 538 OFFCURVE",
"380 540 CURVE SMOOTH",
"227 540 OFFCURVE",
"170 499 OFFCURVE",
"132 421 CURVE SMOOTH",
"127 410 OFFCURVE",
"130 391 OFFCURVE",
"139 389 CURVE SMOOTH",
"270 363 LINE SMOOTH",
"288 360 OFFCURVE",
"292 361 OFFCURVE",
"297 374 CURVE SMOOTH",
"314 411 OFFCURVE",
"347 421 OFFCURVE",
"375 421 CURVE SMOOTH",
"415 421 OFFCURVE",
"434 400 OFFCURVE",
"434 363 CURVE SMOOTH",
"434 346 LINE SMOOTH",
"434 334 OFFCURVE",
"424 332 OFFCURVE",
"419 332 CURVE SMOOTH",
"412 332 LINE SMOOTH",
"206 323 OFFCURVE",
"105 253 OFFCURVE",
"105 143 CURVE SMOOTH",
"105 52 OFFCURVE",
"165 -10 OFFCURVE",
"278 -10 CURVE SMOOTH",
"331 -10 OFFCURVE",
"361 4 OFFCURVE",
"409 32 CURVE SMOOTH"
);
},
{
closed = 1;
nodes = (
"434 160 LINE SMOOTH",
"434 143 OFFCURVE",
"428 135 OFFCURVE",
"418 127 CURVE SMOOTH",
"404 117 OFFCURVE",
"382 108 OFFCURVE",
"359 108 CURVE SMOOTH",
"320 108 OFFCURVE",
"299 127 OFFCURVE",
"299 156 CURVE SMOOTH",
"299 212 OFFCURVE",
"384 234 OFFCURVE",
"416 234 CURVE SMOOTH",
"418 234 LINE SMOOTH",
"428 234 OFFCURVE",
"434 227 OFFCURVE",
"434 216 CURVE SMOOTH"
);
}
);
};
guideLines = (
{
angle = 90;
position = "{434, 182}";
}
);
hints = (
{
horizontal = 1;
place = "{4037.000000, 100.000000}";
}
);
layerId = "91AB5BCA-6A50-42DA-B2F7-8181BF189245";
name = Light;
paths = (
{
closed = 1;
nodes = (
"429 81 OFFCURVE",
"433 81 OFFCURVE",
"434 73 CURVE SMOOTH",
"445 9 LINE SMOOTH",
"447 2 OFFCURVE",
"451 0 OFFCURVE",
"459 0 CURVE SMOOTH",
"484 0 LINE SMOOTH",
"489 0 OFFCURVE",
"492 5 OFFCURVE",
"489 11 CURVE SMOOTH",
"476 53 OFFCURVE",
"474 65 OFFCURVE",
"474 97 CURVE SMOOTH",
"474 355 LINE SMOOTH",
"474 470 OFFCURVE",
"399 540 OFFCURVE",
"274 540 CURVE SMOOTH",
"181 540 OFFCURVE",
"100 498 OFFCURVE",
"63 431 CURVE SMOOTH",
"60 426 OFFCURVE",
"60 423 OFFCURVE",
"63 421 CURVE SMOOTH",
"87 405 LINE SMOOTH",
"91 403 OFFCURVE",
"94 404 OFFCURVE",
"98 409 CURVE SMOOTH",
"144 472 OFFCURVE",
"196 500 OFFCURVE",
"269 500 CURVE SMOOTH",
"371 500 OFFCURVE",
"434 448 OFFCURVE",
"434 363 CURVE SMOOTH",
"434 332 LINE SMOOTH",
"434 323 OFFCURVE",
"428 318 OFFCURVE",
"416 317 CURVE SMOOTH",
"304 308 LINE SMOOTH",
"132 294 OFFCURVE",
"45 236 OFFCURVE",
"45 135 CURVE SMOOTH",
"45 45 OFFCURVE",
"114 -10 OFFCURVE",
"227 -10 CURVE SMOOTH",
"302 -10 OFFCURVE",
"365 17 OFFCURVE",
"423 75 CURVE SMOOTH"
);
},
{
closed = 1;
nodes = (
"434 162 LINE SMOOTH",
"434 131 OFFCURVE",
"415 102 OFFCURVE",
"375 73 CURVE SMOOTH",
"333 43 OFFCURVE",
"289 29 OFFCURVE",
"235 29 CURVE SMOOTH",
"143 29 OFFCURVE",
"90 68 OFFCURVE",
"90 136 CURVE SMOOTH",
"90 217 OFFCURVE",
"164 260 OFFCURVE",
"324 272 CURVE SMOOTH",
"419 279 LINE SMOOTH",
"429 280 OFFCURVE",
"434 276 OFFCURVE",
"434 265 CURVE SMOOTH"
);
}
);
width = 564;
}
);
unicode = 0061;
},
{
color = 4;
glyphname = ae;
lastChange = "2015-08-07 07:12:27 +0000";
layers = (
{
anchors = (
{
name = top;
position = "{452, 530}";
}
);
background = {
paths = (
{
closed = 1;
nodes = (
"341 46 OFFCURVE",
"344 47 OFFCURVE",
"348 25 CURVE SMOOTH",
"350 11 OFFCURVE",
"353 0 OFFCURVE",
"375 0 CURVE SMOOTH",
"492 0 LINE SMOOTH",
"524 0 OFFCURVE",
"552 5 OFFCURVE",
"544 29 CURVE SMOOTH",
"537 51 OFFCURVE",
"533 68 OFFCURVE",
"533 97 CURVE SMOOTH",
"533 375 LINE SMOOTH",
"533 478 OFFCURVE",
"478 538 OFFCURVE",
"289 540 CURVE SMOOTH",
"136 540 OFFCURVE",
"79 499 OFFCURVE",
"41 421 CURVE SMOOTH",
"36 410 OFFCURVE",
"39 391 OFFCURVE",
"48 389 CURVE SMOOTH",
"179 363 LINE SMOOTH",
"197 360 OFFCURVE",
"201 361 OFFCURVE",
"206 374 CURVE SMOOTH",
"223 411 OFFCURVE",
"256 421 OFFCURVE",
"284 421 CURVE SMOOTH",
"324 421 OFFCURVE",
"343 400 OFFCURVE",
"343 363 CURVE SMOOTH",
"343 346 LINE SMOOTH",
"343 334 OFFCURVE",
"333 332 OFFCURVE",
"325 332 CURVE SMOOTH",
"118 325 OFFCURVE",
"14 254 OFFCURVE",
"14 143 CURVE SMOOTH",
"14 52 OFFCURVE",
"74 -10 OFFCURVE",
"187 -10 CURVE SMOOTH",
"240 -10 OFFCURVE",
"270 4 OFFCURVE",
"318 32 CURVE SMOOTH"
);
}
);
};
layerId = "258ED206-D907-4350-8EBA-CBDDA1C16BF7";
name = Bold;
paths = (
{
closed = 1;
nodes = (
"874 229 LINE SMOOTH",
"891 230 OFFCURVE",
"892 237 OFFCURVE",
"892 254 CURVE SMOOTH",
"892 435 OFFCURVE",
"777 540 OFFCURVE",
"620 540 CURVE SMOOTH",
"568 540 OFFCURVE",
"518 526 OFFCURVE",
"475 500 CURVE",
"437 525 OFFCURVE",
"378 539 OFFCURVE",
"289 540 CURVE SMOOTH",
"136 540 OFFCURVE",
"79 499 OFFCURVE",
"41 421 CURVE SMOOTH",
"36 410 OFFCURVE",
"39 391 OFFCURVE",
"48 389 CURVE SMOOTH",
"179 363 LINE SMOOTH",
"197 360 OFFCURVE",
"201 361 OFFCURVE",
"206 374 CURVE",
"223 411 OFFCURVE",
"256 421 OFFCURVE",
"284 421 CURVE SMOOTH",
"324 421 OFFCURVE",
"343 400 OFFCURVE",
"343 363 CURVE SMOOTH",
"343 346 LINE SMOOTH",
"343 334 OFFCURVE",
"333 332 OFFCURVE",
"325 332 CURVE",
"302 331 LINE SMOOTH",
"110 322 OFFCURVE",
"14 250 OFFCURVE",
"14 143 CURVE SMOOTH",
"14 52 OFFCURVE",
"74 -10 OFFCURVE",
"187 -10 CURVE SMOOTH",
"279 -10 OFFCURVE",
"344 12 OFFCURVE",
"405 71 CURVE SMOOTH",
"409 75 OFFCURVE",
"412 75 OFFCURVE",
"416 71 CURVE SMOOTH",
"466 20 OFFCURVE",
"540 -10 OFFCURVE",
"624 -10 CURVE SMOOTH",
"736 -10 OFFCURVE",
"804 17 OFFCURVE",
"876 118 CURVE",
"885 129 OFFCURVE",
"882 138 OFFCURVE",
"872 142 CURVE SMOOTH",
"781 179 LINE SMOOTH",
"768 184 OFFCURVE",
"765 183 OFFCURVE",
"760 178 CURVE SMOOTH",
"716 135 OFFCURVE",
"685 122 OFFCURVE",
"651 122 CURVE SMOOTH",
"593 122 OFFCURVE",
"548 151 OFFCURVE",
"548 212 CURVE SMOOTH",
"548 224 OFFCURVE",
"553 229 OFFCURVE",
"563 229 CURVE SMOOTH"
);
},
{
closed = 1;
nodes = (
"679 423 OFFCURVE",
"698 372 OFFCURVE",
"698 346 CURVE SMOOTH",
"698 334 OFFCURVE",
"694 332 OFFCURVE",
"681 332 CURVE SMOOTH",
"551 333 LINE",
"550 395 OFFCURVE",
"588 423 OFFCURVE",
"629 423 CURVE SMOOTH"
);
},
{
closed = 1;
nodes = (
"343 160 LINE SMOOTH",
"343 127 OFFCURVE",
"306 108 OFFCURVE",
"268 108 CURVE SMOOTH",
"229 108 OFFCURVE",
"208 127 OFFCURVE",
"208 156 CURVE SMOOTH",
"208 205 OFFCURVE",
"273 230 OFFCURVE",
"311 233 CURVE SMOOTH",
"325 234 LINE SMOOTH",
"337 234 OFFCURVE",
"343 228 OFFCURVE",
"343 216 CURVE SMOOTH"
);
}
);
width = 914;
},
{
anchors = (
{
name = top;
position = "{470, 530}";
}
);
background = {
paths = (
{
closed = 1;
nodes = (
"898 430 OFFCURVE",
"808 540 OFFCURVE",
"667 540 CURVE SMOOTH",
"576 540 OFFCURVE",
"506 494 OFFCURVE",
"466.345 412.242 CURVE",
"445 492 OFFCURVE",
"380 540 OFFCURVE",
"277 540 CURVE SMOOTH",
"180 540 OFFCURVE",
"100 498 OFFCURVE",
"63 431 CURVE",
"60 426 OFFCURVE",
"60 423 OFFCURVE",
"63 421 CURVE SMOOTH",
"87 405 LINE SMOOTH",
"90 403 OFFCURVE",
"93 403 OFFCURVE",
"98 409 CURVE SMOOTH",
"149 468 OFFCURVE",
"179 500 OFFCURVE",
"264 500 CURVE SMOOTH",
"370 500 OFFCURVE",
"434 448 OFFCURVE",
"434 363 CURVE SMOOTH",
"434 332 LINE SMOOTH",
"434 323 OFFCURVE",
"428 318 OFFCURVE",
"416 317 CURVE SMOOTH",
"304 308 LINE SMOOTH",
"129 294 OFFCURVE",
"45 234 OFFCURVE",
"45 135 CURVE SMOOTH",
"45 45 OFFCURVE",
"114 -10 OFFCURVE",
"236 -10 CURVE SMOOTH",
"363 -10 OFFCURVE",
"408 46 OFFCURVE",
"456 108 CURVE SMOOTH",
"458 111 OFFCURVE",
"459 111 OFFCURVE",
"461 108 CURVE SMOOTH",
"490 65 OFFCURVE",
"541 -10 OFFCURVE",
"671 -10 CURVE SMOOTH",
"759 -10 OFFCURVE",
"832 25 OFFCURVE",
"879 100 CURVE",
"882 104 OFFCURVE",
"881 108 OFFCURVE",
"878 110 CURVE SMOOTH",
"855 125 LINE",
"851 128 OFFCURVE",
"848 127 OFFCURVE",
"844 121 CURVE",
"807 58 OFFCURVE",
"741 30 OFFCURVE",
"674 30 CURVE SMOOTH",
"571 30 OFFCURVE",
"496 97 OFFCURVE",
"477.515 192.966 CURVE",
"476.437 243.229 LINE",
"479 248 OFFCURVE",
"485 249 OFFCURVE",
"489 249 CURVE SMOOTH",
"885 250 LINE SMOOTH",
"900 250 OFFCURVE",
"898 255 OFFCURVE",
"898 264 CURVE"
);
},
{
closed = 1;
nodes = (
"475 291 LINE",
"475 411 OFFCURVE",
"561 500 OFFCURVE",
"666 500 CURVE SMOOTH",
"770 500 OFFCURVE",
"849 414 OFFCURVE",
"849 307 CURVE SMOOTH",
"849 294 OFFCURVE",
"848 290 OFFCURVE",
"832 290 CURVE SMOOTH"
);
},
{
closed = 1;
nodes = (
"146 26 OFFCURVE",
"90 71 OFFCURVE",
"90 138 CURVE SMOOTH",
"90 215 OFFCURVE",
"162 260 OFFCURVE",
"324 272 CURVE SMOOTH",
"419 279 LINE SMOOTH",
"432 280 OFFCURVE",
"434 275 OFFCURVE",
"434 265 CURVE SMOOTH",
"434 177 LINE",
"434 98 OFFCURVE",
"349 33 OFFCURVE",
"241 29 CURVE SMOOTH"
);
}
);
};
hints = (
{
horizontal = 1;
place = "{4037.000000, 100.000000}";
}
);
layerId = "91AB5BCA-6A50-42DA-B2F7-8181BF189245";
name = Light;
paths = (
{
closed = 1;
nodes = (
"885 250 LINE SMOOTH",
"899 250 OFFCURVE",
"898 254 OFFCURVE",
"898 264 CURVE SMOOTH",
"890 440 OFFCURVE",
"810 540 OFFCURVE",
"669 540 CURVE SMOOTH",
"573 540 OFFCURVE",
"506 493 OFFCURVE",
"466.345 412.242 CURVE",
"445 492 OFFCURVE",
"380 540 OFFCURVE",
"277 540 CURVE SMOOTH",
"180 540 OFFCURVE",
"100 498 OFFCURVE",
"63 431 CURVE",
"60 426 OFFCURVE",
"60 423 OFFCURVE",
"63 421 CURVE SMOOTH",
"87 405 LINE SMOOTH",
"91 403 OFFCURVE",
"93 403 OFFCURVE",
"98 409 CURVE SMOOTH",
"152 471 OFFCURVE",
"181 500 OFFCURVE",
"262 500 CURVE SMOOTH",
"371 500 OFFCURVE",
"434 448 OFFCURVE",
"434 363 CURVE SMOOTH",
"434 332 LINE SMOOTH",
"434 323 OFFCURVE",
"428 318 OFFCURVE",
"416 317 CURVE SMOOTH",
"304 308 LINE SMOOTH",
"129 294 OFFCURVE",
"45 234 OFFCURVE",
"45 136 CURVE SMOOTH",
"45 45 OFFCURVE",
"116 -10 OFFCURVE",
"231 -10 CURVE SMOOTH",
"362 -10 OFFCURVE",
"420 62 OFFCURVE",
"456 108 CURVE SMOOTH",
"458 111 OFFCURVE",
"459 111 OFFCURVE",
"461 108 CURVE SMOOTH",
"490 65 OFFCURVE",
"544 -10 OFFCURVE",
"666 -10 CURVE SMOOTH",
"763 -10 OFFCURVE",
"849 37 OFFCURVE",
"879 100 CURVE SMOOTH",
"882 106 OFFCURVE",
"881 108 OFFCURVE",
"878 110 CURVE SMOOTH",
"855 125 LINE SMOOTH",
"850 128 OFFCURVE",
"849 127 OFFCURVE",
"844 121 CURVE SMOOTH",
"815 81 OFFCURVE",
"773 30 OFFCURVE",
"678 30 CURVE SMOOTH",
"556 30 OFFCURVE",
"476 113 OFFCURVE",
"476 221 CURVE SMOOTH",
"476 242 OFFCURVE",
"479 249 OFFCURVE",
"496 249 CURVE SMOOTH"
);
},
{
closed = 1;
nodes = (
"770 500 OFFCURVE",
"849 414 OFFCURVE",
"849 306 CURVE SMOOTH",
"849 294 OFFCURVE",
"848 290 OFFCURVE",
"832 290 CURVE SMOOTH",
"475 291 LINE",
"475 411 OFFCURVE",
"561 500 OFFCURVE",
"666 500 CURVE SMOOTH"
);
},
{
closed = 1;
nodes = (
"434 177 LINE",
"434 99 OFFCURVE",
"348 34 OFFCURVE",
"241 29 CURVE SMOOTH",
"146 25 OFFCURVE",
"90 71 OFFCURVE",
"90 138 CURVE SMOOTH",
"90 215 OFFCURVE",
"162 260 OFFCURVE",
"324 272 CURVE SMOOTH",
"419 279 LINE SMOOTH",
"432 280 OFFCURVE",
"434 275 OFFCURVE",
"434 265 CURVE SMOOTH"
);
}
);
width = 943;
}
);
unicode = 00E6;
},
{
color = 4;
glyphname = b;
lastChange = "2015-08-07 07:12:27 +0000";
layers = (
{
background = {
paths = (
{
closed = 1;
nodes = (
"166 0 OFFCURVE",
"174 7 OFFCURVE",
"179 23 CURVE SMOOTH",
"195 70 LINE SMOOTH",
"198 78 OFFCURVE",
"202 79 OFFCURVE",
"208 73 CURVE SMOOTH",
"247 26 OFFCURVE",
"301 -3 OFFCURVE",
"364 -3 CURVE SMOOTH",
"510 -3 OFFCURVE",
"590 103 OFFCURVE",
"590 269 CURVE SMOOTH",
"590 433 OFFCURVE",
"515 535 OFFCURVE",
"385 535 CURVE SMOOTH",
"340 535 OFFCURVE",
"299 523 OFFCURVE",
"258 488 CURVE SMOOTH",
"248 480 OFFCURVE",
"239 480 OFFCURVE",
"239 496 CURVE SMOOTH",
"239 721 LINE SMOOTH",
"239 734 OFFCURVE",
"233 742 OFFCURVE",
"221 742 CURVE SMOOTH",
"61 742 LINE SMOOTH",
"50 742 OFFCURVE",
"42 734 OFFCURVE",
"42 719 CURVE SMOOTH",
"38 25 LINE SMOOTH",
"38 8 OFFCURVE",
"44 0 OFFCURVE",
"65 0 CURVE SMOOTH",
"153 0 LINE SMOOTH"
);
},
{
closed = 1;
nodes = (
"260 403 OFFCURVE",
"282 418 OFFCURVE",
"313 418 CURVE SMOOTH",
"362 418 OFFCURVE",
"388 381 OFFCURVE",
"388 265 CURVE SMOOTH",
"388 148 OFFCURVE",
"362 107 OFFCURVE",
"310 107 CURVE SMOOTH",
"268 107 OFFCURVE",
"240 135 OFFCURVE",
"240 185 CURVE SMOOTH",
"240 378 LINE"
);
}
);
};
layerId = "258ED206-D907-4350-8EBA-CBDDA1C16BF7";
name = Bold;
paths = (
{
closed = 1;
nodes = (
"165 0 OFFCURVE",
"173 7 OFFCURVE",
"178 23 CURVE SMOOTH",
"194 70 LINE SMOOTH",
"197 78 OFFCURVE",
"201 79 OFFCURVE",
"207 73 CURVE SMOOTH",
"246 22 OFFCURVE",
"300 -10 OFFCURVE",
"363 -10 CURVE SMOOTH",
"509 -10 OFFCURVE",
"590 99 OFFCURVE",
"590 269 CURVE SMOOTH",
"590 436 OFFCURVE",
"514 540 OFFCURVE",
"384 540 CURVE SMOOTH",
"339 540 OFFCURVE",
"298 527 OFFCURVE",
"257 488 CURVE SMOOTH",
"247 480 OFFCURVE",
"238 480 OFFCURVE",
"238 496 CURVE SMOOTH",
"238 721 LINE SMOOTH",
"238 734 OFFCURVE",
"232 742 OFFCURVE",
"220 742 CURVE SMOOTH",
"57 742 LINE SMOOTH",
"46 742 OFFCURVE",
"38 734 OFFCURVE",
"38 719 CURVE SMOOTH",
"38 25 LINE SMOOTH",
"38 8 OFFCURVE",
"44 0 OFFCURVE",
"65 0 CURVE SMOOTH",
"152 0 LINE SMOOTH"
);
},
{
closed = 1;
nodes = (
"258 403 OFFCURVE",
"281 418 OFFCURVE",
"312 418 CURVE SMOOTH",
"361 418 OFFCURVE",
"388 381 OFFCURVE",
"388 265 CURVE SMOOTH",
"388 148 OFFCURVE",
"361 107 OFFCURVE",
"309 107 CURVE SMOOTH",
"267 107 OFFCURVE",
"238 135 OFFCURVE",
"238 185 CURVE SMOOTH",
"238 378 LINE"
);
}
);
width = 613;
},
{
layerId = "91AB5BCA-6A50-42DA-B2F7-8181BF189245";
name = Light;
paths = (
{
closed = 1;
nodes = (
"121 0 OFFCURVE",
"123 3 OFFCURVE",
"124 13 CURVE SMOOTH",
"129 64 LINE SMOOTH",
"130 73 OFFCURVE",
"133 72 OFFCURVE",
"139 67 CURVE SMOOTH",
"156 52 OFFCURVE",
"192 -10 OFFCURVE",
"304 -10 CURVE SMOOTH",
"450 -10 OFFCURVE",
"534 96 OFFCURVE",
"534 267 CURVE SMOOTH",
"534 416 OFFCURVE",
"470 540 OFFCURVE",
"315 540 CURVE SMOOTH",
"209 540 OFFCURVE",
"153 482 OFFCURVE",
"143 473 CURVE SMOOTH",
"134 465 OFFCURVE",
"130 465 OFFCURVE",
"130 478 CURVE SMOOTH",
"130 731 LINE SMOOTH",
"130 739 OFFCURVE",
"128 742 OFFCURVE",
"122 742 CURVE SMOOTH",
"99 742 LINE SMOOTH",
"93 742 OFFCURVE",
"90 739 OFFCURVE",
"90 732 CURVE SMOOTH",
"90 13 LINE SMOOTH",
"90 3 OFFCURVE",
"93 0 OFFCURVE",
"101 0 CURVE SMOOTH",
"109 0 LINE SMOOTH"
);
},
{
closed = 1;
nodes = (
"170 463 OFFCURVE",
"234 498 OFFCURVE",
"308 498 CURVE SMOOTH",
"426 498 OFFCURVE",
"489 409 OFFCURVE",
"489 267 CURVE SMOOTH",
"489 103 OFFCURVE",
"404 29 OFFCURVE",
"300 29 CURVE SMOOTH",
"198 29 OFFCURVE",
"130 101 OFFCURVE",
"130 177 CURVE SMOOTH",
"130 415 LINE"
);
}
);
width = 579;
}
);
unicode = 0062;
},
{
color = 4;
glyphname = c;
lastChange = "2015-08-07 07:12:27 +0000";
layers = (
{
anchors = (
{
name = bottom;
position = "{279, 0}";
},
{
name = top;
position = "{300, 530}";
}
);
background = {
paths = (
{
closed = 1;
nodes = (
"439 537 OFFCURVE",
"518 446 OFFCURVE",
"534 370 CURVE SMOOTH",
"539 353 OFFCURVE",
"533 345 OFFCURVE",
"516 344 CURVE SMOOTH",
"379 337 LINE SMOOTH",
"368 336 OFFCURVE",
"364 340 OFFCURVE",
"362 351 CURVE SMOOTH",
"358 376 OFFCURVE",
"349 414 OFFCURVE",
"301 414 CURVE SMOOTH",
"251 414 OFFCURVE",
"219 372 OFFCURVE",
"219 265 CURVE SMOOTH",
"219 154 OFFCURVE",
"254 114 OFFCURVE",
"312 114 CURVE SMOOTH",
"367 114 OFFCURVE",
"386 148 OFFCURVE",
"411 193 CURVE SMOOTH",
"414 198 OFFCURVE",
"418 200 OFFCURVE",
"431 198 CURVE SMOOTH",
"525 180 LINE SMOOTH",
"536 178 OFFCURVE",
"538 172 OFFCURVE",
"534 157 CURVE SMOOTH",
"524 106 OFFCURVE",
"458 -8 OFFCURVE",
"296 -8 CURVE SMOOTH",
"136 -8 OFFCURVE",
"19 102 OFFCURVE",
"19 263 CURVE SMOOTH",
"19 426 OFFCURVE",
"138 537 OFFCURVE",
"296 537 CURVE SMOOTH"
);
}
);
};
layerId = "258ED206-D907-4350-8EBA-CBDDA1C16BF7";
name = Bold;
paths = (
{
closed = 1;
nodes = (
"142 540 OFFCURVE",
"23 428 OFFCURVE",
"23 263 CURVE SMOOTH",
"23 101 OFFCURVE",
"140 -10 OFFCURVE",
"300 -10 CURVE SMOOTH",
"462 -10 OFFCURVE",
"528 105 OFFCURVE",
"538 157 CURVE SMOOTH",
"542 172 OFFCURVE",
"540 178 OFFCURVE",
"529 180 CURVE SMOOTH",
"435 198 LINE SMOOTH",
"422 200 OFFCURVE",
"418 198 OFFCURVE",
"415 193 CURVE SMOOTH",
"390 148 OFFCURVE",
"371 114 OFFCURVE",
"316 114 CURVE SMOOTH",
"259 114 OFFCURVE",
"225 154 OFFCURVE",
"225 265 CURVE SMOOTH",
"225 372 OFFCURVE",
"256 414 OFFCURVE",
"305 414 CURVE SMOOTH",
"353 414 OFFCURVE",
"362 376 OFFCURVE",
"366 351 CURVE SMOOTH",
"368 340 OFFCURVE",
"372 336 OFFCURVE",
"383 337 CURVE SMOOTH",
"520 344 LINE SMOOTH",
"537 345 OFFCURVE",
"543 353 OFFCURVE",
"538 370 CURVE SMOOTH",
"522 447 OFFCURVE",
"443 540 OFFCURVE",
"300 540 CURVE SMOOTH"
);
}
);
width = 560;
},
{
anchors = (
{
name = bottom;
position = "{286, 0}";
},
{
name = top;
position = "{284, 530}";
}
);
background = {
anchors = (
{
name = ogonek;
position = "{481, 10}";
},
{
name = top;
position = "{257, 530}";
}
);
hints = (
{
place = "{0.000000, 0.000000}";
}
);
};
layerId = "91AB5BCA-6A50-42DA-B2F7-8181BF189245";
name = Light;
paths = (
{
closed = 1;
nodes = (
"144 540 OFFCURVE",
"45 425 OFFCURVE",
"45 263 CURVE SMOOTH",
"45 100 OFFCURVE",
"142 -10 OFFCURVE",
"285 -10 CURVE SMOOTH",
"370 -10 OFFCURVE",
"442 29 OFFCURVE",
"490 107 CURVE SMOOTH",
"492 111 OFFCURVE",
"491 115 OFFCURVE",
"488 117 CURVE SMOOTH",
"465 132 LINE SMOOTH",
"461 135 OFFCURVE",
"459 134 OFFCURVE",
"455 128 CURVE SMOOTH",
"411 60 OFFCURVE",
"357 30 OFFCURVE",
"289 30 CURVE SMOOTH",
"170 30 OFFCURVE",
"92 123 OFFCURVE",
"92 265 CURVE SMOOTH",
"92 407 OFFCURVE",
"170 499 OFFCURVE",
"290 499 CURVE SMOOTH",
"346 499 OFFCURVE",
"391 478 OFFCURVE",
"446 411 CURVE SMOOTH",
"450 406 OFFCURVE",
"454 405 OFFCURVE",
"457 407 CURVE SMOOTH",
"481 423 LINE SMOOTH",
"484 425 OFFCURVE",
"485 427 OFFCURVE",
"481 433 CURVE SMOOTH",
"435 499 OFFCURVE",
"374 540 OFFCURVE",
"285 540 CURVE SMOOTH"
);
}
);
width = 536;
}
);
unicode = 0063;
},
{
color = 4;
glyphname = d;
lastChange = "2015-08-07 07:12:27 +0000";
layers = (
{
anchors = (
{
name = bottom;
position = "{307, 0}";
},
{
name = center;
position = "{307, 265}";
},
{
name = topright;
position = "{593, 530}";
}
);
background = {
paths = (
{
closed = 1;
nodes = (
"541 0 LINE SMOOTH",
"562 0 OFFCURVE",
"568 8 OFFCURVE",
"568 25 CURVE SMOOTH",
"564 719 LINE SMOOTH",
"564 734 OFFCURVE",
"556 742 OFFCURVE",
"545 742 CURVE SMOOTH",
"385 742 LINE SMOOTH",
"373 742 OFFCURVE",
"367 734 OFFCURVE",
"367 721 CURVE SMOOTH",
"367 496 LINE SMOOTH",
"367 480 OFFCURVE",
"358 480 OFFCURVE",
"348 488 CURVE SMOOTH",
"307 523 OFFCURVE",
"269 533 OFFCURVE",
"224 533 CURVE SMOOTH",
"113 533 OFFCURVE",
"12 427 OFFCURVE",
"12 263 CURVE SMOOTH",
"12 85 OFFCURVE",
"95 -6 OFFCURVE",
"214 -6 CURVE SMOOTH",
"276 -6 OFFCURVE",
"315 13 OFFCURVE",
"354 46 CURVE SMOOTH",
"361 52 OFFCURVE",
"369 51 OFFCURVE",
"369 42 CURVE SMOOTH",
"369 23 LINE SMOOTH",
"369 6 OFFCURVE",
"381 0 OFFCURVE",
"394 0 CURVE SMOOTH"
);
},
{
closed = 1;
nodes = (
"366 174 LINE SMOOTH",
"366 135 OFFCURVE",
"335 110 OFFCURVE",
"296 110 CURVE SMOOTH",
"244 110 OFFCURVE",
"217 141 OFFCURVE",
"217 256 CURVE SMOOTH",
"217 373 OFFCURVE",
"248 416 OFFCURVE",
"296 416 CURVE SMOOTH",
"327 416 OFFCURVE",
"345 403 OFFCURVE",
"366 378 CURVE"
);
}
);
};
layerId = "258ED206-D907-4350-8EBA-CBDDA1C16BF7";
name = Bold;
paths = (
{
closed = 1;
nodes = (
"548 0 LINE SMOOTH",
"569 0 OFFCURVE",
"575 8 OFFCURVE",
"575 25 CURVE SMOOTH",
"575 719 LINE SMOOTH",
"575 734 OFFCURVE",
"567 742 OFFCURVE",
"556 742 CURVE SMOOTH",
"394 742 LINE SMOOTH",
"382 742 OFFCURVE",
"376 734 OFFCURVE",
"376 721 CURVE SMOOTH",
"376 496 LINE SMOOTH",
"376 480 OFFCURVE",
"367 480 OFFCURVE",
"357 488 CURVE SMOOTH",
"316 528 OFFCURVE",
"278 540 OFFCURVE",
"233 540 CURVE SMOOTH",
"123 540 OFFCURVE",
"23 431 OFFCURVE",
"23 263 CURVE SMOOTH",
"23 82 OFFCURVE",
"105 -10 OFFCURVE",
"223 -10 CURVE SMOOTH",
"285 -10 OFFCURVE",
"324 10 OFFCURVE",
"363 46 CURVE SMOOTH",
"370 52 OFFCURVE",
"378 51 OFFCURVE",
"378 42 CURVE SMOOTH",
"378 23 LINE SMOOTH",
"378 6 OFFCURVE",
"390 0 OFFCURVE",
"403 0 CURVE SMOOTH"
);
},
{
closed = 1;
nodes = (
"375 176 LINE SMOOTH",
"375 137 OFFCURVE",
"344 110 OFFCURVE",
"305 110 CURVE SMOOTH",
"254 110 OFFCURVE",
"225 149 OFFCURVE",
"225 264 CURVE SMOOTH",
"225 380 OFFCURVE",
"258 416 OFFCURVE",
"305 416 CURVE SMOOTH",
"336 416 OFFCURVE",
"354 403 OFFCURVE",
"375 378 CURVE"
);
}
);
width = 613;
},
{
anchors = (
{
name = bottom;
position = "{290, 0}";
},
{
name = center;
position = "{302, 265}";
},
{
name = topright;
position = "{615, 742}";
}
);
background = {
paths = (
{
closed = 1;
nodes = (
"622 0 LINE SMOOTH",
"643 0 OFFCURVE",
"649 8 OFFCURVE",
"649 25 CURVE SMOOTH",
"649 719 LINE SMOOTH",
"649 734 OFFCURVE",
"641 742 OFFCURVE",
"630 742 CURVE SMOOTH",
"468 742 LINE SMOOTH",
"456 742 OFFCURVE",
"450 734 OFFCURVE",
"450 721 CURVE SMOOTH",
"450 496 LINE SMOOTH",
"450 480 OFFCURVE",
"441 480 OFFCURVE",
"431 488 CURVE SMOOTH",
"390 528 OFFCURVE",
"352 540 OFFCURVE",
"307 540 CURVE SMOOTH",
"197 540 OFFCURVE",
"97 431 OFFCURVE",
"97 263 CURVE SMOOTH",
"97 82 OFFCURVE",
"179 -10 OFFCURVE",
"297 -10 CURVE SMOOTH",
"359 -10 OFFCURVE",
"398 10 OFFCURVE",
"437 46 CURVE SMOOTH",
"444 52 OFFCURVE",
"452 51 OFFCURVE",
"452 42 CURVE SMOOTH",
"452 23 LINE SMOOTH",
"452 6 OFFCURVE",
"464 0 OFFCURVE",
"477 0 CURVE SMOOTH"
);
},
{
closed = 1;
nodes = (
"449 176 LINE SMOOTH",
"449 137 OFFCURVE",
"418 110 OFFCURVE",
"379 110 CURVE SMOOTH",
"328 110 OFFCURVE",
"299 149 OFFCURVE",
"299 264 CURVE SMOOTH",
"299 380 OFFCURVE",
"332 416 OFFCURVE",
"379 416 CURVE SMOOTH",
"410 416 OFFCURVE",
"428 403 OFFCURVE",
"449 378 CURVE"
);
}
);
};
layerId = "91AB5BCA-6A50-42DA-B2F7-8181BF189245";
name = Light;
paths = (
{
closed = 1;
nodes = (
"477 0 LINE SMOOTH",
"486 0 OFFCURVE",
"489 3 OFFCURVE",
"489 12 CURVE SMOOTH",
"489 733 LINE SMOOTH",
"489 739 OFFCURVE",
"486 742 OFFCURVE",
"481 742 CURVE SMOOTH",
"458 742 LINE SMOOTH",
"451 742 OFFCURVE",
"449 739 OFFCURVE",
"449 732 CURVE SMOOTH",
"449 488 LINE SMOOTH",
"449 475 OFFCURVE",
"447 471 OFFCURVE",
"435 481 CURVE SMOOTH",
"404 508 OFFCURVE",
"366 540 OFFCURVE",
"288 540 CURVE SMOOTH",
"141 540 OFFCURVE",
"45 425 OFFCURVE",
"45 255 CURVE SMOOTH",
"45 78 OFFCURVE",
"148 -10 OFFCURVE",
"276 -10 CURVE SMOOTH",
"380 -10 OFFCURVE",
"423 49 OFFCURVE",
"439 66 CURVE SMOOTH",
"447 74 OFFCURVE",
"451 73 OFFCURVE",
"451 62 CURVE SMOOTH",
"451 11 LINE SMOOTH",
"451 4 OFFCURVE",
"454 0 OFFCURVE",
"461 0 CURVE SMOOTH"
);
},
{
closed = 1;
nodes = (
"449 166 LINE SMOOTH",
"449 106 OFFCURVE",
"381 29 OFFCURVE",
"281 29 CURVE SMOOTH",
"181 29 OFFCURVE",
"90 100 OFFCURVE",
"90 259 CURVE SMOOTH",
"90 411 OFFCURVE",
"174 499 OFFCURVE",
"289 499 CURVE SMOOTH",
"350 499 OFFCURVE",
"400 474 OFFCURVE",
"449 426 CURVE"
);
}
);
width = 579;
}
);
unicode = 0064;
},
{
color = 4;
glyphname = eth;
lastChange = "2015-08-07 07:12:27 +0000";
layers = (
{
background = {
paths = (
{
closed = 1;
nodes = (
"144 520 OFFCURVE",
"23 409 OFFCURVE",
"23 252 CURVE SMOOTH",
"23 103 OFFCURVE",
"137 -10 OFFCURVE",
"301 -10 CURVE SMOOTH",
"466 -10 OFFCURVE",
"581 104 OFFCURVE",
"581 252 CURVE SMOOTH",
"581 403 OFFCURVE",
"469 520 OFFCURVE",
"302 520 CURVE SMOOTH"
);
},
{
closed = 1;
nodes = (
"249 118 OFFCURVE",
"225 162 OFFCURVE",
"225 256 CURVE SMOOTH",
"225 351 OFFCURVE",
"249 396 OFFCURVE",
"302 396 CURVE SMOOTH",
"356 396 OFFCURVE",
"379 351 OFFCURVE",
"379 256 CURVE SMOOTH",
"379 163 OFFCURVE",
"356 118 OFFCURVE",
"302 118 CURVE SMOOTH"
);
},
{
closed = 1;
nodes = (
"581 262 LINE",
"581 516 OFFCURVE",
"428 698 OFFCURVE",
"197 750 CURVE SMOOTH",
"185 753 OFFCURVE",
"183 752 OFFCURVE",
"176 746 CURVE SMOOTH",
"92 677 LINE SMOOTH",
"85 671 OFFCURVE",
"88 665 OFFCURVE",
"94 663 CURVE SMOOTH",
"285 597 OFFCURVE",
"379 480 OFFCURVE",
"379 266 CURVE"
);
},
{
closed = 1;
nodes = (
"434 699 OFFCURVE",
"435 704 OFFCURVE",
"432 709 CURVE SMOOTH",
"411 747 LINE SMOOTH",
"407 752 OFFCURVE",
"400 754 OFFCURVE",
"393 749 CURVE SMOOTH",
"105 589 LINE SMOOTH",
"98 586 OFFCURVE",
"95 578 OFFCURVE",
"103 567 CURVE SMOOTH",
"118 543 LINE SMOOTH",
"125 532 OFFCURVE",
"131 530 OFFCURVE",
"142 536 CURVE SMOOTH",
"428 695 LINE SMOOTH"
);
}
);
};
layerId = "258ED206-D907-4350-8EBA-CBDDA1C16BF7";
name = Bold;
paths = (
{
closed = 1;
nodes = (
"581 439.67 OFFCURVE",
"506.139 582.112 OFFCURVE",
"382.087 669.475 CURVE",
"428 695 LINE SMOOTH",
"434 699 OFFCURVE",
"435 704 OFFCURVE",
"432 709 CURVE SMOOTH",
"411 747 LINE SMOOTH",
"407 752 OFFCURVE",
"400 754 OFFCURVE",
"393 749 CURVE SMOOTH",
"318.186 707.437 LINE",
"280.861 725.937 OFFCURVE",
"240.301 740.253 OFFCURVE",
"197 750 CURVE SMOOTH",
"185 753 OFFCURVE",
"183 752 OFFCURVE",
"176 746 CURVE SMOOTH",
"92 677 LINE SMOOTH",
"85 671 OFFCURVE",
"88 665 OFFCURVE",
"94 663 CURVE SMOOTH",
"123.646 652.756 OFFCURVE",
"150.954 641.283 OFFCURVE",
"175.938 628.41 CURVE",
"105 589 LINE SMOOTH",
"98 586 OFFCURVE",
"95 578 OFFCURVE",
"103 567 CURVE SMOOTH",
"118 543 LINE SMOOTH",
"125 532 OFFCURVE",
"131 530 OFFCURVE",
"142 536 CURVE SMOOTH",
"238.433 589.611 LINE",
"265.65 569.197 OFFCURVE",
"285 551 OFFCURVE",
"304 525 CURVE SMOOTH",
"306 522 OFFCURVE",
"306 520 OFFCURVE",
"302 520 CURVE SMOOTH",
"144 520 OFFCURVE",
"23 409 OFFCURVE",
"23 252 CURVE SMOOTH",
"23 103 OFFCURVE",
"137 -10 OFFCURVE",
"301 -10 CURVE SMOOTH",
"468 -10 OFFCURVE",
"581 102 OFFCURVE",
"581 282 CURVE SMOOTH"
);
},
{
closed = 1;
nodes = (
"249 118 OFFCURVE",
"225 162 OFFCURVE",
"225 256 CURVE SMOOTH",
"225 351 OFFCURVE",
"249 396 OFFCURVE",
"302 396 CURVE SMOOTH",
"356 396 OFFCURVE",
"379 351 OFFCURVE",
"379 256 CURVE SMOOTH",
"379 163 OFFCURVE",
"356 118 OFFCURVE",
"302 118 CURVE SMOOTH"
);
}
);
width = 604;
},
{
background = {
paths = (
{
closed = 1;
nodes = (
"531 262 LINE",
"531 466 OFFCURVE",
"438 641 OFFCURVE",
"166 749 CURVE SMOOTH",
"157 753 OFFCURVE",
"153 752 OFFCURVE",
"148 747 CURVE SMOOTH",
"134 735 LINE SMOOTH",
"129 731 OFFCURVE",
"130 726 OFFCURVE",
"135 724 CURVE SMOOTH",
"410 616 OFFCURVE",
"487 440 OFFCURVE",
"487 266 CURVE"
);
},
{
closed = 1;
nodes = (
"414 719 OFFCURVE",
"414 723 OFFCURVE",
"412 726 CURVE SMOOTH",
"399 749 LINE SMOOTH",
"397 752 OFFCURVE",
"392 753 OFFCURVE",
"388 751 CURVE SMOOTH",
"93 586 LINE SMOOTH",
"89 584 OFFCURVE",
"87 579 OFFCURVE",
"92 573 CURVE SMOOTH",
"101 558 LINE SMOOTH",
"105 551 OFFCURVE",
"109 549 OFFCURVE",
"116 553 CURVE SMOOTH",
"410 717 LINE SMOOTH"
);
},
{
closed = 1;
nodes = (
"438 -10 OFFCURVE",
"531 109 OFFCURVE",
"531 241 CURVE SMOOTH",
"531 397 OFFCURVE",
"433 520 OFFCURVE",
"279 520 CURVE SMOOTH",
"143 520 OFFCURVE",
"45 408 OFFCURVE",
"45 252 CURVE SMOOTH",
"45 98 OFFCURVE",
"142 -10 OFFCURVE",
"286 -10 CURVE SMOOTH"
);
},
{
closed = 1;
nodes = (
"174 30 OFFCURVE",
"89 129 OFFCURVE",
"89 254 CURVE SMOOTH",
"89 379 OFFCURVE",
"174 480 OFFCURVE",
"289 480 CURVE SMOOTH",
"403 480 OFFCURVE",
"487 380 OFFCURVE",
"487 254 CURVE SMOOTH",
"487 128 OFFCURVE",
"405 30 OFFCURVE",
"290 30 CURVE SMOOTH"
);
}
);
};
layerId = "91AB5BCA-6A50-42DA-B2F7-8181BF189245";
name = Light;
paths = (
{
closed = 1;
nodes = (
"531 422 OFFCURVE",
"474 564 OFFCURVE",
"318 670 CURVE",
"409 721 LINE SMOOTH",
"412 723 OFFCURVE",
"412 726 OFFCURVE",
"410 729 CURVE SMOOTH",
"399 749 LINE SMOOTH",
"398 751 OFFCURVE",
"393 752 OFFCURVE",
"390 750 CURVE SMOOTH",
"285 691 LINE",
"250 712 OFFCURVE",
"210 731 OFFCURVE",
"166 749 CURVE SMOOTH",
"157 753 OFFCURVE",
"153 752 OFFCURVE",
"148 747 CURVE SMOOTH",
"134 735 LINE SMOOTH",
"129 731 OFFCURVE",
"130 726 OFFCURVE",
"135 724 CURVE SMOOTH",
"177 707 OFFCURVE",
"214 689 OFFCURVE",
"248 670 CURVE",
"93 583 LINE SMOOTH",
"90 581 OFFCURVE",
"88 577 OFFCURVE",
"92 572 CURVE SMOOTH",
"100 559 LINE SMOOTH",
"104 553 OFFCURVE",
"107 551 OFFCURVE",
"113 554 CURVE SMOOTH",
"281 649 LINE",
"367 591 OFFCURVE",
"421 523 OFFCURVE",
"452 451 CURVE",
"409 494 OFFCURVE",
"350 520 OFFCURVE",
"279 520 CURVE SMOOTH",
"143 520 OFFCURVE",
"45 408 OFFCURVE",
"45 252 CURVE SMOOTH",
"45 98 OFFCURVE",
"142 -10 OFFCURVE",
"286 -10 CURVE SMOOTH",
"440 -10 OFFCURVE",
"531 101 OFFCURVE",
"531 255 CURVE SMOOTH"
);
},
{
closed = 1;
nodes = (
"174 30 OFFCURVE",
"89 129 OFFCURVE",
"89 254 CURVE SMOOTH",
"89 379 OFFCURVE",
"174 480 OFFCURVE",
"289 480 CURVE SMOOTH",
"403 480 OFFCURVE",
"487 380 OFFCURVE",
"487 254 CURVE SMOOTH",
"487 128 OFFCURVE",
"405 30 OFFCURVE",
"290 30 CURVE SMOOTH"
);
}
);
width = 576;
}
);
unicode = 00F0;
},
{
color = 4;
glyphname = dcroat;
lastChange = "2015-08-07 07:12:27 +0000";
layers = (
{
components = (
{
name = d;
}
);
layerId = "258ED206-D907-4350-8EBA-CBDDA1C16BF7";
name = Bold;
paths = (
{
closed = 1;
nodes = (
"650 676 OFFCURVE",
"644 683 OFFCURVE",
"634 683 CURVE SMOOTH",
"275 683 LINE SMOOTH",
"265 683 OFFCURVE",
"259 676 OFFCURVE",
"259 663 CURVE SMOOTH",
"259 597 LINE SMOOTH",
"259 582 OFFCURVE",
"264 575 OFFCURVE",
"281 575 CURVE SMOOTH",
"621 575 LINE SMOOTH",
"641 575 OFFCURVE",
"650 582 OFFCURVE",
"650 599 CURVE SMOOTH",
"650 665 LINE SMOOTH"
);
}
);
width = 613;
},
{
components = (
{
name = d;
}
);
layerId = "91AB5BCA-6A50-42DA-B2F7-8181BF189245";
name = Light;
paths = (
{
closed = 1;
nodes = (
"587 645 OFFCURVE",
"585 647 OFFCURVE",
"582 647 CURVE SMOOTH",
"283 647 LINE SMOOTH",
"280 647 OFFCURVE",
"278 645 OFFCURVE",
"278 640 CURVE SMOOTH",
"278 620 LINE SMOOTH",
"278 614 OFFCURVE",
"279 612 OFFCURVE",
"285 612 CURVE SMOOTH",
"577 612 LINE SMOOTH",
"584 612 OFFCURVE",
"587 614 OFFCURVE",
"587 620 CURVE SMOOTH",
"587 641 LINE SMOOTH"
);
}
);
width = 613;
}
);
unicode = 0111;
},
{
color = 4;
glyphname = e;
lastChange = "2015-08-07 07:12:27 +0000";
layers = (
{
anchors = (
{
name = bottom;
position = "{306, 0}";
},
{
name = ogonek;
position = "{398, 10}";
},
{
name = top;
position = "{303, 530}";
}
);
background = {
paths = (
{
closed = 1;
nodes = (
"225 224 OFFCURVE",
"230 229 OFFCURVE",
"240 229 CURVE SMOOTH",
"551 229 LINE SMOOTH",
"568 230 OFFCURVE",
"569 237 OFFCURVE",
"569 254 CURVE SMOOTH",
"569 433 OFFCURVE",
"454 537 OFFCURVE",
"297 537 CURVE SMOOTH",
"149 537 OFFCURVE",
"19 424 OFFCURVE",
"19 256 CURVE SMOOTH",
"19 100 OFFCURVE",
"141 -8 OFFCURVE",
"301 -8 CURVE SMOOTH",
"413 -8 OFFCURVE",
"481 19 OFFCURVE",
"553 118 CURVE SMOOTH",
"562 129 OFFCURVE",
"559 138 OFFCURVE",
"549 142 CURVE SMOOTH",
"458 179 LINE SMOOTH",
"445 184 OFFCURVE",
"442 183 OFFCURVE",
"437 178 CURVE SMOOTH",
"393 135 OFFCURVE",
"362 122 OFFCURVE",
"328 122 CURVE SMOOTH",
"270 122 OFFCURVE",
"225 151 OFFCURVE",
"225 212 CURVE SMOOTH"
);
},
{
closed = 1;
nodes = (
"227 395 OFFCURVE",
"265 423 OFFCURVE",
"306 423 CURVE SMOOTH",
"356 423 OFFCURVE",
"375 372 OFFCURVE",
"375 346 CURVE SMOOTH",
"375 334 OFFCURVE",
"371 332 OFFCURVE",
"358 332 CURVE SMOOTH",
"228 333 LINE"
);
}
);
};
layerId = "258ED206-D907-4350-8EBA-CBDDA1C16BF7";
name = Bold;
paths = (
{
closed = 1;
nodes = (
"229 224 OFFCURVE",
"234 229 OFFCURVE",
"244 229 CURVE SMOOTH",
"555 229 LINE SMOOTH",
"572 230 OFFCURVE",
"573 237 OFFCURVE",
"573 254 CURVE SMOOTH",
"573 435 OFFCURVE",
"458 540 OFFCURVE",
"301 540 CURVE SMOOTH",
"153 540 OFFCURVE",
"23 426 OFFCURVE",
"23 256 CURVE SMOOTH",
"23 99 OFFCURVE",
"145 -10 OFFCURVE",
"305 -10 CURVE SMOOTH",
"417 -10 OFFCURVE",
"485 17 OFFCURVE",
"557 118 CURVE SMOOTH",
"566 129 OFFCURVE",
"563 138 OFFCURVE",
"553 142 CURVE SMOOTH",
"462 179 LINE SMOOTH",
"449 184 OFFCURVE",
"446 183 OFFCURVE",
"441 178 CURVE SMOOTH",
"397 135 OFFCURVE",
"366 122 OFFCURVE",
"332 122 CURVE SMOOTH",
"274 122 OFFCURVE",
"229 151 OFFCURVE",
"229 212 CURVE SMOOTH"
);
},
{
closed = 1;
nodes = (
"231 395 OFFCURVE",
"269 423 OFFCURVE",
"310 423 CURVE SMOOTH",
"360 423 OFFCURVE",
"379 372 OFFCURVE",
"379 346 CURVE SMOOTH",
"379 334 OFFCURVE",
"375 332 OFFCURVE",
"362 332 CURVE SMOOTH",
"232 333 LINE"
);
}
);
width = 595;
},
{
anchors = (
{
name = bottom;
position = "{289, 0}";
},
{
name = ogonek;
position = "{362, 10}";
},
{
name = top;
position = "{286, 530}";
}
);
background = {
paths = (
{
closed = 1;
nodes = (
"216 224 OFFCURVE",
"221 229 OFFCURVE",
"231 229 CURVE SMOOTH",
"542 229 LINE SMOOTH",
"559 230 OFFCURVE",
"560 237 OFFCURVE",
"560 254 CURVE SMOOTH",
"560 435 OFFCURVE",
"445 540 OFFCURVE",
"288 540 CURVE SMOOTH",
"140 540 OFFCURVE",
"10 426 OFFCURVE",
"10 256 CURVE SMOOTH",
"10 99 OFFCURVE",
"132 -10 OFFCURVE",
"292 -10 CURVE SMOOTH",
"404 -10 OFFCURVE",
"472 17 OFFCURVE",
"544 118 CURVE SMOOTH",
"553 129 OFFCURVE",
"550 138 OFFCURVE",
"540 142 CURVE SMOOTH",
"449 179 LINE SMOOTH",
"436 184 OFFCURVE",
"433 183 OFFCURVE",
"428 178 CURVE SMOOTH",
"384 135 OFFCURVE",
"353 122 OFFCURVE",
"319 122 CURVE SMOOTH",
"261 122 OFFCURVE",
"216 151 OFFCURVE",
"216 212 CURVE SMOOTH"
);
},
{
closed = 1;
nodes = (
"218 395 OFFCURVE",
"256 423 OFFCURVE",
"297 423 CURVE SMOOTH",
"347 423 OFFCURVE",
"366 372 OFFCURVE",
"366 346 CURVE SMOOTH",
"366 334 OFFCURVE",
"362 332 OFFCURVE",
"349 332 CURVE SMOOTH",
"219 333 LINE"
);
}
);
};
layerId = "91AB5BCA-6A50-42DA-B2F7-8181BF189245";
name = Light;
paths = (
{
closed = 1;
nodes = (
"93 244 OFFCURVE",
"98 249 OFFCURVE",
"108 249 CURVE SMOOTH",
"504 250 LINE SMOOTH",
"519 250 OFFCURVE",
"517 255 OFFCURVE",
"517 264 CURVE SMOOTH",
"517 432 OFFCURVE",
"426 540 OFFCURVE",
"285 540 CURVE SMOOTH",
"144 540 OFFCURVE",
"45 425 OFFCURVE",
"45 261 CURVE SMOOTH",
"45 100 OFFCURVE",
"144 -10 OFFCURVE",
"288 -10 CURVE SMOOTH",
"382 -10 OFFCURVE",
"452 27 OFFCURVE",
"498 100 CURVE SMOOTH",
"501 104 OFFCURVE",
"500 108 OFFCURVE",
"497 110 CURVE SMOOTH",
"474 125 LINE SMOOTH",
"470 128 OFFCURVE",
"467 127 OFFCURVE",
"463 121 CURVE SMOOTH",
"427 61 OFFCURVE",
"368 30 OFFCURVE",
"288 30 CURVE SMOOTH",
"179 30 OFFCURVE",
"93 119 OFFCURVE",
"93 232 CURVE SMOOTH"
);
},
{
closed = 1;
nodes = (
"91 407 OFFCURVE",
"178 500 OFFCURVE",
"287 500 CURVE SMOOTH",
"389 500 OFFCURVE",
"468 414 OFFCURVE",
"468 304 CURVE SMOOTH",
"468 293 OFFCURVE",
"465 290 OFFCURVE",
"451 290 CURVE SMOOTH",
"92 291 LINE"
);
}
);
width = 562;
}
);
leftMetricsKey = o;
unicode = 0065;
},
{
color = 4;
glyphname = f;
lastChange = "2015-08-07 07:12:27 +0000";
layers = (
{
background = {
paths = (
{
closed = 1;
nodes = (
"297 516 LINE SMOOTH",
"289 516 OFFCURVE",
"284 519 OFFCURVE",
"284 529 CURVE SMOOTH",
"284 559 LINE SMOOTH",
"284 588 OFFCURVE",
"306 612 OFFCURVE",
"329 612 CURVE SMOOTH",
"372 612 LINE SMOOTH",
"384 612 OFFCURVE",
"390 621 OFFCURVE",
"390 632 CURVE",
"389 716 LINE",
"389 732 OFFCURVE",
"379 742 OFFCURVE",
"360 742 CURVE SMOOTH",
"250 742 LINE SMOOTH",
"153 742 OFFCURVE",
"92 688 OFFCURVE",
"92 601 CURVE SMOOTH",
"92 535 LINE SMOOTH",
"92 522 OFFCURVE",
"89 517 OFFCURVE",
"78 517 CURVE SMOOTH",
"30 517 LINE SMOOTH",
"13 517 OFFCURVE",
"6 507 OFFCURVE",
"6 495 CURVE SMOOTH",
"6 411 LINE SMOOTH",
"6 397 OFFCURVE",
"14 392 OFFCURVE",
"28 392 CURVE SMOOTH",
"84 392 LINE SMOOTH",
"90 392 OFFCURVE",
"92 389 OFFCURVE",
"92 382 CURVE SMOOTH",
"92 20 LINE SMOOTH",
"92 7 OFFCURVE",
"99 0 OFFCURVE",
"110 0 CURVE SMOOTH",
"270 0 LINE SMOOTH",
"282 0 OFFCURVE",
"289 7 OFFCURVE",
"289 22 CURVE SMOOTH",
"289 379 LINE SMOOTH",
"289 387 OFFCURVE",
"294 391 OFFCURVE",
"301 391 CURVE SMOOTH",
"363 391 LINE SMOOTH",
"376 391 OFFCURVE",
"385 396 OFFCURVE",
"385 410 CURVE SMOOTH",
"385 494 LINE SMOOTH",
"385 506 OFFCURVE",
"377 516 OFFCURVE",
"360 516 CURVE SMOOTH"
);
}
);
};
layerId = "258ED206-D907-4350-8EBA-CBDDA1C16BF7";
name = Bold;
paths = (
{
closed = 1;
nodes = (
"303 530 LINE SMOOTH",
"295 530 OFFCURVE",
"290 533 OFFCURVE",
"290 543 CURVE SMOOTH",
"290 561 LINE SMOOTH",
"290 589 OFFCURVE",
"312 612 OFFCURVE",
"335 612 CURVE SMOOTH",
"378 612 LINE SMOOTH",
"390 612 OFFCURVE",
"396 621 OFFCURVE",
"396 632 CURVE",
"395 716 LINE",
"395 732 OFFCURVE",
"385 742 OFFCURVE",
"366 742 CURVE SMOOTH",
"253 742 LINE SMOOTH",
"156 742 OFFCURVE",
"95 688 OFFCURVE",
"95 601 CURVE SMOOTH",
"95 548 LINE SMOOTH",
"95 535 OFFCURVE",
"92 530 OFFCURVE",
"81 530 CURVE SMOOTH",
"33 530 LINE SMOOTH",
"16 530 OFFCURVE",
"9 520 OFFCURVE",
"9 508 CURVE SMOOTH",
"9 414 LINE SMOOTH",
"9 400 OFFCURVE",
"17 395 OFFCURVE",
"31 395 CURVE SMOOTH",
"87 395 LINE SMOOTH",
"93 395 OFFCURVE",
"95 392 OFFCURVE",
"95 385 CURVE SMOOTH",
"95 20 LINE SMOOTH",
"95 7 OFFCURVE",
"102 0 OFFCURVE",
"113 0 CURVE SMOOTH",
"276 0 LINE SMOOTH",
"288 0 OFFCURVE",
"295 7 OFFCURVE",
"295 22 CURVE SMOOTH",
"295 383 LINE SMOOTH",
"295 391 OFFCURVE",
"300 395 OFFCURVE",
"307 395 CURVE SMOOTH",
"369 395 LINE SMOOTH",
"382 395 OFFCURVE",
"391 400 OFFCURVE",
"391 414 CURVE SMOOTH",
"391 508 LINE SMOOTH",
"391 520 OFFCURVE",
"383 530 OFFCURVE",
"366 530 CURVE SMOOTH"
);
}
);
width = 400;
},
{
layerId = "91AB5BCA-6A50-42DA-B2F7-8181BF189245";
name = Light;
paths = (
{
closed = 1;
nodes = (
"143 530 LINE SMOOTH",
"138 530 OFFCURVE",
"136 532 OFFCURVE",
"136 537 CURVE SMOOTH",
"136 623 LINE SMOOTH",
"136 674 OFFCURVE",
"163 707 OFFCURVE",
"206 707 CURVE SMOOTH",
"279 707 LINE SMOOTH",
"284 707 OFFCURVE",
"287 709 OFFCURVE",
"287 714 CURVE SMOOTH",
"287 735 LINE SMOOTH",
"287 740 OFFCURVE",
"285 742 OFFCURVE",
"281 742 CURVE SMOOTH",
"209 742 LINE SMOOTH",
"134 742 OFFCURVE",
"96 700 OFFCURVE",
"96 618 CURVE SMOOTH",
"96 537 LINE SMOOTH",
"96 532 OFFCURVE",
"94 530 OFFCURVE",
"89 530 CURVE SMOOTH",
"16 530 LINE SMOOTH",
"12 530 OFFCURVE",
"10 528 OFFCURVE",
"10 524 CURVE SMOOTH",
"10 501 LINE SMOOTH",
"10 497 OFFCURVE",
"12 495 OFFCURVE",
"16 495 CURVE SMOOTH",
"90 495 LINE SMOOTH",
"94 495 OFFCURVE",
"96 492 OFFCURVE",
"96 488 CURVE SMOOTH",
"96 10 LINE SMOOTH",
"96 3 OFFCURVE",
"98 0 OFFCURVE",
"104 0 CURVE SMOOTH",
"127 0 LINE SMOOTH",
"133 0 OFFCURVE",
"136 3 OFFCURVE",
"136 11 CURVE SMOOTH",
"136 488 LINE SMOOTH",
"136 493 OFFCURVE",
"138 495 OFFCURVE",
"143 495 CURVE SMOOTH",
"276 495 LINE SMOOTH",
"280 495 OFFCURVE",
"282 497 OFFCURVE",
"282 501 CURVE SMOOTH",
"282 524 LINE SMOOTH",
"282 528 OFFCURVE",
"280 530 OFFCURVE",
"277 530 CURVE SMOOTH"
);
}
);
width = 272;
}
);
unicode = 0066;
},
{
color = 4;
glyphname = g;
lastChange = "2015-08-07 07:12:27 +0000";
layers = (
{
anchors = (
{
name = top;
position = "{298, 530}";
}
);
background = {
paths = (
{
closed = 1;
nodes = (
"569 550 OFFCURVE",
"527 516 OFFCURVE",
"508 494 CURVE SMOOTH",
"501 485 OFFCURVE",
"490 482 OFFCURVE",
"480 488 CURVE SMOOTH",
"440 517 OFFCURVE",
"380 538 OFFCURVE",
"304 538 CURVE SMOOTH",
"125 538 OFFCURVE",
"34 469 OFFCURVE",
"34 373 CURVE SMOOTH",
"34 312 OFFCURVE",
"72 265 OFFCURVE",
"138 237 CURVE SMOOTH",
"148 231 OFFCURVE",
"141 228 OFFCURVE",
"135 225 CURVE SMOOTH",
"81 202 OFFCURVE",
"26 169 OFFCURVE",
"26 122 CURVE SMOOTH",
"26 81 OFFCURVE",
"57 56 OFFCURVE",
"92 39 CURVE SMOOTH",
"100 35 OFFCURVE",
"102 31 OFFCURVE",
"92 28 CURVE SMOOTH",
"39 13 OFFCURVE",
"-5 -8 OFFCURVE",
"-5 -53 CURVE SMOOTH",
"-5 -137 OFFCURVE",
"97 -175 OFFCURVE",
"306 -175 CURVE SMOOTH",
"507 -175 OFFCURVE",
"609 -99 OFFCURVE",
"609 3 CURVE SMOOTH",
"609 85 OFFCURVE",
"543 143 OFFCURVE",
"395 152 CURVE SMOOTH",
"243 161 LINE SMOOTH",
"214 163 OFFCURVE",
"199 167 OFFCURVE",
"199 182 CURVE SMOOTH",
"199 198 OFFCURVE",
"226 209 OFFCURVE",
"292 209 CURVE SMOOTH",
"460 209 OFFCURVE",
"549 284 OFFCURVE",
"549 374 CURVE SMOOTH",
"549 384 OFFCURVE",
"547 395 OFFCURVE",
"544 405 CURVE SMOOTH",
"540 419 OFFCURVE",
"545 430 OFFCURVE",
"564 430 CURVE SMOOTH",
"579 430 OFFCURVE",
"597 426 OFFCURVE",
"611 422 CURVE SMOOTH",
"626 418 OFFCURVE",
"638 419 OFFCURVE",
"638 443 CURVE SMOOTH",
"638 525 LINE SMOOTH",
"638 543 OFFCURVE",
"629 550 OFFCURVE",
"618 550 CURVE SMOOTH"
);
},
{
closed = 1;
nodes = (
"240 300 OFFCURVE",
"212 334 OFFCURVE",
"212 370 CURVE SMOOTH",
"212 411 OFFCURVE",
"240 445 OFFCURVE",
"290 445 CURVE SMOOTH",
"346 445 OFFCURVE",
"368 411 OFFCURVE",
"368 370 CURVE SMOOTH",
"368 335 OFFCURVE",
"346 300 OFFCURVE",
"290 300 CURVE SMOOTH"
);
},
{
closed = 1;
nodes = (
"413 0 OFFCURVE",
"436 -16 OFFCURVE",
"436 -35 CURVE SMOOTH",
"436 -64 OFFCURVE",
"394 -86 OFFCURVE",
"316 -86 CURVE SMOOTH",
"191 -86 OFFCURVE",
"156 -64 OFFCURVE",
"156 -27 CURVE SMOOTH",
"156 -6 OFFCURVE",
"182 10 OFFCURVE",
"225 8 CURVE SMOOTH",
"370 2 LINE SMOOTH"
);
}
);
};
layerId = "258ED206-D907-4350-8EBA-CBDDA1C16BF7";
name = Bold;
paths = (
{
closed = 1;
nodes = (
"585 562 OFFCURVE",
"529 534 OFFCURVE",
"502 496 CURVE SMOOTH",
"495 486 OFFCURVE",
"481 485 OFFCURVE",
"471 493 CURVE SMOOTH",
"438 519 OFFCURVE",
"380 538 OFFCURVE",
"304 538 CURVE SMOOTH",
"125 538 OFFCURVE",
"34 469 OFFCURVE",
"34 373 CURVE SMOOTH",
"34 312 OFFCURVE",
"72 265 OFFCURVE",
"138 237 CURVE SMOOTH",
"148 231 OFFCURVE",
"141 228 OFFCURVE",
"135 225 CURVE SMOOTH",
"81 202 OFFCURVE",
"26 169 OFFCURVE",
"26 122 CURVE SMOOTH",
"26 81 OFFCURVE",
"57 56 OFFCURVE",
"92 39 CURVE SMOOTH",
"100 35 OFFCURVE",
"102 31 OFFCURVE",
"92 28 CURVE SMOOTH",
"39 13 OFFCURVE",
"-5 -8 OFFCURVE",
"-5 -53 CURVE SMOOTH",
"-5 -137 OFFCURVE",
"97 -175 OFFCURVE",
"306 -175 CURVE SMOOTH",
"507 -175 OFFCURVE",
"609 -99 OFFCURVE",
"609 3 CURVE SMOOTH",
"609 85 OFFCURVE",
"543 143 OFFCURVE",
"395 152 CURVE SMOOTH",
"243 161 LINE SMOOTH",
"214 163 OFFCURVE",
"199 167 OFFCURVE",
"199 182 CURVE SMOOTH",
"199 198 OFFCURVE",
"226 209 OFFCURVE",
"292 209 CURVE SMOOTH",
"460 209 OFFCURVE",
"549 284 OFFCURVE",
"549 374 CURVE SMOOTH",
"549 384 OFFCURVE",
"547 395 OFFCURVE",
"544 405 CURVE SMOOTH",
"540 419 OFFCURVE",
"545 428 OFFCURVE",
"564 428 CURVE SMOOTH",
"576 428 OFFCURVE",
"595 425 OFFCURVE",
"608 421 CURVE SMOOTH",
"623 416 OFFCURVE",
"634 424 OFFCURVE",
"634 447 CURVE SMOOTH",
"634 537 LINE SMOOTH",
"634 555 OFFCURVE",
"625 562 OFFCURVE",
"614 562 CURVE SMOOTH"
);
},
{
closed = 1;
nodes = (
"240 300 OFFCURVE",
"212 334 OFFCURVE",
"212 370 CURVE SMOOTH",
"212 411 OFFCURVE",
"240 445 OFFCURVE",
"290 445 CURVE SMOOTH",
"346 445 OFFCURVE",
"368 411 OFFCURVE",
"368 370 CURVE SMOOTH",
"368 335 OFFCURVE",
"346 300 OFFCURVE",
"290 300 CURVE SMOOTH"
);
},
{
closed = 1;
nodes = (
"413 0 OFFCURVE",
"436 -16 OFFCURVE",
"436 -35 CURVE SMOOTH",
"436 -64 OFFCURVE",
"394 -86 OFFCURVE",
"316 -86 CURVE SMOOTH",
"191 -86 OFFCURVE",
"156 -64 OFFCURVE",
"156 -27 CURVE SMOOTH",
"156 -6 OFFCURVE",
"182 10 OFFCURVE",
"225 8 CURVE SMOOTH",
"370 2 LINE SMOOTH"
);
}
);
width = 626;
},
{
anchors = (
{
name = top;
position = "{283, 530}";
}
);
background = {
paths = (
{
closed = 1;
nodes = (
"510 522 OFFCURVE",
"488 510 OFFCURVE",
"463 486 CURVE SMOOTH",
"449 475 OFFCURVE",
"448 474 OFFCURVE",
"439 483 CURVE SMOOTH",
"396 522 OFFCURVE",
"352 538 OFFCURVE",
"286 538 CURVE SMOOTH",
"154 538 OFFCURVE",
"76 475 OFFCURVE",
"76 369 CURVE SMOOTH",
"76 312 OFFCURVE",
"99 273 OFFCURVE",
"155 234 CURVE SMOOTH",
"161 229 OFFCURVE",
"160 227 OFFCURVE",
"152 223 CURVE SMOOTH",
"102 197 OFFCURVE",
"89 181 OFFCURVE",
"89 159 CURVE SMOOTH",
"89 137 OFFCURVE",
"100 121 OFFCURVE",
"127 109 CURVE SMOOTH",
"134 106 OFFCURVE",
"134 102 OFFCURVE",
"127 98 CURVE SMOOTH",
"64 62 OFFCURVE",
"35 30 OFFCURVE",
"35 -25 CURVE SMOOTH",
"35 -121 OFFCURVE",
"121 -175 OFFCURVE",
"275 -175 CURVE SMOOTH",
"426 -175 OFFCURVE",
"510 -119 OFFCURVE",
"510 -19 CURVE SMOOTH",
"510 60 OFFCURVE",
"457 107 OFFCURVE",
"360 112 CURVE SMOOTH",
"240 119 LINE SMOOTH",
"163 124 OFFCURVE",
"131 134 OFFCURVE",
"131 159 CURVE SMOOTH",
"131 183 OFFCURVE",
"174 209 OFFCURVE",
"279 209 CURVE SMOOTH",
"404 209 OFFCURVE",
"481 274 OFFCURVE",
"481 369 CURVE SMOOTH",
"481 413 OFFCURVE",
"466 427 OFFCURVE",
"466 441 CURVE SMOOTH",
"466 452 OFFCURVE",
"475 461 OFFCURVE",
"488 461 CURVE SMOOTH",
"496 461 OFFCURVE",
"512 458 OFFCURVE",
"523 456 CURVE SMOOTH",
"542 453 OFFCURVE",
"548 458 OFFCURVE",
"548 480 CURVE SMOOTH",
"548 497 LINE SMOOTH",
"548 514 OFFCURVE",
"541 522 OFFCURVE",
"527 522 CURVE SMOOTH"
);
},
{
closed = 1;
nodes = (
"175 247 OFFCURVE",
"118 290 OFFCURVE",
"118 371 CURVE SMOOTH",
"118 453 OFFCURVE",
"176 499 OFFCURVE",
"280 499 CURVE SMOOTH",
"386 499 OFFCURVE",
"439 454 OFFCURVE",
"439 371 CURVE SMOOTH",
"439 289 OFFCURVE",
"388 247 OFFCURVE",
"280 247 CURVE SMOOTH"
);
},
{
closed = 1;
nodes = (
"436 71 OFFCURVE",
"472 34 OFFCURVE",
"472 -27 CURVE SMOOTH",
"472 -101 OFFCURVE",
"408 -137 OFFCURVE",
"287 -137 CURVE SMOOTH",
"153 -137 OFFCURVE",
"77 -94 OFFCURVE",
"77 -21 CURVE SMOOTH",
"77 41 OFFCURVE",
"132 88 OFFCURVE",
"203 84 CURVE SMOOTH",
"359 75 LINE SMOOTH"
);
}
);
};
guideLines = (
{
angle = 90;
position = "{279, 374}";
showMeasurement = 1;
}
);
layerId = "91AB5BCA-6A50-42DA-B2F7-8181BF189245";
name = Light;
paths = (
{
closed = 1;
nodes = (
"502 530 OFFCURVE",
"467 504 OFFCURVE",
"449 489 CURVE SMOOTH",
"441 482 OFFCURVE",
"440 482 OFFCURVE",
"431 490 CURVE SMOOTH",
"396 522 OFFCURVE",
"352 538 OFFCURVE",
"286 538 CURVE SMOOTH",
"154 538 OFFCURVE",
"76 475 OFFCURVE",
"76 369 CURVE SMOOTH",
"76 312 OFFCURVE",
"99 273 OFFCURVE",
"155 234 CURVE SMOOTH",
"161 229 OFFCURVE",
"160 227 OFFCURVE",
"152 223 CURVE SMOOTH",
"102 197 OFFCURVE",
"89 181 OFFCURVE",
"89 159 CURVE SMOOTH",
"89 137 OFFCURVE",
"100 121 OFFCURVE",
"127 109 CURVE SMOOTH",
"134 106 OFFCURVE",
"134 102 OFFCURVE",
"127 98 CURVE SMOOTH",
"64 62 OFFCURVE",
"35 30 OFFCURVE",
"35 -25 CURVE SMOOTH",
"35 -121 OFFCURVE",
"121 -175 OFFCURVE",
"275 -175 CURVE SMOOTH",
"426 -175 OFFCURVE",
"510 -119 OFFCURVE",
"510 -19 CURVE SMOOTH",
"510 60 OFFCURVE",
"457 107 OFFCURVE",
"360 112 CURVE SMOOTH",
"240 119 LINE SMOOTH",
"163 124 OFFCURVE",
"131 134 OFFCURVE",
"131 159 CURVE SMOOTH",
"131 183 OFFCURVE",
"174 209 OFFCURVE",
"279 209 CURVE SMOOTH",
"404 209 OFFCURVE",
"481 274 OFFCURVE",
"481 369 CURVE SMOOTH",
"481 413 OFFCURVE",
"463 431 OFFCURVE",
"463 452 CURVE SMOOTH",
"463 463 OFFCURVE",
"467 469 OFFCURVE",
"475 475 CURVE SMOOTH",
"487 484 OFFCURVE",
"499 486 OFFCURVE",
"525 488 CURVE SMOOTH",
"537 489 OFFCURVE",
"540 495 OFFCURVE",
"540 504 CURVE SMOOTH",
"540 517 LINE SMOOTH",
"540 526 OFFCURVE",
"537 530 OFFCURVE",
"525 530 CURVE SMOOTH"
);
},
{
closed = 1;
nodes = (
"175 247 OFFCURVE",
"118 290 OFFCURVE",
"118 371 CURVE SMOOTH",
"118 453 OFFCURVE",
"176 499 OFFCURVE",
"280 499 CURVE SMOOTH",
"386 499 OFFCURVE",
"439 454 OFFCURVE",
"439 371 CURVE SMOOTH",
"439 289 OFFCURVE",
"388 247 OFFCURVE",
"280 247 CURVE SMOOTH"
);
},
{
closed = 1;
nodes = (
"436 71 OFFCURVE",
"472 34 OFFCURVE",
"472 -27 CURVE SMOOTH",
"472 -101 OFFCURVE",
"408 -137 OFFCURVE",
"287 -137 CURVE SMOOTH",
"153 -137 OFFCURVE",
"77 -94 OFFCURVE",
"77 -21 CURVE SMOOTH",
"77 41 OFFCURVE",
"132 88 OFFCURVE",
"203 84 CURVE SMOOTH",
"359 75 LINE SMOOTH"
);
}
);
width = 583;
}
);
unicode = 0067;
},
{
color = 4;
glyphname = h;
lastChange = "2015-08-07 07:12:27 +0000";
layers = (
{
anchors = (
{
name = bottom;
position = "{302, 0}";
},
{
name = top;
position = "{441, 530}";
}
);
background = {
paths = (
{
closed = 1;
nodes = (
"231 721 LINE SMOOTH",
"231 734 OFFCURVE",
"225 742 OFFCURVE",
"213 742 CURVE SMOOTH",
"56 742 LINE SMOOTH",
"44 742 OFFCURVE",
"37 733 OFFCURVE",
"37 719 CURVE SMOOTH",
"33 25 LINE SMOOTH",
"33 7 OFFCURVE",
"40 0 OFFCURVE",
"59 0 CURVE SMOOTH",
"201 0 LINE SMOOTH",
"225 0 OFFCURVE",
"234 8 OFFCURVE",
"234 29 CURVE SMOOTH",
"234 349 LINE",
"253 383 OFFCURVE",
"276 399 OFFCURVE",
"307 399 CURVE SMOOTH",
"339 399 OFFCURVE",
"359 381 OFFCURVE",
"359 351 CURVE SMOOTH",
"359 25 LINE SMOOTH",
"359 6 OFFCURVE",
"365 0 OFFCURVE",
"382 0 CURVE SMOOTH",
"529 0 LINE SMOOTH",
"550 0 OFFCURVE",
"559 10 OFFCURVE",
"559 30 CURVE SMOOTH",
"559 375 LINE SMOOTH",
"559 479 OFFCURVE",
"502 537 OFFCURVE",
"404 537 CURVE SMOOTH",
"351 537 OFFCURVE",
"313 521 OFFCURVE",
"244 468 CURVE SMOOTH",
"235 462 OFFCURVE",
"231 464 OFFCURVE",
"231 472 CURVE SMOOTH"
);
}
);
};
layerId = "258ED206-D907-4350-8EBA-CBDDA1C16BF7";
name = Bold;
paths = (
{
closed = 1;
nodes = (
"205 0 LINE SMOOTH",
"229 0 OFFCURVE",
"238 8 OFFCURVE",
"238 29 CURVE SMOOTH",
"238 349 LINE",
"257 383 OFFCURVE",
"281 399 OFFCURVE",
"312 399 CURVE SMOOTH",
"344 399 OFFCURVE",
"364 381 OFFCURVE",
"364 351 CURVE SMOOTH",
"364 25 LINE SMOOTH",
"364 6 OFFCURVE",
"370 0 OFFCURVE",
"387 0 CURVE SMOOTH",
"534 0 LINE SMOOTH",
"555 0 OFFCURVE",
"564 10 OFFCURVE",
"564 30 CURVE SMOOTH",
"564 375 LINE SMOOTH",
"564 481 OFFCURVE",
"507 540 OFFCURVE",
"408 540 CURVE SMOOTH",
"355 540 OFFCURVE",
"305 523 OFFCURVE",
"248 468 CURVE SMOOTH",
"240 461 OFFCURVE",
"235 464 OFFCURVE",
"235 472 CURVE SMOOTH",
"235 721 LINE SMOOTH",
"235 734 OFFCURVE",
"229 742 OFFCURVE",
"217 742 CURVE SMOOTH",
"57 742 LINE SMOOTH",
"45 742 OFFCURVE",
"38 733 OFFCURVE",
"38 719 CURVE SMOOTH",
"38 25 LINE SMOOTH",
"38 7 OFFCURVE",
"45 0 OFFCURVE",
"64 0 CURVE SMOOTH"
);
}
);
width = 602;
},
{
anchors = (
{
name = bottom;
position = "{302, 0}";
},
{
name = top;
position = "{324, 530}";
}
);
background = {
paths = (
{
closed = 1;
nodes = (
"98 0 LINE SMOOTH",
"122 0 OFFCURVE",
"131 8 OFFCURVE",
"131 29 CURVE SMOOTH",
"131 349 LINE",
"150 383 OFFCURVE",
"174 399 OFFCURVE",
"205 399 CURVE SMOOTH",
"237 399 OFFCURVE",
"257 381 OFFCURVE",
"257 351 CURVE SMOOTH",
"257 25 LINE SMOOTH",
"257 6 OFFCURVE",
"263 0 OFFCURVE",
"280 0 CURVE SMOOTH",
"427 0 LINE SMOOTH",
"448 0 OFFCURVE",
"457 10 OFFCURVE",
"457 30 CURVE SMOOTH",
"457 375 LINE SMOOTH",
"457 481 OFFCURVE",
"400 540 OFFCURVE",
"301 540 CURVE SMOOTH",
"248 540 OFFCURVE",
"198 523 OFFCURVE",
"141 468 CURVE SMOOTH",
"133 461 OFFCURVE",
"128 464 OFFCURVE",
"128 472 CURVE SMOOTH",
"128 721 LINE SMOOTH",
"128 734 OFFCURVE",
"122 742 OFFCURVE",
"110 742 CURVE SMOOTH",
"-50 742 LINE SMOOTH",
"-62 742 OFFCURVE",
"-69 733 OFFCURVE",
"-69 719 CURVE SMOOTH",
"-69 25 LINE SMOOTH",
"-69 7 OFFCURVE",
"-62 0 OFFCURVE",
"-43 0 CURVE SMOOTH"
);
}
);
};
layerId = "91AB5BCA-6A50-42DA-B2F7-8181BF189245";
name = Light;
paths = (
{
closed = 1;
nodes = (
"121 0 LINE SMOOTH",
"127 0 OFFCURVE",
"130 3 OFFCURVE",
"130 9 CURVE SMOOTH",
"130 402 LINE",
"195 467 OFFCURVE",
"259 499 OFFCURVE",
"322 499 CURVE SMOOTH",
"401 499 OFFCURVE",
"451 449 OFFCURVE",
"451 371 CURVE SMOOTH",
"451 9 LINE SMOOTH",
"451 3 OFFCURVE",
"454 0 OFFCURVE",
"460 0 CURVE SMOOTH",
"482 0 LINE SMOOTH",
"488 0 OFFCURVE",
"491 3 OFFCURVE",
"491 10 CURVE SMOOTH",
"491 393 LINE SMOOTH",
"491 480 OFFCURVE",
"421 540 OFFCURVE",
"329 540 CURVE SMOOTH",
"257 540 OFFCURVE",
"222 523 OFFCURVE",
"135 451 CURVE SMOOTH",
"129 446 OFFCURVE",
"127 447 OFFCURVE",
"127 454 CURVE SMOOTH",
"127 734 LINE SMOOTH",
"127 740 OFFCURVE",
"125 742 OFFCURVE",
"119 742 CURVE SMOOTH",
"98 742 LINE SMOOTH",
"92 742 OFFCURVE",
"90 739 OFFCURVE",
"90 733 CURVE SMOOTH",
"90 9 LINE SMOOTH",
"90 3 OFFCURVE",
"93 0 OFFCURVE",
"99 0 CURVE SMOOTH"
);
}
);
width = 581;
}
);
leftMetricsKey = n;
rightMetricsKey = n;
unicode = 0068;
},
{
color = 4;
glyphname = hbar;
lastChange = "2015-08-07 07:12:27 +0000";
layers = (
{
components = (
{
name = h;
}
);
layerId = "258ED206-D907-4350-8EBA-CBDDA1C16BF7";
name = Bold;
paths = (
{
closed = 1;
nodes = (
"337 690 OFFCURVE",
"331 697 OFFCURVE",
"321 697 CURVE SMOOTH",
"-4 697 LINE SMOOTH",
"-14 697 OFFCURVE",
"-20 690 OFFCURVE",
"-20 677 CURVE SMOOTH",
"-20 611 LINE SMOOTH",
"-20 596 OFFCURVE",
"-15 589 OFFCURVE",
"2 589 CURVE SMOOTH",
"308 589 LINE SMOOTH",
"328 589 OFFCURVE",
"337 596 OFFCURVE",
"337 613 CURVE SMOOTH",
"337 679 LINE SMOOTH"
);
}
);
width = 602;
},
{
background = {
paths = (
{
closed = 1;
nodes = (
"337 690 OFFCURVE",
"331 697 OFFCURVE",
"321 697 CURVE SMOOTH",
"-4 697 LINE SMOOTH",
"-14 697 OFFCURVE",
"-20 690 OFFCURVE",
"-20 677 CURVE SMOOTH",
"-20 611 LINE SMOOTH",
"-20 596 OFFCURVE",
"-15 589 OFFCURVE",
"2 589 CURVE SMOOTH",
"308 589 LINE SMOOTH",
"328 589 OFFCURVE",
"337 596 OFFCURVE",
"337 613 CURVE SMOOTH",
"337 679 LINE SMOOTH"
);
}
);
};
components = (
{
name = h;
}
);
layerId = "91AB5BCA-6A50-42DA-B2F7-8181BF189245";
name = Light;
paths = (
{
closed = 1;
nodes = (
"307 660 OFFCURVE",
"305 662 OFFCURVE",
"302 662 CURVE SMOOTH",
"-15 662 LINE SMOOTH",
"-18 662 OFFCURVE",
"-20 660 OFFCURVE",
"-20 655 CURVE SMOOTH",
"-20 635 LINE SMOOTH",
"-20 629 OFFCURVE",
"-19 627 OFFCURVE",
"-13 627 CURVE SMOOTH",
"297 627 LINE SMOOTH",
"304 627 OFFCURVE",
"307 629 OFFCURVE",
"307 635 CURVE SMOOTH",
"307 656 LINE SMOOTH"
);
}
);
width = 602;
}
);
unicode = 0127;
},
{
color = 4;
glyphname = i;
lastChange = "2015-08-07 07:12:27 +0000";
layers = (
{
background = {
paths = (
{
closed = 1;
nodes = (
"241 522 OFFCURVE",
"234 530 OFFCURVE",
"223 530 CURVE SMOOTH",
"65 530 LINE SMOOTH",
"53 530 OFFCURVE",
"46 522 OFFCURVE",
"46 507 CURVE SMOOTH",
"46 25 LINE SMOOTH",
"46 8 OFFCURVE",
"52 0 OFFCURVE",
"72 0 CURVE SMOOTH",
"208 0 LINE SMOOTH",
"231 0 OFFCURVE",
"241 8 OFFCURVE",
"241 29 CURVE SMOOTH",
"241 510 LINE SMOOTH"
);
},
{
closed = 1;
nodes = (
"241 734 OFFCURVE",
"234 742 OFFCURVE",
"223 742 CURVE SMOOTH",
"65 742 LINE SMOOTH",
"53 742 OFFCURVE",
"46 734 OFFCURVE",
"46 719 CURVE SMOOTH",
"46 600 LINE SMOOTH",
"46 583 OFFCURVE",
"52 574 OFFCURVE",
"72 574 CURVE SMOOTH",
"208 574 LINE SMOOTH",
"231 574 OFFCURVE",
"241 583 OFFCURVE",
"241 603 CURVE SMOOTH",
"241 721 LINE SMOOTH"
);
}
);
};
layerId = "258ED206-D907-4350-8EBA-CBDDA1C16BF7";
name = Bold;
paths = (
{
closed = 1;
nodes = (
"245 522 OFFCURVE",
"238 530 OFFCURVE",
"227 530 CURVE SMOOTH",
"64 530 LINE SMOOTH",
"52 530 OFFCURVE",
"45 522 OFFCURVE",
"45 507 CURVE SMOOTH",
"45 25 LINE SMOOTH",
"45 8 OFFCURVE",
"51 0 OFFCURVE",
"71 0 CURVE SMOOTH",
"212 0 LINE SMOOTH",
"235 0 OFFCURVE",
"245 8 OFFCURVE",
"245 29 CURVE SMOOTH",
"245 510 LINE SMOOTH"
);
},
{
closed = 1;
nodes = (
"245 734 OFFCURVE",
"238 742 OFFCURVE",
"227 742 CURVE SMOOTH",
"64 742 LINE SMOOTH",
"52 742 OFFCURVE",
"45 734 OFFCURVE",
"45 719 CURVE SMOOTH",
"45 600 LINE SMOOTH",
"45 583 OFFCURVE",
"51 574 OFFCURVE",
"71 574 CURVE SMOOTH",
"212 574 LINE SMOOTH",
"235 574 OFFCURVE",
"245 583 OFFCURVE",
"245 603 CURVE SMOOTH",
"245 721 LINE SMOOTH"
);
}
);
width = 290;
},
{
background = {
paths = (
{
closed = 1;
nodes = (
"210 522 OFFCURVE",
"203 530 OFFCURVE",
"192 530 CURVE SMOOTH",
"29 530 LINE SMOOTH",
"17 530 OFFCURVE",
"10 522 OFFCURVE",
"10 507 CURVE SMOOTH",
"10 25 LINE SMOOTH",
"10 8 OFFCURVE",
"16 0 OFFCURVE",
"36 0 CURVE SMOOTH",
"177 0 LINE SMOOTH",
"200 0 OFFCURVE",
"210 8 OFFCURVE",
"210 29 CURVE SMOOTH",
"210 510 LINE SMOOTH"
);
},
{
closed = 1;
nodes = (
"210 734 OFFCURVE",
"203 742 OFFCURVE",
"192 742 CURVE SMOOTH",
"29 742 LINE SMOOTH",
"17 742 OFFCURVE",
"10 734 OFFCURVE",
"10 719 CURVE SMOOTH",
"10 600 LINE SMOOTH",
"10 583 OFFCURVE",
"16 574 OFFCURVE",
"36 574 CURVE SMOOTH",
"177 574 LINE SMOOTH",
"200 574 OFFCURVE",
"210 583 OFFCURVE",
"210 603 CURVE SMOOTH",
"210 721 LINE SMOOTH"
);
}
);
};
layerId = "91AB5BCA-6A50-42DA-B2F7-8181BF189245";
name = Light;
paths = (
{
closed = 1;
nodes = (
"130 528 OFFCURVE",
"128 530 OFFCURVE",
"121 530 CURVE SMOOTH",
"99 530 LINE SMOOTH",
"92 530 OFFCURVE",
"90 528 OFFCURVE",
"90 520 CURVE SMOOTH",
"90 10 LINE SMOOTH",
"90 2 OFFCURVE",
"92 0 OFFCURVE",
"101 0 CURVE SMOOTH",
"118 0 LINE SMOOTH",
"128 0 OFFCURVE",
"130 2 OFFCURVE",
"130 12 CURVE SMOOTH",
"130 520 LINE SMOOTH"
);
},
{
closed = 1;
nodes = (
"135 740 OFFCURVE",
"133 742 OFFCURVE",
"126 742 CURVE SMOOTH",
"94 742 LINE SMOOTH",
"87 742 OFFCURVE",
"85 740 OFFCURVE",
"85 732 CURVE SMOOTH",
"85 654 LINE SMOOTH",
"85 646 OFFCURVE",
"87 644 OFFCURVE",
"96 644 CURVE SMOOTH",
"123 644 LINE SMOOTH",
"133 644 OFFCURVE",
"135 646 OFFCURVE",
"135 656 CURVE SMOOTH",
"135 732 LINE SMOOTH"
);
}
);
width = 220;
}
);
unicode = 0069;
},
{
glyphname = dotlessi;
lastChange = "2015-09-05 20:14:38 +0000";
layers = (
{
anchors = (
{
name = ogonek;
position = "{213, 9}";
},
{
name = top;
position = "{145, 530}";
}
);
layerId = "258ED206-D907-4350-8EBA-CBDDA1C16BF7";
name = Bold;
paths = (
{
closed = 1;
nodes = (
"245 522 OFFCURVE",
"238 530 OFFCURVE",
"227 530 CURVE SMOOTH",
"64 530 LINE SMOOTH",
"52 530 OFFCURVE",
"45 522 OFFCURVE",
"45 507 CURVE SMOOTH",
"45 25 LINE SMOOTH",
"45 8 OFFCURVE",
"51 0 OFFCURVE",
"71 0 CURVE SMOOTH",
"212 0 LINE SMOOTH",
"235 0 OFFCURVE",
"245 8 OFFCURVE",
"245 29 CURVE SMOOTH",
"245 510 LINE SMOOTH"
);
}
);
width = 290;
},
{
anchors = (
{
name = ogonek;
position = "{157, 13}";
},
{
name = top;
position = "{145, 530}";
}
);
background = {
paths = (
{
closed = 1;
nodes = (
"245 522 OFFCURVE",
"238 530 OFFCURVE",
"227 530 CURVE SMOOTH",
"64 530 LINE SMOOTH",
"52 530 OFFCURVE",
"45 522 OFFCURVE",
"45 507 CURVE SMOOTH",
"45 25 LINE SMOOTH",
"45 8 OFFCURVE",
"51 0 OFFCURVE",
"71 0 CURVE SMOOTH",
"212 0 LINE SMOOTH",
"235 0 OFFCURVE",
"245 8 OFFCURVE",
"245 29 CURVE SMOOTH",
"245 510 LINE SMOOTH"
);
}
);
};
layerId = "91AB5BCA-6A50-42DA-B2F7-8181BF189245";
name = Light;
paths = (
{
closed = 1;
nodes = (
"165 528 OFFCURVE",
"163 530 OFFCURVE",
"156 530 CURVE SMOOTH",
"134 530 LINE SMOOTH",
"127 530 OFFCURVE",
"125 528 OFFCURVE",
"125 520 CURVE SMOOTH",
"125 10 LINE SMOOTH",
"125 2 OFFCURVE",
"127 0 OFFCURVE",
"136 0 CURVE SMOOTH",
"153 0 LINE SMOOTH",
"163 0 OFFCURVE",
"165 2 OFFCURVE",
"165 12 CURVE SMOOTH",
"165 520 LINE SMOOTH"
);
}
);
width = 290;
}
);
leftMetricsKey = "=i";
rightMetricsKey = "=i";
unicode = 0131;
},
{
color = 4;
glyphname = j;
lastChange = "2015-08-07 07:12:27 +0000";
layers = (
{
background = {
paths = (
{
closed = 1;
nodes = (
"245 510 LINE SMOOTH",
"245 522 OFFCURVE",
"239 530 OFFCURVE",
"227 530 CURVE SMOOTH",
"68 530 LINE SMOOTH",
"56 530 OFFCURVE",
"48 522 OFFCURVE",
"48 507 CURVE SMOOTH",
"48 36 LINE SMOOTH",
"48 2 OFFCURVE",
"37 -6 OFFCURVE",
"24 -10 CURVE SMOOTH",
"-1 -16 LINE SMOOTH",
"-14 -19 OFFCURVE",
"-21 -32 OFFCURVE",
"-21 -43 CURVE SMOOTH",
"-20 -140 LINE SMOOTH",
"-20 -161 OFFCURVE",
"-11 -165 OFFCURVE",
"35 -165 CURVE SMOOTH",
"152 -165 OFFCURVE",
"245 -100 OFFCURVE",
"245 29 CURVE SMOOTH"
);
},
{
closed = 1;
nodes = (
"245 734 OFFCURVE",
"239 742 OFFCURVE",
"227 742 CURVE SMOOTH",
"68 742 LINE SMOOTH",
"56 742 OFFCURVE",
"48 734 OFFCURVE",
"48 719 CURVE SMOOTH",
"48 600 LINE SMOOTH",
"48 583 OFFCURVE",
"55 574 OFFCURVE",
"75 574 CURVE SMOOTH",
"213 574 LINE SMOOTH",
"236 574 OFFCURVE",
"245 583 OFFCURVE",
"245 603 CURVE SMOOTH",
"245 721 LINE SMOOTH"
);
}
);
};
layerId = "258ED206-D907-4350-8EBA-CBDDA1C16BF7";
name = Bold;
paths = (
{
closed = 1;
nodes = (
"248 510 LINE SMOOTH",
"248 522 OFFCURVE",
"242 530 OFFCURVE",
"230 530 CURVE SMOOTH",
"68 530 LINE SMOOTH",
"56 530 OFFCURVE",
"48 522 OFFCURVE",
"48 507 CURVE SMOOTH",
"48 36 LINE SMOOTH",
"48 2 OFFCURVE",
"37 -6 OFFCURVE",
"24 -10 CURVE SMOOTH",
"-1 -16 LINE SMOOTH",
"-14 -19 OFFCURVE",
"-21 -32 OFFCURVE",
"-21 -43 CURVE SMOOTH",
"-20 -145 LINE SMOOTH",
"-20 -166 OFFCURVE",
"-8 -170 OFFCURVE",
"38 -170 CURVE SMOOTH",
"155 -170 OFFCURVE",
"248 -103 OFFCURVE",
"248 29 CURVE SMOOTH"
);
},
{
closed = 1;
nodes = (
"248 734 OFFCURVE",
"242 742 OFFCURVE",
"230 742 CURVE SMOOTH",
"68 742 LINE SMOOTH",
"56 742 OFFCURVE",
"48 734 OFFCURVE",
"48 719 CURVE SMOOTH",
"48 600 LINE SMOOTH",
"48 583 OFFCURVE",
"55 574 OFFCURVE",
"75 574 CURVE SMOOTH",
"216 574 LINE SMOOTH",
"239 574 OFFCURVE",
"248 583 OFFCURVE",
"248 603 CURVE SMOOTH",
"248 721 LINE SMOOTH"
);
}
);
width = 290;
},
{
background = {
paths = (
{
closed = 1;
nodes = (
"248 510 LINE SMOOTH",
"248 522 OFFCURVE",
"242 530 OFFCURVE",
"230 530 CURVE SMOOTH",
"68 530 LINE SMOOTH",
"56 530 OFFCURVE",
"48 522 OFFCURVE",
"48 507 CURVE SMOOTH",
"48 36 LINE SMOOTH",
"48 2 OFFCURVE",
"37 -6 OFFCURVE",
"24 -10 CURVE SMOOTH",
"-1 -16 LINE SMOOTH",
"-14 -19 OFFCURVE",
"-21 -32 OFFCURVE",
"-21 -43 CURVE SMOOTH",
"-20 -145 LINE SMOOTH",
"-20 -166 OFFCURVE",
"-8 -170 OFFCURVE",
"38 -170 CURVE SMOOTH",
"155 -170 OFFCURVE",
"248 -103 OFFCURVE",
"248 29 CURVE SMOOTH"
);
},
{
closed = 1;
nodes = (
"248 734 OFFCURVE",
"242 742 OFFCURVE",
"230 742 CURVE SMOOTH",
"68 742 LINE SMOOTH",
"56 742 OFFCURVE",
"48 734 OFFCURVE",
"48 719 CURVE SMOOTH",
"48 600 LINE SMOOTH",
"48 583 OFFCURVE",
"55 574 OFFCURVE",
"75 574 CURVE SMOOTH",
"216 574 LINE SMOOTH",
"239 574 OFFCURVE",
"248 583 OFFCURVE",
"248 603 CURVE SMOOTH",
"248 721 LINE SMOOTH"
);
}
);
};
layerId = "91AB5BCA-6A50-42DA-B2F7-8181BF189245";
name = Light;
paths = (
{
closed = 1;
nodes = (
"151 520 LINE SMOOTH",
"151 527 OFFCURVE",
"149 530 OFFCURVE",
"143 530 CURVE SMOOTH",
"121 530 LINE SMOOTH",
"114 530 OFFCURVE",
"111 527 OFFCURVE",
"111 520 CURVE SMOOTH",
"111 -46 LINE SMOOTH",
"111 -110 OFFCURVE",
"90 -134 OFFCURVE",
"37 -135 CURVE SMOOTH",
"-14 -136 LINE SMOOTH",
"-18 -136 OFFCURVE",
"-20 -138 OFFCURVE",
"-20 -142 CURVE SMOOTH",
"-20 -161 LINE SMOOTH",
"-20 -169 OFFCURVE",
"-14 -170 OFFCURVE",
"38 -170 CURVE SMOOTH",
"118 -170 OFFCURVE",
"151 -123 OFFCURVE",
"151 -41 CURVE SMOOTH"
);
},
{
closed = 1;
nodes = (
"156 740 OFFCURVE",
"154 742 OFFCURVE",
"147 742 CURVE SMOOTH",
"115 742 LINE SMOOTH",
"108 742 OFFCURVE",
"106 740 OFFCURVE",
"106 732 CURVE SMOOTH",
"106 654 LINE SMOOTH",
"106 646 OFFCURVE",
"108 644 OFFCURVE",
"117 644 CURVE SMOOTH",
"144 644 LINE SMOOTH",
"154 644 OFFCURVE",
"156 646 OFFCURVE",
"156 656 CURVE SMOOTH",
"156 732 LINE SMOOTH"
);
}
);
width = 241;
}
);
unicode = 006A;
},
{
glyphname = dotlessj;
lastChange = "2015-07-28 22:41:36 +0000";
layers = (
{
anchors = (
{
name = top;
position = "{154, 530}";
}
);
layerId = "258ED206-D907-4350-8EBA-CBDDA1C16BF7";
name = Bold;
paths = (
{
closed = 1;
nodes = (
"248 510 LINE SMOOTH",
"248 522 OFFCURVE",
"242 530 OFFCURVE",
"230 530 CURVE SMOOTH",
"68 530 LINE SMOOTH",
"56 530 OFFCURVE",
"48 522 OFFCURVE",
"48 507 CURVE SMOOTH",
"48 36 LINE SMOOTH",
"48 2 OFFCURVE",
"37 -6 OFFCURVE",
"24 -10 CURVE SMOOTH",
"-1 -16 LINE SMOOTH",
"-14 -19 OFFCURVE",
"-21 -32 OFFCURVE",
"-21 -43 CURVE SMOOTH",
"-20 -145 LINE SMOOTH",
"-20 -166 OFFCURVE",
"-8 -170 OFFCURVE",
"38 -170 CURVE SMOOTH",
"155 -170 OFFCURVE",
"248 -103 OFFCURVE",
"248 29 CURVE SMOOTH"
);
}
);
width = 290;
},
{
anchors = (
{
name = top;
position = "{132, 530}";
}
);
background = {
paths = (
{
closed = 1;
nodes = (
"111 -51 LINE",
"111 -102 OFFCURVE",
"84 -135 OFFCURVE",
"41 -135 CURVE SMOOTH",
"-12 -135 LINE SMOOTH",
"-17 -135 OFFCURVE",
"-20 -137 OFFCURVE",
"-20 -142 CURVE SMOOTH",
"-20 -163 LINE SMOOTH",
"-20 -168 OFFCURVE",
"-18 -170 OFFCURVE",
"-14 -170 CURVE SMOOTH",
"38 -170 LINE SMOOTH",
"113 -170 OFFCURVE",
"151 -128 OFFCURVE",
"151 -46 CURVE",
"151 520 LINE",
"151 527 OFFCURVE",
"149 530 OFFCURVE",
"143 530 CURVE SMOOTH",
"120 530 LINE SMOOTH",
"114 530 OFFCURVE",
"111 527 OFFCURVE",
"111 519 CURVE"
);
}
);
};
layerId = "91AB5BCA-6A50-42DA-B2F7-8181BF189245";
name = Light;
paths = (
{
closed = 1;
nodes = (
"151 520 LINE SMOOTH",
"151 527 OFFCURVE",
"149 530 OFFCURVE",
"143 530 CURVE SMOOTH",
"121 530 LINE SMOOTH",
"114 530 OFFCURVE",
"111 527 OFFCURVE",
"111 520 CURVE SMOOTH",
"111 -46 LINE SMOOTH",
"111 -110 OFFCURVE",
"90 -134 OFFCURVE",
"37 -135 CURVE SMOOTH",
"-14 -136 LINE SMOOTH",
"-18 -136 OFFCURVE",
"-20 -138 OFFCURVE",
"-20 -142 CURVE SMOOTH",
"-20 -161 LINE SMOOTH",
"-20 -169 OFFCURVE",
"-14 -170 OFFCURVE",
"38 -170 CURVE SMOOTH",
"118 -170 OFFCURVE",
"151 -123 OFFCURVE",
"151 -41 CURVE SMOOTH"
);
}
);
width = 241;
}
);
unicode = 0237;
},
{
color = 4;
glyphname = k;
lastChange = "2015-08-07 07:12:27 +0000";
layers = (
{
anchors = (
{
name = bottom;
position = "{298, 0}";
}
);
background = {
paths = (
{
closed = 1;
nodes = (
"447 337 LINE SMOOTH",
"438 355 OFFCURVE",
"440 361 OFFCURVE",
"449 372 CURVE SMOOTH",
"578 501 LINE SMOOTH",
"591 515 OFFCURVE",
"587 530 OFFCURVE",
"564 530 CURVE SMOOTH",
"427 530 LINE SMOOTH",
"417 530 OFFCURVE",
"406 523 OFFCURVE",
"396 513 CURVE SMOOTH",
"246 344 LINE SMOOTH",
"238 335 OFFCURVE",
"234 340 OFFCURVE",
"234 346 CURVE SMOOTH",
"234 721 LINE SMOOTH",
"234 734 OFFCURVE",
"228 742 OFFCURVE",
"216 742 CURVE SMOOTH",
"56 742 LINE SMOOTH",
"45 742 OFFCURVE",
"37 734 OFFCURVE",
"37 719 CURVE SMOOTH",
"33 25 LINE SMOOTH",
"33 8 OFFCURVE",
"39 0 OFFCURVE",
"60 0 CURVE SMOOTH",
"202 0 LINE SMOOTH",
"225 0 OFFCURVE",
"234 8 OFFCURVE",
"234 29 CURVE SMOOTH",
"234 130 LINE SMOOTH",
"234 146 OFFCURVE",
"237 153 OFFCURVE",
"243 158 CURVE SMOOTH",
"291 203 LINE SMOOTH",
"301 213 OFFCURVE",
"306 211 OFFCURVE",
"312 198 CURVE SMOOTH",
"384 26 LINE SMOOTH",
"391 10 OFFCURVE",
"400 0 OFFCURVE",
"417 0 CURVE SMOOTH",
"588 0 LINE SMOOTH",
"606 0 OFFCURVE",
"613 17 OFFCURVE",
"607 28 CURVE SMOOTH"
);
}
);
};
layerId = "258ED206-D907-4350-8EBA-CBDDA1C16BF7";
name = Bold;
paths = (
{
closed = 1;
nodes = (
"451 337 LINE SMOOTH",
"442 355 OFFCURVE",
"444 361 OFFCURVE",
"453 372 CURVE SMOOTH",
"582 501 LINE SMOOTH",
"595 515 OFFCURVE",
"591 530 OFFCURVE",
"568 530 CURVE SMOOTH",
"431 530 LINE SMOOTH",
"421 530 OFFCURVE",
"410 523 OFFCURVE",
"400 513 CURVE SMOOTH",
"250 344 LINE SMOOTH",
"242 335 OFFCURVE",
"238 340 OFFCURVE",
"238 346 CURVE SMOOTH",
"238 721 LINE SMOOTH",
"238 734 OFFCURVE",
"232 742 OFFCURVE",
"220 742 CURVE SMOOTH",
"57 742 LINE SMOOTH",
"46 742 OFFCURVE",
"38 734 OFFCURVE",
"38 719 CURVE SMOOTH",
"38 25 LINE SMOOTH",
"38 8 OFFCURVE",
"44 0 OFFCURVE",
"65 0 CURVE SMOOTH",
"206 0 LINE SMOOTH",
"229 0 OFFCURVE",
"238 8 OFFCURVE",
"238 29 CURVE SMOOTH",
"238 130 LINE SMOOTH",
"238 146 OFFCURVE",
"241 153 OFFCURVE",
"247 158 CURVE SMOOTH",
"295 203 LINE SMOOTH",
"305 213 OFFCURVE",
"310 211 OFFCURVE",
"316 198 CURVE SMOOTH",
"388 26 LINE SMOOTH",
"395 10 OFFCURVE",
"404 0 OFFCURVE",
"421 0 CURVE SMOOTH",
"592 0 LINE SMOOTH",
"610 0 OFFCURVE",
"617 17 OFFCURVE",
"611 28 CURVE SMOOTH"
);
}
);
width = 595;
},
{
anchors = (
{
name = bottom;
position = "{272, 0}";
}
);
background = {
paths = (
{
closed = 1;
nodes = (
"130 740 OFFCURVE",
"128 742 OFFCURVE",
"121 742 CURVE SMOOTH",
"99 742 LINE SMOOTH",
"92 742 OFFCURVE",
"90 740 OFFCURVE",
"90 732 CURVE SMOOTH",
"90 10 LINE SMOOTH",
"90 2 OFFCURVE",
"92 0 OFFCURVE",
"101 0 CURVE SMOOTH",
"118 0 LINE SMOOTH",
"128 0 OFFCURVE",
"130 2 OFFCURVE",
"130 12 CURVE SMOOTH",
"130 732 LINE SMOOTH"
);
},
{
closed = 1;
nodes = (
"293 351 OFFCURVE",
"289 359 OFFCURVE",
"284 353 CURVE SMOOTH",
"265 329 LINE SMOOTH",
"260 323 OFFCURVE",
"256 327 OFFCURVE",
"261 319 CURVE SMOOTH",
"455 7 LINE SMOOTH",
"458 2 OFFCURVE",
"461 0 OFFCURVE",
"467 0 CURVE SMOOTH",
"498 0 LINE SMOOTH",
"507 0 OFFCURVE",
"508 4 OFFCURVE",
"503 12 CURVE SMOOTH",
"298 343 LINE SMOOTH"
);
},
{
closed = 1;
nodes = (
"484 524 OFFCURVE",
"483 530 OFFCURVE",
"473 530 CURVE SMOOTH",
"445 530 LINE SMOOTH",
"438 530 OFFCURVE",
"435 528 OFFCURVE",
"428 520 CURVE SMOOTH",
"101 189 LINE SMOOTH",
"94 181 OFFCURVE",
"97 155 OFFCURVE",
"106 155 CURVE SMOOTH",
"111 155 LINE SMOOTH",
"121 155 OFFCURVE",
"111 141 OFFCURVE",
"120 151 CURVE SMOOTH",
"475 515 LINE SMOOTH"
);
}
);
};
layerId = "91AB5BCA-6A50-42DA-B2F7-8181BF189245";
name = Light;
paths = (
{
closed = 1;
nodes = (
"305 331 LINE SMOOTH",
"302 336 OFFCURVE",
"303 339 OFFCURVE",
"306 342 CURVE SMOOTH",
"475 515 LINE SMOOTH",
"484 524 OFFCURVE",
"483 530 OFFCURVE",
"473 530 CURVE SMOOTH",
"445 530 LINE SMOOTH",
"438 530 OFFCURVE",
"435 528 OFFCURVE",
"428 520 CURVE",
"143 232 LINE SMOOTH",
"135 224 OFFCURVE",
"130 225 OFFCURVE",
"130 238 CURVE SMOOTH",
"130 732 LINE SMOOTH",
"130 740 OFFCURVE",
"128 742 OFFCURVE",
"121 742 CURVE SMOOTH",
"99 742 LINE SMOOTH",
"92 742 OFFCURVE",
"90 740 OFFCURVE",
"90 732 CURVE SMOOTH",
"90 10 LINE SMOOTH",
"90 2 OFFCURVE",
"92 0 OFFCURVE",
"101 0 CURVE SMOOTH",
"118 0 LINE SMOOTH",
"128 0 OFFCURVE",
"130 2 OFFCURVE",
"130 12 CURVE SMOOTH",
"130 152 LINE SMOOTH",
"130 159 OFFCURVE",
"132 164 OFFCURVE",
"137 169 CURVE SMOOTH",
"265 299 LINE SMOOTH",
"270 304 OFFCURVE",
"271 302 OFFCURVE",
"273 299 CURVE SMOOTH",
"455 7 LINE SMOOTH",
"458 2 OFFCURVE",
"461 0 OFFCURVE",
"467 0 CURVE SMOOTH",
"498 0 LINE SMOOTH",
"507 0 OFFCURVE",
"508 4 OFFCURVE",
"503 12 CURVE SMOOTH"
);
}
);
width = 506;
}
);
leftMetricsKey = n;
unicode = 006B;
},
{
color = 4;
glyphname = kgreenlandic;
lastChange = "2015-08-07 07:12:27 +0000";
layers = (
{
layerId = "258ED206-D907-4350-8EBA-CBDDA1C16BF7";
name = Bold;
paths = (
{
closed = 1;
nodes = (
"451 337 LINE SMOOTH",
"442 355 OFFCURVE",
"444 361 OFFCURVE",
"453 372 CURVE SMOOTH",
"582 501 LINE SMOOTH",
"595 515 OFFCURVE",
"591 530 OFFCURVE",
"568 530 CURVE SMOOTH",
"431 530 LINE SMOOTH",
"421 530 OFFCURVE",
"410 523 OFFCURVE",
"400 513 CURVE SMOOTH",
"250 344 LINE SMOOTH",
"242 335 OFFCURVE",
"238 340 OFFCURVE",
"238 346 CURVE SMOOTH",
"238 509 LINE SMOOTH",
"238 522 OFFCURVE",
"232 530 OFFCURVE",
"220 530 CURVE SMOOTH",
"57 530 LINE SMOOTH",
"46 530 OFFCURVE",
"38 522 OFFCURVE",
"38 507 CURVE SMOOTH",
"38 25 LINE SMOOTH",
"38 8 OFFCURVE",
"44 0 OFFCURVE",
"65 0 CURVE SMOOTH",
"206 0 LINE SMOOTH",
"229 0 OFFCURVE",
"238 8 OFFCURVE",
"238 29 CURVE SMOOTH",
"238 130 LINE SMOOTH",
"238 146 OFFCURVE",
"241 153 OFFCURVE",
"247 158 CURVE SMOOTH",
"295 203 LINE SMOOTH",
"305 213 OFFCURVE",
"310 211 OFFCURVE",
"316 198 CURVE SMOOTH",
"388 26 LINE SMOOTH",
"395 10 OFFCURVE",
"404 0 OFFCURVE",
"421 0 CURVE SMOOTH",
"592 0 LINE SMOOTH",
"610 0 OFFCURVE",
"617 17 OFFCURVE",
"611 28 CURVE SMOOTH"
);
}
);
width = 595;
},
{
layerId = "91AB5BCA-6A50-42DA-B2F7-8181BF189245";
name = Light;
paths = (
{
closed = 1;
nodes = (
"305 331 LINE SMOOTH",
"302 336 OFFCURVE",
"303 339 OFFCURVE",
"306 342 CURVE SMOOTH",
"475 515 LINE SMOOTH",
"484 524 OFFCURVE",
"483 530 OFFCURVE",
"473 530 CURVE SMOOTH",
"445 530 LINE SMOOTH",
"438 530 OFFCURVE",
"435 528 OFFCURVE",
"428 520 CURVE",
"143 232 LINE SMOOTH",
"135 224 OFFCURVE",
"130 225 OFFCURVE",
"130 238 CURVE SMOOTH",
"130 520 LINE SMOOTH",
"130 528 OFFCURVE",
"128 530 OFFCURVE",
"121 530 CURVE SMOOTH",
"99 530 LINE SMOOTH",
"92 530 OFFCURVE",
"90 528 OFFCURVE",
"90 520 CURVE SMOOTH",
"90 10 LINE SMOOTH",
"90 2 OFFCURVE",
"92 0 OFFCURVE",
"101 0 CURVE SMOOTH",
"118 0 LINE SMOOTH",
"128 0 OFFCURVE",
"130 2 OFFCURVE",
"130 12 CURVE SMOOTH",
"130 152 LINE SMOOTH",
"130 159 OFFCURVE",
"132 164 OFFCURVE",
"137 169 CURVE SMOOTH",
"265 299 LINE SMOOTH",
"270 304 OFFCURVE",
"271 302 OFFCURVE",
"273 299 CURVE SMOOTH",
"455 7 LINE SMOOTH",
"458 2 OFFCURVE",
"461 0 OFFCURVE",
"467 0 CURVE SMOOTH",
"498 0 LINE SMOOTH",
"507 0 OFFCURVE",
"508 4 OFFCURVE",
"503 12 CURVE SMOOTH"
);
}
);
width = 506;
}
);
unicode = 0138;
},
{
color = 4;
glyphname = l;
lastChange = "2015-08-07 07:12:27 +0000";
layers = (
{
anchors = (
{
name = bottom;
position = "{145, 0}";
},
{
name = top;
position = "{145, 742}";
},
{
name = topright;
position = "{332, 530}";
}
);
layerId = "258ED206-D907-4350-8EBA-CBDDA1C16BF7";
name = Bold;
paths = (
{
closed = 1;
nodes = (
"241 734 OFFCURVE",
"234 742 OFFCURVE",
"223 742 CURVE SMOOTH",
"63 742 LINE SMOOTH",
"51 742 OFFCURVE",
"44 734 OFFCURVE",
"44 719 CURVE SMOOTH",
"39 25 LINE SMOOTH",
"39 8 OFFCURVE",
"46 0 OFFCURVE",
"66 0 CURVE SMOOTH",
"208 0 LINE SMOOTH",
"231 0 OFFCURVE",
"241 8 OFFCURVE",
"241 29 CURVE SMOOTH",
"241 721 LINE SMOOTH"
);
}
);
width = 290;
},
{
anchors = (
{
name = bottom;
position = "{145, 0}";
},
{
name = top;
position = "{145, 742}";
},
{
name = topright;
position = "{290, 742}";
}
);
background = {
paths = (
{
closed = 1;
nodes = (
"241 734 OFFCURVE",
"234 742 OFFCURVE",
"223 742 CURVE SMOOTH",
"63 742 LINE SMOOTH",
"51 742 OFFCURVE",
"44 734 OFFCURVE",
"44 719 CURVE SMOOTH",
"39 25 LINE SMOOTH",
"39 8 OFFCURVE",
"46 0 OFFCURVE",
"66 0 CURVE SMOOTH",
"208 0 LINE SMOOTH",
"231 0 OFFCURVE",
"241 8 OFFCURVE",
"241 29 CURVE SMOOTH",
"241 721 LINE SMOOTH"
);
}
);
};
layerId = "91AB5BCA-6A50-42DA-B2F7-8181BF189245";
name = Light;
paths = (
{
closed = 1;
nodes = (
"165 740 OFFCURVE",
"163 742 OFFCURVE",
"156 742 CURVE SMOOTH",
"134 742 LINE SMOOTH",
"127 742 OFFCURVE",
"125 740 OFFCURVE",
"125 732 CURVE SMOOTH",
"125 10 LINE SMOOTH",
"125 2 OFFCURVE",
"127 0 OFFCURVE",
"136 0 CURVE SMOOTH",
"153 0 LINE SMOOTH",
"163 0 OFFCURVE",
"165 2 OFFCURVE",
"165 12 CURVE SMOOTH",
"165 732 LINE SMOOTH"
);
}
);
width = 290;
}
);
leftMetricsKey = "=n+7";
rightMetricsKey = "=n+7";
unicode = 006C;
},
{
color = 4;
glyphname = lslash;
lastChange = "2015-08-07 07:12:27 +0000";
layers = (
{
components = (
{
name = l;
transform = "{1, 0, 0, 1, 48, 0}";
}
);
layerId = "258ED206-D907-4350-8EBA-CBDDA1C16BF7";
name = Bold;
paths = (
{
closed = 1;
nodes = (
"363 518 OFFCURVE",
"356 525 OFFCURVE",
"339 520 CURVE SMOOTH",
"39 424 LINE SMOOTH",
"27 420 OFFCURVE",
"20 416 OFFCURVE",
"20 401 CURVE SMOOTH",
"20 281 LINE SMOOTH",
"20 264 OFFCURVE",
"26 256 OFFCURVE",
"46 263 CURVE SMOOTH",
"343 365 LINE SMOOTH",
"357 370 OFFCURVE",
"363 377 OFFCURVE",
"363 389 CURVE SMOOTH",
"363 502 LINE SMOOTH"
);
}
);
width = 383;
},
{
components = (
{
name = l;
transform = "{1, 0, 0, 1, 48, 0}";
}
);
layerId = "91AB5BCA-6A50-42DA-B2F7-8181BF189245";
name = Light;
paths = (
{
closed = 1;
nodes = (
"290 434 OFFCURVE",
"288 437 OFFCURVE",
"283 435 CURVE SMOOTH",
"98 375 LINE SMOOTH",
"95 374 OFFCURVE",
"93 373 OFFCURVE",
"93 369 CURVE SMOOTH",
"93 336 LINE SMOOTH",
"93 331 OFFCURVE",
"95 329 OFFCURVE",
"100 331 CURVE SMOOTH",
"284 392 LINE SMOOTH",
"288 393 OFFCURVE",
"290 395 OFFCURVE",
"290 399 CURVE SMOOTH",
"290 430 LINE SMOOTH"
);
}
);
width = 383;
}
);
unicode = 0142;
},
{
color = 4;
glyphname = m;
lastChange = "2015-08-07 07:12:27 +0000";
layers = (
{
guideLines = (
{
angle = 90;
position = "{321, 331}";
showMeasurement = 1;
}
);
layerId = "258ED206-D907-4350-8EBA-CBDDA1C16BF7";
name = Bold;
paths = (
{
closed = 1;
nodes = (
"205 0 LINE SMOOTH",
"229 0 OFFCURVE",
"238 8 OFFCURVE",
"238 29 CURVE SMOOTH",
"238 349 LINE",
"257 383 OFFCURVE",
"282 399 OFFCURVE",
"312 399 CURVE SMOOTH",
"344 399 OFFCURVE",
"364 381 OFFCURVE",
"364 351 CURVE SMOOTH",
"364 25 LINE SMOOTH",
"364 6 OFFCURVE",
"371 0 OFFCURVE",
"387 0 CURVE SMOOTH",
"533 0 LINE SMOOTH",
"554 0 OFFCURVE",
"563 10 OFFCURVE",
"563 30 CURVE SMOOTH",
"563 333 LINE SMOOTH",
"563 342 OFFCURVE",
"563 351 OFFCURVE",
"571 360 CURVE SMOOTH",
"586 381 OFFCURVE",
"612 399 OFFCURVE",
"637 399 CURVE SMOOTH",
"668 399 OFFCURVE",
"689 381 OFFCURVE",
"689 351 CURVE SMOOTH",
"689 25 LINE SMOOTH",
"689 6 OFFCURVE",
"695 0 OFFCURVE",
"712 0 CURVE SMOOTH",
"858 0 LINE SMOOTH",
"879 0 OFFCURVE",
"889 10 OFFCURVE",
"889 30 CURVE SMOOTH",
"889 373 LINE SMOOTH",
"889 480 OFFCURVE",
"825 540 OFFCURVE",
"735 540 CURVE SMOOTH",
"675 540 OFFCURVE",
"599 497 OFFCURVE",
"562 446 CURVE SMOOTH",
"557 440 OFFCURVE",
"552 440 OFFCURVE",
"550 445 CURVE SMOOTH",
"527 507 OFFCURVE",
"475 541 OFFCURVE",
"408 541 CURVE SMOOTH",
"347 541 OFFCURVE",
"291 507 OFFCURVE",
"248 461 CURVE SMOOTH",
"240 453 OFFCURVE",
"235 457 OFFCURVE",
"235 465 CURVE SMOOTH",
"235 510 LINE SMOOTH",
"235 522 OFFCURVE",
"229 530 OFFCURVE",
"217 530 CURVE SMOOTH",
"57 530 LINE SMOOTH",
"46 530 OFFCURVE",
"38 521 OFFCURVE",
"38 507 CURVE SMOOTH",
"38 25 LINE SMOOTH",
"38 7 OFFCURVE",
"45 0 OFFCURVE",
"64 0 CURVE SMOOTH"
);
}
);
width = 927;
},
{
background = {
paths = (
{
closed = 1;
nodes = (
"471 485 OFFCURVE",
"408 540 OFFCURVE",
"330 540 CURVE SMOOTH",
"262 540 OFFCURVE",
"192 514 OFFCURVE",
"134 449 CURVE SMOOTH",
"129 443 OFFCURVE",
"127 443 OFFCURVE",
"127 451 CURVE SMOOTH",
"127 522 LINE SMOOTH",
"127 528 OFFCURVE",
"125 530 OFFCURVE",
"119 530 CURVE SMOOTH",
"98 530 LINE SMOOTH",
"92 530 OFFCURVE",
"90 527 OFFCURVE",
"90 521 CURVE SMOOTH",
"90 9 LINE SMOOTH",
"90 3 OFFCURVE",
"93 0 OFFCURVE",
"99 0 CURVE SMOOTH",
"121 0 LINE SMOOTH",
"127 0 OFFCURVE",
"130 3 OFFCURVE",
"130 9 CURVE SMOOTH",
"130 399 LINE",
"187 468 OFFCURVE",
"259 499 OFFCURVE",
"316 499 CURVE SMOOTH",
"392 499 OFFCURVE",
"431 456 OFFCURVE",
"431 371 CURVE SMOOTH",
"431 9 LINE SMOOTH",
"431 3 OFFCURVE",
"434 0 OFFCURVE",
"440 0 CURVE SMOOTH",
"462 0 LINE SMOOTH",
"468 0 OFFCURVE",
"471 3 OFFCURVE",
"471 10 CURVE SMOOTH",
"471 393 LINE SMOOTH"
);
},
{
closed = 1;
nodes = (
"812 485 OFFCURVE",
"749 540 OFFCURVE",
"670 540 CURVE SMOOTH",
"604 540 OFFCURVE",
"526 510 OFFCURVE",
"470 447 CURVE SMOOTH",
"465 442 OFFCURVE",
"462 443 OFFCURVE",
"459 451 CURVE",
"471 385 LINE",
"471 397 OFFCURVE",
"473 403 OFFCURVE",
"480 411 CURVE SMOOTH",
"531 470 OFFCURVE",
"604 499 OFFCURVE",
"660 499 CURVE SMOOTH",
"733 499 OFFCURVE",
"772 455 OFFCURVE",
"772 371 CURVE SMOOTH",
"772 9 LINE SMOOTH",
"772 3 OFFCURVE",
"775 0 OFFCURVE",
"781 0 CURVE SMOOTH",
"803 0 LINE SMOOTH",
"809 0 OFFCURVE",
"812 3 OFFCURVE",
"812 10 CURVE SMOOTH",
"812 393 LINE SMOOTH"
);
}
);
};
guideLines = (
{
position = "{270, 454}";
}
);
layerId = "91AB5BCA-6A50-42DA-B2F7-8181BF189245";
name = Light;
paths = (
{
closed = 1;
nodes = (
"121 0 LINE SMOOTH",
"127 0 OFFCURVE",
"130 3 OFFCURVE",
"130 9 CURVE SMOOTH",
"130 399 LINE",
"182 462 OFFCURVE",
"252 499 OFFCURVE",
"319 499 CURVE SMOOTH",
"392 499 OFFCURVE",
"431 455 OFFCURVE",
"431 371 CURVE SMOOTH",
"431 9 LINE SMOOTH",
"431 3 OFFCURVE",
"434 0 OFFCURVE",
"440 0 CURVE SMOOTH",
"462 0 LINE SMOOTH",
"468 0 OFFCURVE",
"471 3 OFFCURVE",
"471 10 CURVE SMOOTH",
"471 385 LINE SMOOTH",
"471 397 OFFCURVE",
"473 403 OFFCURVE",
"480 411 CURVE SMOOTH",
"523 463 OFFCURVE",
"598 499 OFFCURVE",
"662 499 CURVE SMOOTH",
"733 499 OFFCURVE",
"772 454 OFFCURVE",
"772 371 CURVE SMOOTH",
"772 9 LINE SMOOTH",
"772 3 OFFCURVE",
"775 0 OFFCURVE",
"781 0 CURVE SMOOTH",
"803 0 LINE SMOOTH",
"809 0 OFFCURVE",
"812 3 OFFCURVE",
"812 10 CURVE SMOOTH",
"812 393 LINE SMOOTH",
"812 484 OFFCURVE",
"755 540 OFFCURVE",
"661 540 CURVE SMOOTH",
"597 540 OFFCURVE",
"547 516 OFFCURVE",
"470 447 CURVE",
"465 442 OFFCURVE",
"465 443 OFFCURVE",
"462 451 CURVE SMOOTH",
"442.674 506.93 OFFCURVE",
"392.467 540 OFFCURVE",
"321 540 CURVE SMOOTH",
"256 540 OFFCURVE",
"202 514 OFFCURVE",
"134 449 CURVE SMOOTH",
"129 444 OFFCURVE",
"127 445 OFFCURVE",
"127 451 CURVE SMOOTH",
"127 522 LINE SMOOTH",
"127 528 OFFCURVE",
"125 530 OFFCURVE",
"119 530 CURVE SMOOTH",
"98 530 LINE SMOOTH",
"92 530 OFFCURVE",
"90 527 OFFCURVE",
"90 521 CURVE SMOOTH",
"90 9 LINE SMOOTH",
"90 3 OFFCURVE",
"93 0 OFFCURVE",
"99 0 CURVE SMOOTH"
);
}
);
width = 902;
}
);
unicode = 006D;
},
